/* XPM */
static char *_786a9e792054e1bee8c760e2a1c7523KSLQa39VmhRFfJEg[] = {
/* columns rows colors chars-per-pixel */
"60 60 216 2 ",
"   c #3D3600",
".  c #3D3A02",
"X  c #4A3500",
"o  c #423E09",
"O  c #4E3A08",
"+  c #523E00",
"@  c #4C4204",
"#  c #434009",
"$  c #4F4008",
"%  c #574601",
"&  c #5D4D02",
"*  c #574908",
"=  c #5A5809",
"-  c #534B18",
";  c #614F06",
":  c #654E0B",
">  c #6C5909",
",  c #624E1A",
"<  c #6B5614",
"1  c #735C1C",
"2  c #726C0F",
"3  c #736B14",
"4  c #7E791D",
"5  c #4D4828",
"6  c #585430",
"7  c #625923",
"8  c #6E5B24",
"9  c #655A3F",
"0  c #676228",
"q  c #756829",
"w  c #7B762C",
"e  c #6C6035",
"r  c #766634",
"t  c #7C733C",
"y  c #6B5C49",
"u  c #6A6245",
"i  c #72634C",
"p  c #6F6955",
"a  c #7E7D5E",
"s  c #757673",
"d  c #837207",
"f  c #826610",
"g  c #836F13",
"h  c #87791B",
"j  c #927615",
"k  c #907924",
"l  c #897A45",
"z  c #887B57",
"x  c #837D65",
"c  c #988808",
"v  c #AB931F",
"b  c #948824",
"n  c #948E3D",
"m  c #A79635",
"M  c #B79B3A",
"N  c #BAAD2F",
"B  c #AFAA33",
"V  c #D5B601",
"C  c #DDBC01",
"Z  c #DBBD06",
"A  c #E5BC03",
"S  c #ECBE01",
"D  c #E4BE0D",
"F  c #E8BA08",
"G  c #E3BE16",
"H  c #EEB916",
"J  c #CBAF2D",
"K  c #C3AB37",
"L  c #D1BA37",
"P  c #D2C500",
"I  c #DBC402",
"U  c #DDCA02",
"Y  c #DAC70A",
"T  c #D4D000",
"R  c #DDD802",
"E  c #DECB16",
"W  c #E4C402",
"Q  c #EBC302",
"!  c #E4CA03",
"~  c #ECCB03",
"^  c #E5C50B",
"/  c #EAC50C",
"(  c #ECCC0B",
")  c #F2C501",
"_  c #F8C605",
"`  c #F3CB02",
"'  c #FBCC03",
"]  c #F3C30D",
"[  c #F3CB0A",
"{  c #FDCC0A",
"}  c #E4D503",
"|  c #EDD403",
" . c #E9D80A",
".. c #F1D203",
"X. c #FBD005",
"o. c #F3DB04",
"O. c #F4D80C",
"+. c #E6C213",
"@. c #E5CA11",
"#. c #EAC816",
"$. c #EDC61B",
"%. c #ECCD1C",
"&. c #F5CE11",
"*. c #F6C915",
"=. c #ECD51A",
"-. c #FCD112",
";. c #F4D817",
":. c #EBE902",
">. c #EAE309",
",. c #F8E506",
"<. c #F3E30A",
"1. c #F5ED0C",
"2. c #FAEB0C",
"3. c #EDF201",
"4. c #F9F406",
"5. c #F4F408",
"6. c #FCF40D",
"7. c #FCFA0D",
"8. c #EDE911",
"9. c #FBE514",
"0. c #F2EC10",
"q. c #FBEC12",
"w. c #F9E918",
"e. c #F5F315",
"r. c #FDF314",
"t. c #FEFA14",
"y. c #FEF51C",
"u. c #FFFB1A",
"i. c #EAC422",
"p. c #EAC92A",
"a. c #F7CD29",
"s. c #EADB24",
"d. c #EDD826",
"f. c #EFD02E",
"g. c #F3D423",
"h. c #F7D92B",
"j. c #E5C938",
"k. c #FACF39",
"l. c #EDD531",
"z. c #ECD33C",
"x. c #F5DD37",
"c. c #F3DA3C",
"v. c #EEE321",
"b. c #F6EB2B",
"n. c #EFEB32",
"m. c #F4E334",
"M. c #F1E43B",
"N. c #F6E63D",
"B. c #938D4C",
"V. c #8F8250",
"C. c #998758",
"Z. c #B99E41",
"A. c #A39552",
"S. c #A9965D",
"D. c #B0AB4B",
"F. c #998C67",
"G. c #8D857F",
"H. c #B69D62",
"J. c #A49A77",
"K. c #BDA56C",
"L. c #B8A579",
"P. c #CEB14D",
"I. c #D3B745",
"U. c #DEBF45",
"Y. c #C5B156",
"T. c #DCBE53",
"R. c #CC9869",
"E. c #C3AF7D",
"W. c #C8B37B",
"Q. c #E3B96E",
"!. c #DCC547",
"~. c #C6C152",
"^. c #DED559",
"/. c #E7C947",
"(. c #F0CF4A",
"). c #E8DE46",
"_. c #F9DA48",
"`. c #E7CA54",
"'. c #ECD654",
"]. c #EFDC5B",
"[. c #F2D75A",
"{. c #EBE244",
"}. c #F6E344",
"|. c #F7EB47",
" X c #F9EC4A",
".X c #FAF24C",
"XX c #F8EC56",
"oX c #FCF659",
"OX c #CBC766",
"+X c #D9D36A",
"@X c #E5DD69",
"#X c #E4C67E",
"$X c #E4CC7B",
"%X c #EFD37E",
"&X c #EDE568",
"*X c #F8E763",
"=X c #FEED64",
"-X c #F6E969",
";X c #FEF464",
":X c #FFF36E",
">X c #FAF570",
",X c #FFFC7B",
"<X c #949183",
"1X c #A09D89",
"2X c #A5A082",
"3X c #B5AB87",
"4X c #C7B581",
"5X c #CBB483",
"6X c #D0BC80",
"7X c #E3C884",
"8X c #E5C986",
"9X c #EFD184",
"0X c #F3D487",
"qX c #F1D388",
"wX c #E4CB91",
"eX c #FCF283",
/* pixels */
"R.R.R.R.R.R.Q.Q.Q.Q.Q.Q.Q.Q.Q.Q.Q.Q.Q.Q.Q.Q.Q.Q.Q.Q.Q.Q.Q.Q.Q.Q.Q.Q.Q.Q.Q.Q.Q.Q.Q.Q.Q.Q.Q.Q.Q.Q.Q.Q.Q.Q.Q.Q.R.R.R.R.R.R.",
"R.R.R.R.R.R.Q.Q.Q.Q.Q.Q.Q.Q.Q.Q.Q.Q.Q.Q.Q.Q.Q.Q.Q.Q.Q.Q.Q.Q.Q.Q.Q.Q.Q.Q.Q.Q.Q.Q.Q.Q.Q.Q.Q.Q.Q.Q.Q.Q.Q.Q.Q.Q.R.R.R.R.R.R.",
"R.R.R.R.R.R.Q.Q.Q.Q.Q.Q.Q.Q.Q.Q.Q.Q.Q.Q.Q.Q.Q.Q.Q.Q.Q.Q.Q.Q.Q.Q.Q.Q.Q.Q.Q.Q.Q.Q.Q.Q.Q.Q.Q.Q.Q.Q.Q.Q.Q.Q.Q.Q.R.R.R.R.R.R.",
"R.R.R.0X0X0X0X0X0X0X0X0X0X0X0X0X0X0X0X0X0X0X0X0X0X0X0X0X0X0X0X0X0X0X0X0X0X0X0X0X0X0X0X0X0X0X0X0X0X0X0X0X0X0X0X0X0XR.R.R.",
"R.R.R.0X0X0X0X0X0X0X0X0X0X0X0X0X0X0X0X0X0X0X0X0X0X0X0X0X0X0X0X0X0X0X0X0X0X0X0X0X0X0X0X0X0X0X0X0X0X0X0X0X0X0X0X0X0XR.R.R.",
"R.R.R.0X0X0X0X0X0X0X0X0X0X0X0X0X0X0X0X0X0X0X0X0X0X0X0X0X0X0X0X0X0X0X0X0X0X0X0X0X0X0X0X0X0X0X0X0X0X0X0X0X0X0X0X0X0XR.R.R.",
"Q.Q.Q.0X0X0X0X0X0X0X0X0X0X0X0X0X0X0X0X0X0X0X0X0X0X0X0X0X0X0X0X0X0X0X0X0X0X0X0X0X0X0X0X0X0X0X0X0X0X0X0X0X0X0X0X0X0XQ.Q.Q.",
"Q.Q.Q.0X0X0X0X0X0X0X0X0X0X0X0X0X0X0X0X0X0X0X0X0X0X0X0X0X0X0X0X0X0X0X0X0X0X0X0X0X0X0X0X0X0X0X0X0X0X0X0X0X0X0X0X0X0XQ.Q.Q.",
"Q.Q.Q.0X0X0X0X0X0X0X0X0X0X0X0X0X0X0X0X0X0X0X0X0X0X0X0X0X0X0X0X0X0X0X0X0X0X0X0X0X0X0X0X0X0X0X0X0X0X0X0X0X0X0X0X0X0XQ.Q.Q.",
"Q.Q.Q.0X0X0X0X0X0X0X0X0X0X0X0X0X0X0X0X0X0X0X0X0X0X0X0X0X0X0X0X0X0X0X0X0X0X0X0X0X0X0X0X0X0X0X0X0X0X0X0X0X0X0X0X0X0XQ.Q.Q.",
"Q.Q.Q.0X0X0X0X0X0X0X0X0X0X0X0X0X0X0X0X0X0X0X0X0X0X0X0X0X0X0X0X0X0X0X0X0X0X0X0X0X0X0X0X0X0X0X0X0X0X0X0X0X0X0X0X0X0XQ.Q.Q.",
"Q.Q.Q.0X0X0X0X0X0X0X0X0X0X0X0X0X0X0X0X0X0X0X0X0X0X0X0X0X0X0X0X0X0X0X0X0X0X0X0X0X0X0X0X0X0X0X0X0X0X0X0X0X0X0X0X0X0XQ.Q.Q.",
"Q.Q.Q.0X0X0X0X0X0X0X0X0X0X0X0X0X0X0X0X0X0X0X0X0X0X0XqXqX0X0X0X0X0X0X0X0X0X0X0X0X0X0X0X0X0X0X0X0X0X0X0X0X0X0X0X0X0XQ.Q.Q.",
"Q.Q.Q.0X0X0X0X0X0X0X0X0X0X0X0X0X0X0X0X0X0X0X0X0X0X0X0XqX0X0X0X0X0X0X0X0X0X0X0X0X0X0X0X0X0X0X0X0X0X0X0X0X0X0X0X0X0XQ.Q.Q.",
"Q.Q.Q.0X0X0X0X0X0X0X0X0X0X0X0X0X0X0X0X0X0X0X0X0X0X0XqXqXqXqX0X0XqXqX0X0X0X0X0X0X0X0X0X0X0X0X0X0X0X0X0X0X0X0X0X0X0XQ.Q.Q.",
"Q.Q.Q.0X0X0X0X0X0X0X0X0X0X0X0X0X0X0X0X0X0X0X0X0X0X8Xs p 6 5 5 y p F.2XW.0X0X0X0X0X0X0X0X0X0X0X0X0X0X0X0X0X0X0X0X0XQ.Q.Q.",
"Q.Q.Q.0X0X0X0X0X0X0X0X0X0X0X0X0X0X0X0X0XqXqXqXW.B.6 # 0 B.B.n t 7 o . a W.9X0X0X0X0X0X0X0X0X0X0X0X0X0X0X0X0X0X0X0XQ.Q.Q.",
"Q.Q.Q.0X0X0X0X0X0X0X0X0X0X0X0X0X0X0X0X0XqX9Xz @ 4 ~.&X>X>X>X;X-X&X&XB = . A.8X0X0X0X0X0X0X0X0X0X0X0X0X0X0X0X0X0X0XQ.Q.Q.",
"Q.Q.Q.0X0X0X0X0X0X0X0X0X0X0X0X0X0X0X0X0XL.e w +X>X;X.X{.m.m.m.|..X{.oX,XD.= t 8X0X0X0X0X0X0X0X0X0X0X0X0X0X0X0X0X0XQ.Q.Q.",
"Q.Q.#X0X0X0X0X0X0X0X0X0X0X0X0X0X0X0X0XF.# A.@X*X.Xv.=. .Y U Y U Y v.b.n..X^.2 w L.9X0X0X0X0X0X0X0X0X0X0X0X0X0X0X0XQ.Q.Q.",
"Q.Q.Q.0X0X0X0X0X0X0X0X0X0X0X0X0X0X0XL.# D.eX;X}.E Y @.^ V V V V ! U P  .b.m.;Xg $ 5X0X0X0X0X0X0X0X0X0X0X0X0X0X0X0XQ.Q.Q.",
"Q.Q.Q.0X0X0X0X0X0X0X0X0X0X0X0X0X0X8X0 n eX*Xl.%.^ ^ ^ ! ! =.=.I Y ( Y U } w.n.].3 r %X0X0X0X0X0X0X0X0X0X0X0X0X0X0XQ.Q.Q.",
"Q.Q.Q.0X0X0X0X0X0X0X0X0X0X0X0X0X9XV.q eXXXM.Y Z W W ~ | 0.t.q.q. .Y ! ! W | ;.|.`.& C.0X0X0X0X0X0X0X0X0X0X0X0X0X0XQ.Q.Q.",
"Q.Q.Q.0X0X0X0X0X0X0X0X0X0X0X0X0XE.. OX>Xn.Y P ~ ~ O.9.r.u.7.5.4.u.w.! ^ | ! ( s.XXm % 3X0X0X0X0X0X0X0X0X0X0X0X0X0XQ.Q.Q.",
"Q.Q.Q.0X0X0X0X0X0X0X0X0X0X0X0X0Xt w ,X{.E I ;.W ( w.w.y.0.8.5.4.4.r.9.~ W ~ C ;.l.'.& r 0X0X0X0X0X0X0X0X0X0X0X0X0XQ.Q.Q.",
"Q.Q.Q.0X0X0X0X0X0X0X0X0X0X0X0X<X  OXXXm.I / ;./ | 6.t.e.T 8.0.} 9.9.o.Q ) [ F / h.N.c % 3X0X0X0X0X0X0X0X0X0X0X0X0XQ.Q.Q.",
"Q.Q.Q.0X0X0X0X0X0X0X0X0X0X0X0Xx = +XXX=.W ~ [ Q | r.r.6.:.1.>.P I I ! Q Q [ { Q %.x.N % 1X9X0X0X0X0X0X0X0X0X0X0X0XQ.Q.Q.",
"Q.Q.Q.0X0X0X0X0X0X0X0X0X0X0X0X9 3 &X X@.W X.' Q ..q.r.4.5.4.3.R I I Q ~ ` { -.Q #.h./.% x 9X0X0X0X0X0X0X0X0X0X0X0XQ.Q.Q.",
"Q.Q.Q.0X0X0X0X0X0X0X0X0X0X0X9X5 h :Xc.Y ) ' ' ` Q O.r.7.7.4.4.6.<.| | ~ _ ' { S / h.[.: i 0X0X0X0X0X0X0X0X0X0X0X0XQ.Q.Q.",
"Q.Q.Q.0X0X0X0X0X0X0X0X0X0X0X0X5 b =Xc.D ` ' ' ' Q ~ <.5.7.7.7.t.t.r.,.Q ) ' _ ) A h.'.< y 0X0X0X0X0X0X0X0X0X0X0X0XQ.Q.Q.",
"Q.Q.Q.0X0X0X0X0X0X0X0X0X0X0X0X- k =Xc.G ] ' ' X.X.! U U  .2.6.7.7.t.2...` ' { S Q h./.< y 0X0X0X0X0X0X0X0X0X0X0X0XQ.Q.Q.",
"Q.Q.Q.0X0X0X0X0X0X0X0X0X0X0X0X6 h XX_.G ) ' _ S Q W I P P 8.1.:.3.7.t.<.Q ) { S &.s.z.; z 0X0X0X0X0X0X0X0X0X0X0X0XQ.Q.Q.",
"Q.Q.Q.0X0X0X0X0X0X0X0X0X0X0X0Xe 3 &X}.+.F -.*.Q X.o.<. .Y 8. .R :.5.7.o.) ) ' Q / h.L % V.0X0X0X0X0X0X0X0X0X0X0X0XQ.Q.Q.",
"Q.Q.Q.0X0X0X0X0X0X0X0X0X0X0XqXV.* ^.M.d.C ] *.A ,.6.t.,.R >.>.R :.7.6.o.~ ) ) A $._.v % 1X0X0X0X0X0X0X0X0X0X0X0X0XQ.Q.Q.",
"Q.Q.Q.0X0X0X0X0X0X0X0X0X0X0XqX<X. B ).v.W Q &.A ! 6.t.r.e.0.5.1.r.t.,.| ~ ~ Q D f.j.d - 0X0X0X0X0X0X0X0X0X0X0X0X0XQ.Q.Q.",
"Q.Q.Q.0X0X0X0X0X0X0X0X0X0XqXqX7Xt 2 '.d.;.I Q ( ! o.1.t.u.t.t.y.y.1.| ~ ~ ] D f./.K & S.0X0X0X0X0X0X0X0X0X0X0X0X0XQ.Q.Q.",
"Q.Q.Q.0X0X0X0X0X0X0X0X0X0X0X0X0XE.X N }.%.I / &.O.U }  .:.2.q.<.| | | ~ ~ / G j.[.h , Q.0X0X0X0X0X0X0X0X0X0X0X0X0XQ.Q.Q.",
"Q.Q.Q.0X0X0X0X0X0X0X0X0X0X0X0X0X9Xz : !._.a.$./ ~ ~ | W C 9.O.A Q Q ` ~ D +.z.(.Z.@ S.9X0X0X0X0X0X0X0X0X0X0X0X0X0XQ.Q.Q.",
"Q.Q.Q.0X0X0X0X0X0X0X0X0X0X0X0X0X0X%X8 k `._.H H A [ &.^ W &.] F ] [ Q A +.p./.P.: r wX0X0X0X0X0X0X0X0X0X0X0X0X0X0XQ.Q.Q.",
"Q.Q.Q.0X0X0X0X0X0X0X0X0X0X0X0X0X0X0X5XX j `.k.a.( W V / D F F F H ] S Q g.p.J > 1 8X9X0X0X0X0X0X0X0X0X0X0X0X0X0X0XQ.Q.Q.",
"Q.Q.Q.0X0X0X0X0X0X0X0X0X0X0X0X0X0X0X0XJ.O q Y.@Xz.p.@.~ S S F A ] a.i.j.`.M : , 4XqX0X0X0X0X0X0X0X0X0X0X0X0X0X0X0XQ.Q.Q.",
"Q.Q.Q.0X0X0X0X0X0X0X0X0X0X0X0X0X0X0X0X%X4X8 * m !.j.l.a.$.*.i.a.i.i.(.I.g % r 6XQ.qX0X0X0X0X0X0X0X0X0X0X0X0X0X0X0XQ.Q.Q.",
"Q.Q.Q.0X0X0X0X0X0X0X0X0X0X0X0X0X0X0X0X0X9X9XC.X & j K !./.U.U.`.T.M f + 8 K.wX0XqX0X0X0X0X0X0X0X0X0X0X0X0X0X0X0X0XQ.Q.Q.",
"Q.Q.Q.0X0X0X0X0X0X0X0X0X0X0X0X0X0X0X0X0XqXqX9X5XA.0 X % < 1 < * O , l W.#XqX0X0XqX0X0X0X0X0X0X0X0X0X0X0X0X0X0X0X0XQ.Q.Q.",
"Q.Q.Q.0X0X0X0X0X0X0X0X0X0X0X0X0X0X0X0X0X0X0X0X0X0X$XG.z u y u p G.H.9X0X0X0X0X0X0X0X0X0X0X0X0X0X0X0X0X0X0X0X0X0X0XQ.Q.Q.",
"Q.Q.Q.0X0X0X0X0X0X0X0X0X0X0X0X0X0X0X0X0X0X0X0X0X0X0X0X0X0X0X0X0X0X0X0X0X0X0X0X0X0X0X0X0X0X0X0X0X0X0X0X0X0X0X0X0X0XQ.Q.Q.",
"Q.Q.Q.0X0X0X0X0X0X0X0X0X0X0X0X0X0X0X0X0X0X0X0X0X0X0X0X0X0X0X0X0X0X0X0X0X0X0X0X0X0X0X0X0X0X0X0X0X0X0X0X0X0X0X0X0X0XQ.Q.Q.",
"Q.Q.Q.0X0X0X0X0X0X0X0X0X0X0X0X0X0X0X0X0X0X0X0X0X0X0X0X0X0X0X0X0X0X0X0X0X0X0X0X0X0X0X0X0X0X0XqX0X0X0X0X0X0X0X0X0X0XQ.Q.Q.",
"Q.Q.Q.0X0X0X0X0X0X0X0X0X0X0X0X0X0X0X0X0X0X0X0X0X0X0X0X0X0X0X0X0X0X0X0X0X0X0X0X0X0X0X0X0X0X0X0X0X0X0X0X0X0X0X0X0X0XQ.Q.Q.",
"Q.Q.Q.0X0X0X0X0X0X0X0X0X0X0X0X0X0X0X0X0X0X0X0X0X0X0X0X0X0X0X0X0X0X0X0X0X0X0X0X0X0X0X0X0X0X0X0X0X0X0X0X0X0X0X0X0X0XQ.Q.Q.",
"Q.Q.Q.0X0X0X0X0X0X0X0X0X0X0X0X0X0X0X0X0X0X0X0X0X0X0X0X0X0X0X0X0X0X0X0X0X0X0X0X0X0X0X0X0X0X0X0X0X0X0X0X0X0X0X0X0X0XQ.Q.Q.",
"Q.Q.Q.0X0X0X0X0X0X0X0X0X0X0X0X0X0X0X0X0X0X0X0X0X0X0X0X0X0X0X0X0X0X0X0X0X0X0X0X0X0X0X0X0X0X0X0X0X0X0X0X0X0X0X0X0X0XQ.Q.Q.",
"Q.Q.Q.0X0X0X0X0X0X0X0X0X0X0X0X0X0X0X0X0X0X0X0X0X0X0X0X0X0X0X0X0X0X0X0X0X0X0X0X0X0X0X0X0X0X0X0X0X0X0X0X0X0X0X0X0X0XQ.Q.Q.",
"Q.Q.Q.0X0X0X0X0X0X0X0X0X0X0X0X0X0X0X0X0X0X0X0X0X0X0X0X0X0X0X0X0X0X0X0X0X0X0X0X0X0X0X0X0X0X0X0X0X0X0X0X0X0X0X0X0X0XQ.Q.Q.",
"R.R.R.0X0X0X0X0X0X0X0X0X0X0X0X0X0X0X0X0X0X0X0X0X0X0X0X0X0X0X0X0X0X0X0X0X0X0X0X0X0X0X0X0X0X0X0X0X0X0X0X0X0X0X0X0X0XR.R.R.",
"R.R.R.0X0X0X0X0X0X0X0X0X0X0X0X0X0X0X0X0X0X0X0X0X0X0X0X0X0X0X0X0X0X0X0X0X0X0X0X0X0X0X0X0X0X0X0X0X0X0X0X0X0X0X0X0X0XR.R.R.",
"R.R.R.0X0X0X0X0X0X0X0X0X0X0X0X0X0X0X0X0X0X0X0X0X0X0X0X0X0X0X0X0X0X0X0X0X0X0X0X0X0X0X0X0X0X0X0X0X0X0X0X0X0X0X0X0X0XR.R.R.",
"R.R.R.R.R.R.Q.Q.Q.Q.Q.Q.Q.Q.Q.Q.Q.Q.Q.Q.Q.Q.Q.Q.Q.Q.Q.Q.Q.Q.Q.Q.Q.Q.Q.Q.Q.Q.Q.Q.Q.Q.Q.Q.Q.Q.Q.Q.Q.Q.Q.Q.Q.Q.R.R.R.R.R.R.",
"R.R.R.R.R.R.Q.Q.Q.Q.Q.Q.Q.Q.Q.Q.Q.Q.Q.Q.Q.Q.Q.Q.Q.Q.Q.Q.Q.Q.Q.Q.Q.Q.Q.Q.Q.Q.Q.Q.Q.Q.Q.Q.Q.Q.Q.Q.Q.Q.Q.Q.Q.Q.R.R.R.R.R.R.",
"R.R.R.R.R.R.Q.Q.Q.Q.Q.Q.Q.Q.Q.Q.Q.Q.Q.Q.Q.Q.Q.Q.Q.Q.Q.Q.Q.Q.Q.Q.Q.Q.Q.Q.Q.Q.Q.Q.Q.Q.Q.Q.Q.Q.Q.Q.Q.Q.Q.Q.Q.Q.R.R.R.R.R.R."
};
