/* XPM */
static char *_e3d4056373445fcd663e141a9a2d50bDbrsllL7uuCKHwhk[] = {
/* columns rows colors chars-per-pixel */
"60 60 172 2 ",
"   c #373506",
".  c #3D3405",
"X  c #3D3902",
"o  c #32350C",
"O  c #3E320D",
"+  c #372F1B",
"@  c #2E3113",
"#  c #393B15",
"$  c #36341F",
"%  c #3A341E",
"&  c #3B3620",
"*  c #393A25",
"=  c #423703",
"-  c #423803",
";  c #413A31",
":  c #574A00",
">  c #5A4C11",
",  c #6C4F0D",
"<  c #655407",
"1  c #6E5B0D",
"2  c #715002",
"3  c #654E1B",
"4  c #695414",
"5  c #715815",
"6  c #70630C",
"7  c #746715",
"8  c #7C751F",
"9  c #4F4625",
"0  c #584B2A",
"q  c #5D5525",
"w  c #5F5129",
"e  c #58552B",
"r  c #554F3A",
"t  c #545334",
"y  c #5A5532",
"u  c #575039",
"i  c #624C2C",
"p  c #61502F",
"a  c #6E5029",
"s  c #635E2C",
"d  c #715D2C",
"f  c #624F30",
"g  c #675F37",
"h  c #68543D",
"j  c #786B24",
"k  c #7A7721",
"l  c #656231",
"z  c #6C6435",
"x  c #6D6B33",
"c  c #6D6B3A",
"v  c #70683A",
"b  c #787B36",
"n  c #565346",
"m  c #5F5448",
"M  c #5C584C",
"N  c #5D5A55",
"B  c #666344",
"V  c #6C6543",
"C  c #6F6B48",
"Z  c #716C46",
"A  c #726D4D",
"S  c #6C6553",
"D  c #776D54",
"F  c #746D5B",
"G  c #787656",
"H  c #706864",
"J  c #7B7466",
"K  c #817C25",
"L  c #957E39",
"P  c #877745",
"I  c #817A47",
"U  c #958432",
"Y  c #9C8C33",
"T  c #9C9332",
"R  c #BDA339",
"E  c #D2AB1A",
"W  c #D9B416",
"Q  c #E2BC15",
"!  c #E2BB1C",
"~  c #D3AB2D",
"^  c #D5B423",
"/  c #D8B82A",
"(  c #DCBC2C",
")  c #C7AA38",
"_  c #D4AD34",
"`  c #D3B335",
"'  c #D3B23A",
"]  c #E5BA29",
"[  c #E0BE34",
"{  c #DFC806",
"}  c #DECC13",
"|  c #DCCF1C",
" . c #E3C507",
".. c #E5C20B",
"X. c #E3CB0E",
"o. c #E6C613",
"O. c #EAC410",
"+. c #E5C31B",
"@. c #E8C918",
"#. c #DCCF23",
"$. c #DCCB2C",
"%. c #D9CD3C",
"&. c #D9D035",
"*. c #E2C523",
"=. c #E1C72A",
"-. c #E4CF28",
";. c #E3C835",
":. c #998645",
">. c #9D9942",
",. c #B39C47",
"<. c #8A8062",
"1. c #84836E",
"2. c #9C9661",
"3. c #868571",
"4. c #908475",
"5. c #9FA66A",
"6. c #AEAC6A",
"7. c #B1AE78",
"8. c #ACB472",
"9. c #CCAB49",
"0. c #CFB141",
"q. c #D1B344",
"w. c #D3BB43",
"e. c #CC9869",
"r. c #D0B568",
"t. c #E3B96E",
"y. c #D9C441",
"u. c #D9CB44",
"i. c #DECE48",
"p. c #DAD04D",
"a. c #DFC956",
"s. c #D9D959",
"d. c #D3D566",
"f. c #D4DD69",
"g. c #CBD770",
"h. c #D8D871",
"j. c #D7D778",
"k. c #E9DD74",
"l. c #F3F96E",
"z. c #EBE177",
"x. c #EBF07E",
"c. c #F1F777",
"v. c #AFB189",
"b. c #BFBC94",
"n. c #BDBCA0",
"m. c #DAD68B",
"M. c #C3C591",
"N. c #E6DE84",
"B. c #F3D487",
"V. c #E8E986",
"C. c #EDF382",
"Z. c #EFF588",
"A. c #F5F18A",
"S. c #E8E797",
"D. c #F3EB98",
"F. c #EEF196",
"G. c #EFF29F",
"H. c #CAC4AF",
"J. c #CBC9B4",
"K. c #EBEFA8",
"L. c #FAFBAD",
"P. c #ECEEB6",
"I. c #F6F6B6",
"U. c #FCFCB2",
"Y. c #FFFDBB",
"T. c #FFF5C4",
"R. c #FFFACD",
"E. c #FFF6D5",
"W. c #FFFFDC",
"Q. c #FEFDE2",
"!. c #FEFBEA",
"~. c #FFFCF1",
/* pixels */
"e.e.e.e.e.e.t.t.t.t.t.t.t.t.t.t.t.t.t.t.t.t.t.t.t.t.t.t.t.t.t.t.t.t.t.t.t.t.t.t.t.t.t.t.t.t.t.t.t.t.t.t.t.t.e.e.e.e.e.e.",
"e.e.e.e.e.e.t.t.t.t.t.t.t.t.t.t.t.t.t.t.t.t.t.t.t.t.t.t.t.t.t.t.t.t.t.t.t.t.t.t.t.t.t.t.t.t.t.t.t.t.t.t.t.t.e.e.e.e.e.e.",
"e.e.e.e.e.e.t.t.t.t.t.t.t.t.t.t.t.t.t.t.t.t.t.t.t.t.t.t.t.t.t.t.t.t.t.r.t.t.t.t.t.t.t.t.t.t.t.t.t.t.t.t.t.t.e.e.e.e.e.e.",
"e.e.e.B.B.B.B.B.B.B.B.B.B.B.B.B.B.B.B.B.B.B.B.B.B.B.B.B.B.B.B.B.B.B.B.B.B.B.B.B.B.B.B.B.B.B.B.B.B.B.B.B.B.B.B.B.B.e.e.e.",
"e.e.e.B.B.B.B.B.B.B.B.B.B.B.B.B.B.B.B.B.B.B.B.B.B.B.B.B.B.B.B.B.B.B.B.B.B.B.B.B.B.B.B.B.B.B.B.B.B.B.B.B.B.B.B.B.B.e.e.e.",
"e.e.e.B.B.B.B.B.B.B.B.B.B.B.B.B.B.B.B.B.B.B.B.B.B.B.B.B.B.B.B.B.B.B.B.B.B.B.B.B.B.B.B.B.B.B.B.B.B.B.B.B.B.B.B.B.B.e.e.e.",
"t.t.t.B.B.B.B.B.B.B.B.B.B.B.B.B.B.B.B.B.B.B.B.B.B.B.B.B.B.B.B.B.B.B.B.B.B.B.B.B.B.B.B.B.B.B.B.B.B.B.B.B.B.B.B.B.B.t.t.t.",
"t.t.t.B.B.B.B.B.B.B.B.B.B.B.B.B.B.B.B.B.B.B.B.B.B.B.B.B.B.B.B.B.B.B.B.B.B.B.B.B.B.B.B.B.B.B.B.B.B.B.B.B.B.B.B.B.B.t.t.t.",
"t.t.t.B.B.B.B.B.B.B.B.B.B.B.B.B.B.B.B.B.B.B.B.B.B.B.B.B.B.B.B.B.B.B.B.B.B.B.B.B.B.B.B.B.B.B.B.B.B.B.B.B.B.B.B.B.B.t.t.t.",
"t.t.t.B.B.B.B.B.B.B.B.B.B.B.B.B.B.B.B.B.B.B.B.B.B.B.B.B.B.B.B.B.B.B.B.B.B.B.B.B.B.B.B.B.B.B.B.B.B.B.B.B.B.B.B.B.B.t.t.t.",
"t.t.t.B.B.B.B.B.B.B.B.B.B.B.B.B.B.B.B.B.B.B.B.B.B.B.B.B.B.B.B.B.B.B.B.B.B.B.B.B.B.B.B.B.B.B.B.B.B.B.B.B.B.B.B.B.B.t.t.t.",
"t.t.t.B.B.B.B.B.B.B.B.B.B.B.B.B.B.B.B.B.B.B.B.B.B.B.B.B.B.B.B.B.B.B.B.B.B.B.B.B.B.B.B.B.B.B.B.B.B.B.B.B.B.B.B.B.B.t.t.t.",
"t.t.t.B.B.B.B.B.B.B.B.B.B.B.B.B.B.B.B.B.B.B.B.B.B.B.B.B.B.B.B.B.B.B.B.B.B.B.B.B.B.B.B.B.B.B.B.B.B.B.B.B.B.B.B.B.B.t.t.t.",
"t.t.t.B.B.B.B.B.B.B.B.B.B.B.B.B.B.B.B.B.B.B.B.B.B.B.B.B.B.B.B.B.B.B.B.B.B.B.B.B.B.B.B.B.B.B.B.B.B.B.B.B.B.B.B.B.B.t.t.t.",
"t.t.t.B.B.B.B.B.B.B.B.B.B.B.B.B.B.B.B.B.B.B.B.B.B.B.J A Z C V D J J B.B.B.B.B.B.B.B.B.B.B.B.B.B.B.B.B.B.B.B.B.B.B.t.t.t.",
"t.t.t.B.B.B.B.B.B.B.B.B.B.B.B.B.B.B.B.B.B.B.B.B.B.M + s s z l B u ; N B.B.B.B.B.B.B.B.B.B.B.B.B.B.B.B.B.B.B.B.B.B.t.t.t.",
"t.t.t.B.B.B.B.B.B.B.B.B.B.B.B.B.B.B.B.B.B.B.B.B.B.% 2.d.s.s.f.j.m.x e B.B.B.B.B.B.B.B.B.B.B.B.B.B.B.B.B.B.B.B.B.B.t.t.t.",
"t.t.t.B.B.B.B.B.B.B.B.B.B.B.B.B.B.B.B.B.B.B.B.B.B.% 7.x.l.c.c.Z.F.b e B.B.B.B.B.B.B.B.B.B.B.B.B.B.B.B.B.B.B.B.B.B.t.t.t.",
"t.t.t.B.B.B.B.B.B.B.B.B.B.B.B.B.B.B.B.B.B.B.B.B.B.& b.I.L.U.U.U.I.G t B.B.B.B.B.B.B.B.B.B.B.B.B.B.B.B.B.B.B.B.B.B.t.t.t.",
"t.t.t.B.B.B.B.B.B.B.B.B.B.B.B.B.B.B.B.B.B.B.B.B.B.& H.!.!.Q.Q.Q.Q.3.M B.B.B.B.B.B.B.B.B.B.B.B.B.B.B.B.B.B.B.B.B.B.t.t.t.",
"t.t.t.B.B.B.B.B.B.B.B.B.B.B.B.B.B.B.B.B.B.B.B.B.B.$ J.~.~.!.Q.Q.Q.1.n B.B.B.B.B.B.B.B.B.B.B.B.B.B.B.B.B.B.B.B.B.B.t.t.t.",
"t.t.t.B.B.B.B.B.B.B.B.B.B.B.B.B.B.B.B.B.B.B.B.B.B.* J.!.!.Q.Q.Q.Q.1.n B.B.B.B.B.B.B.B.B.B.B.B.B.B.B.B.B.B.B.B.B.B.t.t.t.",
"t.t.t.B.B.B.B.B.B.B.B.B.B.B.B.B.B.B.B.B.B.B.B.B.B.* n.Q.Q.W.W.W.W.3.N B.B.B.B.B.B.B.B.B.B.B.B.B.B.B.B.B.B.B.B.B.B.t.t.t.",
"t.t.t.B.B.B.B.B.B.B.B.B.B.B.B.B.B.B.B.B.B.B.B.B.B.* v.K.G.S.S.K.P.G n B.B.B.B.B.B.B.B.B.B.B.B.B.B.B.B.B.B.B.B.B.B.t.t.t.",
"t.t.t.B.B.B.B.B.B.B.B.B.B.B.B.B.B.B.B.B.B.B.B.B.B.@ 5.g.f.f.h.j.m.c y B.B.B.B.B.B.B.B.B.B.B.B.B.B.B.B.B.B.B.B.B.B.t.t.t.",
"t.t.t.B.B.B.B.B.B.B.B.B.B.B.B.B.B.B.B.B.B.B.B.B.B.@ 8.V.C.C.A.F.D.I V B.B.B.B.B.B.B.B.B.B.B.B.B.B.B.B.B.B.B.B.B.B.t.t.t.",
"t.t.t.B.B.B.B.B.B.B.B.B.B.B.B.B.B.B.B.B.B.B.B.B.B.# M.Y.Y.U.Y.Y.T.<.S B.B.B.B.B.B.B.B.B.B.B.B.B.B.B.B.B.B.B.B.B.B.t.t.t.",
"t.t.t.B.B.B.B.B.B.B.B.B.B.B.B.B.B.B.B.B.B.B.B.B.B.# M.R.R.T.R.R.E.4.H B.B.B.B.B.B.B.B.B.B.B.B.B.B.B.B.B.B.B.B.B.B.t.t.t.",
"t.t.t.B.B.B.B.B.B.B.B.B.B.B.B.B.B.B.B.B.B.B.B.B.B.o 6.N.k.k.z.V.S.I B B.B.B.B.B.B.B.B.B.B.B.B.B.B.B.B.B.B.B.B.B.B.t.t.t.",
"t.t.t.B.B.B.B.B.B.B.B.B.B.B.B.B.B.B.B.B.B.B.B.B.B.  >.u.#.| #.&.p.k z B.B.B.B.B.B.B.B.B.B.B.B.B.B.B.B.B.B.B.B.B.B.t.t.t.",
"t.t.t.B.B.B.B.B.B.B.B.B.B.B.B.B.B.B.B.B.B.B.B.B.B.X T %.@.} | $.p.K v B.B.B.B.B.B.B.B.B.B.B.B.B.B.B.B.B.B.B.B.B.B.t.t.t.",
"t.t.t.B.B.B.B.B.B.B.B.B.B.B.B.B.B.B.B.B.B.B.B.B.B.X T $.X.{ X.| u.8 g B.B.B.B.B.B.B.B.B.B.B.B.B.B.B.B.B.B.B.B.B.B.t.t.t.",
"t.t.t.B.B.B.B.B.B.B.B.B.B.B.B.B.B.B.B.B.B.B.B.B.B.= T =.O. .O.-.i.K s B.B.B.B.B.B.B.B.B.B.B.B.B.B.B.B.B.B.B.B.B.B.t.t.t.",
"t.t.t.B.B.B.B.B.B.B.B.B.B.B.B.B.B.B.B.B.B.B.B.B.B.= Y [ +.Q *.;.a.j e B.B.B.B.B.B.B.B.B.B.B.B.B.B.B.B.B.B.B.B.B.B.t.t.t.",
"t.t.t.B.B.B.B.B.B.B.B.B.B.B.B.B.B.B.B.B.B.B.B.B.B.- Y ] O.Q o.*.y.7 q B.B.B.B.B.B.B.B.B.B.B.B.B.B.B.B.B.B.B.B.B.B.t.t.t.",
"t.t.t.B.B.B.B.B.B.B.B.B.B.B.B.B.B.B.B.B.B.B.B.B.B.- Y [ ....@.*.y.6 q B.B.B.B.B.B.B.B.B.B.B.B.B.B.B.B.B.B.B.B.B.B.t.t.t.",
"t.t.t.B.B.B.B.B.B.B.B.B.B.B.B.B.B.B.B.B.B.B.B.B.B.X Y ( Q o.@.#.y.1 q B.B.B.B.B.B.B.B.B.B.B.B.B.B.B.B.B.B.B.B.B.B.t.t.t.",
"t.t.t.B.B.B.B.B.B.B.B.B.B.B.B.B.B.B.B.B.B.B.B.B.B.. U ` ! ! +.( w.1 w B.B.B.B.B.B.B.B.B.B.B.B.B.B.B.B.B.B.B.B.B.B.t.t.t.",
"t.t.t.B.B.B.B.B.B.B.B.B.B.B.B.B.B.B.B.B.B.B.B.B.B.. U ' ] ! *./ q.5 p B.B.B.B.B.B.B.B.B.B.B.B.B.B.B.B.B.B.B.B.B.B.t.t.t.",
"t.t.t.B.B.B.B.B.B.B.B.B.B.B.B.B.B.B.B.B.B.B.B.B.B.. U ` ( Q ! ^ q.5 f B.B.B.B.B.B.B.B.B.B.B.B.B.B.B.B.B.B.B.B.B.B.t.t.t.",
"t.t.t.B.B.B.B.B.B.B.B.B.B.B.B.B.B.B.B.B.B.B.B.B.B.. L ' *.Q W E ' 5 i B.B.B.B.B.B.B.B.B.B.B.B.B.B.B.B.B.B.B.B.B.B.t.t.t.",
"t.t.t.B.B.B.B.B.B.B.B.B.B.B.B.B.B.B.B.B.B.B.B.B.B.= L ' ] ! W E _ 2 a B.B.B.B.B.B.B.B.B.B.B.B.B.B.B.B.B.B.B.B.B.B.t.t.t.",
"t.t.t.B.B.B.B.B.B.B.B.B.B.B.B.B.B.B.B.B.B.B.B.B.B.= :.9.~ E E / 0., i B.B.B.B.B.B.B.B.B.B.B.B.B.B.B.B.B.B.B.B.B.B.t.t.t.",
"t.t.t.B.B.B.B.B.B.B.B.B.B.B.B.B.B.B.B.B.B.B.B.B.B.9 P r.9.) ) R ,.3 h B.B.B.B.B.B.B.B.B.B.B.B.B.B.B.B.B.B.B.B.B.B.t.t.t.",
"t.t.t.B.B.B.B.B.B.B.B.B.B.B.B.B.B.B.B.B.B.B.B.B.B.r 0 d 4 < : : > O m B.B.B.B.B.B.B.B.B.B.B.B.B.B.B.B.B.B.B.B.B.B.t.t.t.",
"t.t.t.B.B.B.B.B.B.B.B.B.B.B.B.B.B.B.B.B.B.B.B.B.B.B.H D V v z z C F B.B.B.B.B.B.B.B.B.B.B.B.B.B.B.B.B.B.B.B.B.B.B.t.t.t.",
"t.t.t.B.B.B.B.B.B.B.B.B.B.B.B.B.B.B.B.B.B.B.B.B.B.B.B.B.B.B.B.B.B.B.B.B.B.B.B.B.B.B.B.B.B.B.B.B.B.B.B.B.B.B.B.B.B.t.t.t.",
"t.t.t.B.B.B.B.B.B.B.B.B.B.B.B.B.B.B.B.B.B.B.B.B.B.B.B.B.B.B.B.B.B.B.B.B.B.B.B.B.B.B.B.B.B.B.B.B.B.B.B.B.B.B.B.B.B.t.t.t.",
"t.t.t.B.B.B.B.B.B.B.B.B.B.B.B.B.B.B.B.B.B.B.B.B.B.B.B.B.B.B.B.B.B.B.B.B.B.B.B.B.B.B.B.B.B.B.B.B.B.B.B.B.B.B.B.B.B.t.t.t.",
"t.t.t.B.B.B.B.B.B.B.B.B.B.B.B.B.B.B.B.B.B.B.B.B.B.B.B.B.B.B.B.B.B.B.B.B.B.B.B.B.B.B.B.B.B.B.B.B.B.B.B.B.B.B.B.B.B.t.t.t.",
"t.t.t.B.B.B.B.B.B.B.B.B.B.B.B.B.B.B.B.B.B.B.B.B.B.B.B.B.B.B.B.B.B.B.B.B.B.B.B.B.B.B.B.B.B.B.B.B.B.B.B.B.B.B.B.B.B.t.t.t.",
"t.t.t.B.B.B.B.B.B.B.B.B.B.B.B.B.B.B.B.B.B.B.B.B.B.B.B.B.B.B.B.B.B.B.B.B.B.B.B.B.B.B.B.B.B.B.B.B.B.B.B.B.B.B.B.B.B.t.t.t.",
"t.t.t.B.B.B.B.B.B.B.B.B.B.B.B.B.B.B.B.B.B.B.B.B.B.B.B.B.B.B.B.B.B.B.B.B.B.B.B.B.B.B.B.B.B.B.B.B.B.B.B.B.B.B.B.B.B.t.t.t.",
"t.t.t.B.B.B.B.B.B.B.B.B.B.B.B.B.B.B.B.B.B.B.B.B.B.B.B.B.B.B.B.B.B.B.B.B.B.B.B.B.B.B.B.B.B.B.B.B.B.B.B.B.B.B.B.B.B.t.t.t.",
"e.e.e.B.B.B.B.B.B.B.B.B.B.B.B.B.B.B.B.B.B.B.B.B.B.B.B.B.B.B.B.B.B.B.B.B.B.B.B.B.B.B.B.B.B.B.B.B.B.B.B.B.B.B.B.B.B.e.e.e.",
"e.e.e.B.B.B.B.B.B.B.B.B.B.B.B.B.B.B.B.B.B.B.B.B.B.B.B.B.B.B.B.B.B.B.B.B.B.B.B.B.B.B.B.B.B.B.B.B.B.B.B.B.B.B.B.B.B.e.e.e.",
"e.e.e.B.B.B.B.B.B.B.B.B.B.B.B.B.B.B.B.B.B.B.B.B.B.B.B.B.B.B.B.B.B.B.B.B.B.B.B.B.B.B.B.B.B.B.B.B.B.B.B.B.B.B.B.B.B.e.e.e.",
"e.e.e.e.e.e.t.t.t.t.t.t.t.t.t.t.t.t.t.t.t.t.t.t.t.t.t.t.t.t.t.t.r.t.t.t.t.t.t.t.t.t.t.t.t.t.t.t.t.t.t.t.t.t.e.e.e.e.e.e.",
"e.e.e.e.e.e.t.t.t.t.t.t.t.t.t.t.t.t.t.t.t.t.t.t.t.t.t.t.t.t.t.t.t.t.t.t.t.t.t.t.t.t.t.t.t.t.t.t.t.t.t.t.t.t.e.e.e.e.e.e.",
"e.e.e.e.e.e.t.t.t.t.t.t.t.t.t.t.t.t.t.t.t.t.t.t.t.t.t.t.t.t.t.t.t.t.t.t.t.t.t.t.t.t.t.t.t.t.t.t.t.t.t.t.t.t.e.e.e.e.e.e."
};
