/* XPM */
static char *e4e5ae51b7624ecbcfcd83e2038c58cdCitwtgV0L0fnMqid[] = {
/* columns rows colors chars-per-pixel */
"60 60 207 2 ",
"   c #3D2D00",
".  c #3C3402",
"X  c #3D3909",
"o  c #453B01",
"O  c #4D3C02",
"+  c #4D3C0C",
"@  c #553F04",
"#  c #4E3F11",
"$  c #483E24",
"%  c #36410F",
"&  c #44400E",
"*  c #4C470A",
"=  c #544401",
"-  c #5A4903",
";  c #464818",
":  c #564718",
">  c #5A5313",
",  c #634D06",
"<  c #655808",
"1  c #756206",
"2  c #7C6619",
"3  c #796B1C",
"4  c #494625",
"5  c #514C36",
"6  c #685927",
"7  c #655635",
"8  c #6C6B2A",
"9  c #786939",
"0  c #575649",
"q  c #675D46",
"w  c #76674B",
"e  c #797344",
"r  c #776852",
"t  c #757253",
"y  c #797964",
"u  c #82671E",
"i  c #87781C",
"p  c #877E2A",
"a  c #836E37",
"s  c #847938",
"d  c #887750",
"f  c #85796A",
"g  c #8F8129",
"h  c #968623",
"j  c #A28620",
"k  c #AD9B2C",
"l  c #B29625",
"z  c #AC9C32",
"x  c #AB9238",
"c  c #B4A73E",
"v  c #CEBC00",
"b  c #DBB804",
"n  c #DBBA0B",
"m  c #D8B61C",
"M  c #E2BC02",
"N  c #EBB909",
"B  c #E2BE16",
"V  c #CCAA22",
"C  c #CBB520",
"Z  c #D7BB27",
"A  c #DCBD29",
"S  c #CFAD34",
"D  c #CFB933",
"F  c #C9B73C",
"G  c #D5B835",
"H  c #E0BF39",
"J  c #CEC607",
"K  c #DCC200",
"L  c #DDCD00",
"P  c #DECB0C",
"I  c #DAD401",
"U  c #DAD40C",
"Y  c #DEC81A",
"T  c #E2C503",
"R  c #ECC501",
"E  c #E5CB01",
"W  c #ECCB02",
"Q  c #E4C70C",
"!  c #ECC309",
"~  c #EBCC0C",
"^  c #F2C606",
"/  c #F2CC03",
"(  c #F3CC0B",
")  c #E4D403",
"_  c #EBD304",
"`  c #EBDB04",
"'  c #F5D206",
"]  c #FAD207",
"[  c #F4D30B",
"{  c #F9D309",
"}  c #F5DD0C",
"|  c #E6C815",
" . c #E2C31B",
".. c #E7C91C",
"X. c #EBC91B",
"o. c #F3CC13",
"O. c #F1C917",
"+. c #EDD514",
"@. c #F1D513",
"#. c #F6D717",
"$. c #FCDC13",
"%. c #FAD21C",
"&. c #FDDC1D",
"*. c #E6E400",
"=. c #EEE407",
"-. c #F2E703",
";. c #F5EA07",
":. c #F3EC05",
">. c #F4E30A",
",. c #FAEC0D",
"<. c #F3F50B",
"1. c #FCF20D",
"2. c #F9E814",
"3. c #FDED15",
"4. c #FEE31C",
"5. c #FFEB1A",
"6. c #FDF314",
"7. c #FFF914",
"8. c #FFF11B",
"9. c #FBF818",
"0. c #CEC425",
"q. c #DCC324",
"w. c #D7C82F",
"e. c #D7D022",
"r. c #D9C639",
"t. c #E5CD24",
"y. c #EBC62A",
"u. c #F4CD27",
"i. c #E8D827",
"p. c #FBD423",
"a. c #F5DD23",
"s. c #F0D028",
"d. c #F3C631",
"f. c #E1DF3E",
"g. c #ECE325",
"h. c #F8E324",
"j. c #FCEA24",
"k. c #F9F822",
"l. c #FEF42A",
"z. c #E6E03A",
"x. c #EFEC3A",
"c. c #F4E735",
"v. c #F6F737",
"b. c #928D47",
"n. c #9A9748",
"m. c #8C8A58",
"M. c #988757",
"N. c #A59355",
"B. c #B8AC54",
"V. c #978F6A",
"C. c #8B936F",
"Z. c #9B9261",
"A. c #989577",
"S. c #AA986C",
"D. c #B7A469",
"F. c #B6B66F",
"G. c #AAA676",
"H. c #BFAB72",
"J. c #BFAE7C",
"K. c #C5B146",
"L. c #D9BA47",
"P. c #C5BF54",
"I. c #D3BE5E",
"U. c #E2BF40",
"Y. c #CC9869",
"T. c #C2B760",
"R. c #CCB578",
"E. c #D3BC7E",
"W. c #E3B96E",
"Q. c #D9C44D",
"!. c #DECA48",
"~. c #DEDA4B",
"^. c #DDC556",
"/. c #DDD253",
"(. c #E2CA49",
"). c #E6D44D",
"_. c #E8CE52",
"`. c #F6EE41",
"'. c #F9F745",
"]. c #E9EC54",
"[. c #F2ED59",
"{. c #F9F556",
"}. c #D6D86B",
"|. c #D9D570",
" X c #EBD86C",
".X c #E0D272",
"XX c #E8EC63",
"oX c #F6F568",
"OX c #EDED7E",
"+X c #F7F474",
"@X c #F6F37E",
"#X c #FEFE7C",
"$X c #9E9383",
"%X c #B6A681",
"&X c #B0AF98",
"*X c #D4BE84",
"=X c #C1BE99",
"-X c #D5C085",
";X c #DEC688",
":X c #CDD28B",
">X c #F3D487",
",X c #F0EF88",
"<X c #FFFF92",
"1X c #F7F99D",
"2X c #FEFEA5",
"3X c #F4F3AB",
"4X c #F8F8CA",
/* pixels */
"Y.Y.Y.Y.Y.Y.W.W.W.W.W.W.W.W.W.W.W.W.W.W.W.W.W.W.W.W.W.W.W.W.W.W.W.W.W.W.W.W.W.W.W.W.W.W.W.W.W.W.W.W.W.W.W.W.Y.Y.Y.Y.Y.Y.",
"Y.Y.Y.Y.Y.Y.W.W.W.W.W.W.W.W.W.W.W.W.W.W.W.W.W.W.W.W.W.W.W.W.W.W.W.W.W.W.W.W.W.W.W.W.W.W.W.W.W.W.W.W.W.W.W.W.Y.Y.Y.Y.Y.Y.",
"Y.Y.Y.Y.Y.Y.W.W.W.W.W.W.W.W.W.W.W.W.W.W.W.W.W.W.W.W.W.W.W.W.W.W.W.W.W.W.W.W.W.W.W.W.W.W.W.W.W.W.W.W.W.W.W.W.Y.Y.Y.Y.Y.Y.",
"Y.Y.Y.>X>X>X>X>X>X>X>X>X>X>X>X>X>X>X>X>X>X>X>X>X>X>X>X>X>X>X>X>X>X>X>X>X>X>X>X>X>X>X>X>X>X>X>X>X>X>X>X>X>X>X>X>X>XY.Y.Y.",
"Y.Y.Y.>X>X>X>X>X>X>X>X>X>X>X>X>X>X>X>X>X>X>X>X>X>X>X>X>X>X>X>X>X>X>X>X>X>X>X>X>X>X>X>X>X>X>X>X>X>X>X>X>X>X>X>X>X>XY.Y.Y.",
"Y.Y.Y.>X>X>X>X>X>X>X>X>X>X>X>X>X>X>X>X>X>X>X>X>X>X>X>X>X>X>X>X>X>X>X>X>X>X>X>X>X>X>X>X>X>X>X>X>X>X>X>X>X>X>X>X>X>XY.Y.Y.",
"W.W.W.>X>X>X>X>X>X>X>X>X>X>X>X>X>X>X>X>X>X>X>X>X>X>X>X>X>X>X>X>X>X>X>X>X>X>X>X>X>X>X>X>X>X>X>X>X>X>X>X>X>X>X>X>X>XW.W.W.",
"W.W.W.>X>X>X>X>X>X>X>X>X>X>X>X>X>X>X>X>X>X>X>X>X>X>X>X>X>X>X>X>X>X>X>X>X>X>X>X>X>X>X>X>X>X>X>X>X>X>X>X>X>X>X>X>X>XW.W.W.",
"W.W.W.>X>X>X>X>X>X>X>X>X>X>X>X>X>X>X>X>X>X>X>X>X>X>X>X>X>X>X>X>X>X>X>X>X>X>X>X>X>X>X>X>X>X>X>X>X>X>X>X>X>X>X>X>X>XW.W.W.",
"W.W.W.>X>X>X>X>X>X>X>X>X>X>X>X>X>X>X>X>X>X>X>X>X>X>X>X>X>X>X>X>X>X>X>X>X>X>X>X>X>X>X>X>X>X>X>X>X>X>X>X>X>X>X>X>X>XW.W.W.",
"W.W.W.>X>X>X>X>X>X>X>X>X>X>X>X>X>X>X>X>X>X>X>X>X>X>X>X>X>X>X>X>X>X>X>X>X>X>X>X>X>X>X>X>X>X>X>X>X>X>X>X>X>X>X>X>X>XW.W.W.",
"W.W.W.>X>X>X>X>X>X>X>X>X>X>X>X>X>X>X>X>X>X>X>X>X>X>X>X>X>X>X>X>X>X>X>X>X>X>X>X>X>X>X>X>X>X>X>X>X>X>X>X>X>X>X>X>X>XW.W.W.",
"W.W.W.>X>X>X>X>X>X>X>X>X>X>X>X>X>X>X>X>X>X>X>X>X>X>X>X>X>X>X>X>X>X>X>X>X>X>X>X>X>X>X>X>X>X>X>X>X>X>X>X>X>X>X>X>X>XW.W.W.",
"W.W.W.>X>X>X>X>X>X>X>X>X>X>X>X>X>X>X>X>X>X>X>X>X>X>X>X>X>X>X>X>X>X>X>X>X>X>X>X>X>X>X>X>X>X>X>X>X>X>X>X>X>X>X>X>X>XW.W.W.",
"W.W.W.>X>X>X>X>X>X>X>X>X>X>X>X>X>X>X>X>X>X>X>X>X>X>X>X>X>X>X>X>X>X>X>X>X>X>X>X>X>X>X>X>X>X>X>X>X>X>X>X>X>X>X>X>X>XW.W.W.",
"W.W.W.>X>X>X>X>X>X>X>X>X>X>X>X>X>X>X>X>X>X>X>X>X>X>Xt 7 4 4 $ 5 q y >X>X>X>X>X>X>X>X>X>X>X>X>X>X>X>X>X>X>X>X>X>X>XW.W.W.",
"W.W.W.>X>X>X>X>X>X>X>X>X>X>X>X>X>X>X>X>X>X>X>X>XS.% * p n.b.n.b.8 + 4 J.>X>X>X>X>X>X>X>X>X>X>X>X>X>X>X>X>X>X>X>X>XW.W.W.",
"W.W.W.>X>X>X>X>X>X>X>X>X>X>X>X>X>X>X>X>X>X>X>XS.& n.}.XXoXoX#X+X@X|.p X G.>X>X>X>X>X>X>X>X>X>X>X>X>X>X>X>X>X>X>X>XW.W.W.",
"W.W.W.>X>X>X>X>X>X>X>X>X>X>X>X>X>X>X>X>X>X>XS.0 :XOX].'.v.v.x.x.z.oX,Xn.; %X>X>X>X>X>X>X>X>X>X>X>X>X>X>X>X>X>X>X>XW.W.W.",
"W.W.W.>X>X>X>X>X>X>X>X>X>X>X>X>X>X>X>X>X>X%X0 =X2X#X'.k.9.<.I I U e.~. Xg X -X>X>X>X>X>X>X>X>X>X>X>X>X>X>X>X>X>X>XW.W.W.",
"W.W.W.>X>X>X>X>X>X>X>X>X>X>X>X>X>X>X>X>X;X5 &X4X1X[.`.l.+.) ) v J J 0./..X> M.>X>X>X>X>X>X>X>X>X>X>X>X>X>X>X>X>X>XW.W.W.",
"W.W.W.>X>X>X>X>X>X>X>X>X>X>X>X>X>X>X>X>XG.0 4X3X<X[.g.j.L P T ~ ~ P e.w.Q.B.& -X>X>X>X>X>X>X>X>X>X>X>X>X>X>X>X>X>XW.W.W.",
"W.W.W.>X>X>X>X>X>X>X>X>X>X>X>X>X>X>X>X>Xe G.4X2XoXc.l.` T _ Q 5.6.` I i.C  X; Z.>X>X>X>X>X>X>X>X>X>X>X>X>X>X>X>X>XW.W.W.",
"W.W.W.>X>X>X>X>X>X>X>X>X>X>X>X>X>X>X>XC.X :X1X,Xf.g.3.L T [ j.5.1.7.-.) ..).b.4 >X>X>X>X>X>X>X>X>X>X>X>X>X>X>X>X>XW.W.W.",
"W.W.W.>X>X>X>X>X>X>X>X>X>X>X>X>X>X>X>Xy ; :XOX~.x.j.) _ E $.5.2.1.:.7.` ~ A P.X A.>X>X>X>X>X>X>X>X>X>X>X>X>X>X>X>XW.W.W.",
"W.W.W.>X>X>X>X>X>X>X>X>X>X>X>X>X>X>X>X0 m.,X].x.c.a.' W / 3.6.*.<.*.>.$.N d.Q.- f >X>X>X>X>X>X>X>X>X>X>X>X>X>X>X>XW.W.W.",
"W.W.W.>X>X>X>X>X>X>X>X>X>X>X>X>X>X>X>X4 F.<XoX'.j.#.W R W 5.3.=.*.J I E O.d.Q.< d >X>X>X>X>X>X>X>X>X>X>X>X>X>X>X>XW.W.W.",
"W.W.W.>X>X>X>X>X>X>X>X>X>X>X>X>X>X>X>XX }.+X{.c.h.@.W W / 5.8.9.:.I ) E O.y.^.3 6 >X>X>X>X>X>X>X>X>X>X>X>X>X>X>X>XW.W.W.",
"W.W.W.>X>X>X>X>X>X>X>X>X>X>X>X>X>X>X>X. P.~.z.i.a.[ / / / ' 8.k.7.-.-.E ( s.(.p # >X>X>X>X>X>X>X>X>X>X>X>X>X>X>X>XW.W.W.",
"W.W.W.>X>X>X>X>X>X>X>X>X>X>X>X>X>X>X>XX c !.i.i.h.[ W ] W E 2.6.7.6.6.E ~ u.(.h # >X>X>X>X>X>X>X>X>X>X>X>X>X>X>X>XW.W.W.",
"W.W.W.>X>X>X>X>X>X>X>X>X>X>X>X>X>X>X>Xo z ).t.a.4./ R ] ( E E ) 7.7.9.>.W ..(.i # >X>X>X>X>X>X>X>X>X>X>X>X>X>X>X>XW.W.W.",
"W.W.W.>X>X>X>X>X>X>X>X>X>X>X>X>X>X>X>X. z r.t.#.&.{ ^ / R E K L ,.-.7.3._ | G i : >X>X>X>X>X>X>X>X>X>X>X>X>X>X>X>XW.W.W.",
"W.W.W.>X>X>X>X>X>X>X>X>X>X>X>X>X>X>X>X  z w.t.+.$.] / / R [ >.L -.) ;.3.E X.r.i : >X>X>X>X>X>X>X>X>X>X>X>X>X>X>X>XW.W.W.",
"W.W.W.>X>X>X>X>X>X>X>X>X>X>X>X>X>X>X>X+ j G ..~ $.] / / ( 5.8.` ;.*.,.,.~ t.K.< 9 >X>X>X>X>X>X>X>X>X>X>X>X>X>X>X>XW.W.W.",
"W.W.W.>X>X>X>X>X>X>X>X>X>X>X>X>X>X>X>X6 1 D Y | $.] R ^ [ 4.5.8.6.,.1.` +.q.F o V.>X>X>X>X>X>X>X>X>X>X>X>X>X>X>X>XW.W.W.",
"W.W.W.>X>X>X>X>X>X>X>X>X>X>X>X>X>X>X>Xe = F Y P $.$./ R W [ 2.3.8.8.,.W +.Z c . >X>X>X>X>X>X>X>X>X>X>X>X>X>X>X>X>XW.W.W.",
"W.W.W.>X>X>X>X>X>X>X>X>X>X>X>X>X>X>X>XV.o k A M ~ $.$.N R / ] ' 5.} _ T ..G i 9 >X>X>X>X>X>X>X>X>X>X>X>X>X>X>X>X>XW.W.W.",
"W.W.W.>X>X>X>X>X>X>X>X>X>X>X>X>X>X>X>X>Xs 1 G B ! %.%.^ ^ / / R $.R K X.y.G * D.>X>X>X>X>X>X>X>X>X>X>X>X>X>X>X>X>XW.W.W.",
"W.W.W.>X>X>X>X>X>X>X>X>X>X>X>X>X>X>X>X>XR.O l A  .X.p.o.^ ^ R R ( b Q y.G j * ;X>X>X>X>X>X>X>X>X>X>X>X>X>X>X>X>X>XW.W.W.",
"W.W.W.>X>X>X>X>X>X>X>X>X>X>X>X>X>X>X>X>X>Xa 1 V m n p.p.o.N M ! b b  .A S - Y.>X>X>X>X>X>X>X>X>X>X>X>X>X>X>X>X>X>XW.W.W.",
"W.W.W.>X>X>X>X>X>X>X>X>X>X>X>X>X>X>X>X>X>X*X. p F G H X.( ] / M N A _.T.3 a >X>X>X>X>X>X>X>X>X>X>X>X>X>X>X>X>X>X>XW.W.W.",
"W.W.W.>X>X>X>X>X>X>X>X>X>X>X>X>X>X>X>X>X>X>XN.= u K.G m O.%.%.d.)._.I.2 o E.>X>X>X>X>X>X>X>X>X>X>X>X>X>X>X>X>X>X>XW.W.W.",
"W.W.W.>X>X>X>X>X>X>X>X>X>X>X>X>X>X>X>X>X>X>X>XD.. , x L.L.H U.U._.x - + H.>X>X>X>X>X>X>X>X>X>X>X>X>X>X>X>X>X>X>X>XW.W.W.",
"W.W.W.>X>X>X>X>X>X>X>X>X>X>X>X>X>X>X>X>X>X>X>X>XR.s O @ , u u 2 O + M.E.>X>X>X>X>X>X>X>X>X>X>X>X>X>X>X>X>X>X>X>X>XW.W.W.",
"W.W.W.>X>X>X>X>X>X>X>X>X>X>X>X>X>X>X>X>X>X>X>X>X>X>Xf r w 7 q r r $X>X>X>X>X>X>X>X>X>X>X>X>X>X>X>X>X>X>X>X>X>X>X>XW.W.W.",
"W.W.W.>X>X>X>X>X>X>X>X>X>X>X>X>X>X>X>X>X>X>X>X>X>X>X>X>X>X>X>X>X>X>X>X>X>X>X>X>X>X>X>X>X>X>X>X>X>X>X>X>X>X>X>X>X>XW.W.W.",
"W.W.W.>X>X>X>X>X>X>X>X>X>X>X>X>X>X>X>X>X>X>X>X>X>X>X>X>X>X>X>X>X>X>X>X>X>X>X>X>X>X>X>X>X>X>X>X>X>X>X>X>X>X>X>X>X>XW.W.W.",
"W.W.W.>X>X>X>X>X>X>X>X>X>X>X>X>X>X>X>X>X>X>X>X>X>X>X>X>X>X>X>X>X>X>X>X>X>X>X>X>X>X>X>X>X>X>X>X>X>X>X>X>X>X>X>X>X>XW.W.W.",
"W.W.W.>X>X>X>X>X>X>X>X>X>X>X>X>X>X>X>X>X>X>X>X>X>X>X>X>X>X>X>X>X>X>X>X>X>X>X>X>X>X>X>X>X>X>X>X>X>X>X>X>X>X>X>X>X>XW.W.W.",
"W.W.W.>X>X>X>X>X>X>X>X>X>X>X>X>X>X>X>X>X>X>X>X>X>X>X>X>X>X>X>X>X>X>X>X>X>X>X>X>X>X>X>X>X>X>X>X>X>X>X>X>X>X>X>X>X>XW.W.W.",
"W.W.W.>X>X>X>X>X>X>X>X>X>X>X>X>X>X>X>X>X>X>X>X>X>X>X>X>X>X>X>X>X>X>X>X>X>X>X>X>X>X>X>X>X>X>X>X>X>X>X>X>X>X>X>X>X>XW.W.W.",
"W.W.W.>X>X>X>X>X>X>X>X>X>X>X>X>X>X>X>X>X>X>X>X>X>X>X>X>X>X>X>X>X>X>X>X>X>X>X>X>X>X>X>X>X>X>X>X>X>X>X>X>X>X>X>X>X>XW.W.W.",
"W.W.W.>X>X>X>X>X>X>X>X>X>X>X>X>X>X>X>X>X>X>X>X>X>X>X>X>X>X>X>X>X>X>X>X>X>X>X>X>X>X>X>X>X>X>X>X>X>X>X>X>X>X>X>X>X>XW.W.W.",
"W.W.W.>X>X>X>X>X>X>X>X>X>X>X>X>X>X>X>X>X>X>X>X>X>X>X>X>X>X>X>X>X>X>X>X>X>X>X>X>X>X>X>X>X>X>X>X>X>X>X>X>X>X>X>X>X>XW.W.W.",
"Y.Y.Y.>X>X>X>X>X>X>X>X>X>X>X>X>X>X>X>X>X>X>X>X>X>X>X>X>X>X>X>X>X>X>X>X>X>X>X>X>X>X>X>X>X>X>X>X>X>X>X>X>X>X>X>X>X>XY.Y.Y.",
"Y.Y.Y.>X>X>X>X>X>X>X>X>X>X>X>X>X>X>X>X>X>X>X>X>X>X>X>X>X>X>X>X>X>X>X>X>X>X>X>X>X>X>X>X>X>X>X>X>X>X>X>X>X>X>X>X>X>XY.Y.Y.",
"Y.Y.Y.>X>X>X>X>X>X>X>X>X>X>X>X>X>X>X>X>X>X>X>X>X>X>X>X>X>X>X>X>X>X>X>X>X>X>X>X>X>X>X>X>X>X>X>X>X>X>X>X>X>X>X>X>X>XY.Y.Y.",
"Y.Y.Y.Y.Y.Y.W.W.W.W.W.W.W.W.W.W.W.W.W.W.W.W.W.W.W.W.W.W.W.W.W.W.W.W.W.W.W.W.W.W.W.W.W.W.W.W.W.W.W.W.W.W.W.W.Y.Y.Y.Y.Y.Y.",
"Y.Y.Y.Y.Y.Y.W.W.W.W.W.W.W.W.W.W.W.W.W.W.W.W.W.W.W.W.W.W.W.W.W.W.W.W.W.W.W.W.W.W.W.W.W.W.W.W.W.W.W.W.W.W.W.W.Y.Y.Y.Y.Y.Y.",
"Y.Y.Y.Y.Y.Y.W.W.W.W.W.W.W.W.W.W.W.W.W.W.W.W.W.W.W.W.W.W.W.W.W.W.W.W.W.W.W.W.W.W.W.W.W.W.W.W.W.W.W.W.W.W.W.W.Y.Y.Y.Y.Y.Y."
};
