/* XPM */
static char *_0217d96e79444b6ece80613c48ac1a4L0PWgiQdQ8dYBAEr[] = {
/* columns rows colors chars-per-pixel */
"60 60 210 2 ",
"   c #392D06",
".  c #3A3306",
"X  c #3B361C",
"o  c #3D3A30",
"O  c #453700",
"+  c #4B3500",
"@  c #443A00",
"#  c #4B3E02",
"$  c #513D02",
"%  c #4A4207",
"&  c #524303",
"*  c #574708",
"=  c #5B450C",
"-  c #574B0D",
";  c #494617",
":  c #574416",
">  c #5C5215",
",  c #62490F",
"<  c #635304",
"1  c #6A5B05",
"2  c #67581B",
"3  c #775D1E",
"4  c #7A6A15",
"5  c #7C731A",
"6  c #464621",
"7  c #4A4823",
"8  c #584E22",
"9  c #59552C",
"0  c #544F3A",
"q  c #535134",
"w  c #5A5436",
"e  c #655A36",
"r  c #616222",
"t  c #7C6E2E",
"y  c #6B6736",
"u  c #7C7737",
"i  c #6E5C48",
"p  c #705F4E",
"a  c #67654E",
"s  c #746548",
"d  c #747245",
"f  c #7E6D64",
"g  c #767363",
"h  c #8A7419",
"j  c #826927",
"k  c #867B47",
"l  c #837757",
"z  c #8E8A32",
"x  c #A58E2D",
"c  c #B79B2D",
"v  c #AE9530",
"b  c #BCA825",
"n  c #ADA03A",
"m  c #B9A533",
"M  c #D4BA00",
"N  c #DCBA04",
"B  c #D7B917",
"V  c #E2BE02",
"C  c #E8BE09",
"Z  c #EBBF1D",
"A  c #C3A62D",
"S  c #CAB524",
"D  c #DBBD23",
"F  c #D6BB29",
"G  c #C8A93C",
"H  c #CEBB30",
"J  c #CEB03C",
"K  c #E5BD2E",
"L  c #DDC201",
"P  c #D8C706",
"I  c #DCCB03",
"U  c #DBD700",
"Y  c #DEDA00",
"T  c #DAC517",
"R  c #D6D112",
"E  c #E4C600",
"W  c #ECC501",
"Q  c #E4CC02",
"!  c #ECCC02",
"~  c #E6C409",
"^  c #EBCB0C",
"/  c #E9C90E",
"(  c #F2CA02",
")  c #F4CA08",
"_  c #F4CB0A",
"`  c #E3D302",
"'  c #EDD305",
"]  c #E6DE00",
"[  c #EBDB06",
"{  c #EBD40A",
"}  c #F2D205",
"|  c #F6DB05",
" . c #F4D30B",
".. c #FDD50C",
"X. c #F5DD0A",
"o. c #FCDA0C",
"O. c #E5C512",
"+. c #E7CB17",
"@. c #ECCA16",
"#. c #E4C51C",
"$. c #F3C812",
"%. c #F4CE1A",
"&. c #E9D518",
"*. c #F3D316",
"=. c #F6DC11",
"-. c #FEDB13",
";. c #FDD61B",
":. c #F1DC1E",
">. c #FEDD1B",
",. c #E7E306",
"<. c #ECE204",
"1. c #EAEB04",
"2. c #F4E106",
"3. c #F4E30C",
"4. c #FAE50C",
"5. c #F4EC0D",
"6. c #FCEB0C",
"7. c #EDF009",
"8. c #FCF30C",
"9. c #FCF80D",
"0. c #F2E513",
"q. c #FBE311",
"w. c #FEEC13",
"e. c #FDE41D",
"r. c #FEEB1A",
"t. c #F5F416",
"y. c #FEF315",
"u. c #FDFA15",
"i. c #FEF31C",
"p. c #FEF91C",
"a. c #DBCA28",
"s. c #DCC634",
"d. c #D6C837",
"f. c #EBC422",
"g. c #F9CD27",
"h. c #E1D92E",
"j. c #F8D728",
"k. c #E5C934",
"l. c #E5C639",
"z. c #F3CF3A",
"x. c #E5D13A",
"c. c #F7E727",
"v. c #F7F528",
"b. c #F9EB33",
"n. c #F6F437",
"m. c #8F8C46",
"M. c #9D8B4E",
"N. c #979847",
"B. c #928B5A",
"V. c #A99658",
"C. c #AEA449",
"Z. c #BBA849",
"A. c #B9B655",
"S. c #8C886A",
"D. c #9B9A6C",
"F. c #848472",
"G. c #998D72",
"H. c #A49365",
"J. c #A99669",
"K. c #B3A26C",
"L. c #CBB64E",
"P. c #D7BB44",
"I. c #D0BB56",
"U. c #CC9869",
"Y. c #CDBD67",
"T. c #C2AE75",
"R. c #C9B173",
"E. c #D3BC7D",
"W. c #E3B96E",
"Q. c #D4C745",
"!. c #D5C75D",
"~. c #E9C94E",
"^. c #EBD14E",
"/. c #F7EB47",
"(. c #F3E74C",
"). c #FBFD4A",
"_. c #FCF154",
"`. c #F6F25B",
"'. c #DFD466",
"]. c #DBD274",
"[. c #F2DF6D",
"{. c #DFE175",
"}. c #F5EE6C",
"|. c #FCEB6D",
" X c #FCFA69",
".X c #EDEA71",
"XX c #F2EB77",
"oX c #FCF375",
"OX c #FEF57D",
"+X c #A69992",
"@X c #A2A08B",
"#X c #BCAB82",
"$X c #BFB991",
"%X c #C8B88A",
"&X c #D5BE85",
"*X c #D5C28D",
"=X c #DBC58A",
"-X c #D3C990",
";X c #E4D385",
":X c #F3D487",
">X c #F3E887",
",X c #FFFB85",
"<X c #F3ED9E",
"1X c #F9F39A",
"2X c #FFFE9C",
"3X c #FDF7A9",
"4X c #EEEDB1",
"5X c #FFFBBD",
"6X c #FDFDC9",
"7X c #F8F3D4",
/* pixels */
"U.U.U.U.U.U.W.W.W.W.W.W.W.W.W.W.W.W.W.W.W.W.W.W.W.W.W.W.W.W.W.W.W.W.W.W.W.W.W.W.W.W.W.W.W.W.W.W.W.W.W.W.W.W.U.U.U.U.U.U.",
"U.U.U.U.U.U.W.W.W.W.W.W.W.W.W.W.W.W.W.W.W.W.W.W.W.W.W.W.W.W.W.W.W.W.W.W.W.W.W.W.W.W.W.W.W.W.W.W.W.W.W.W.W.W.U.U.U.U.U.U.",
"U.U.U.U.U.U.W.W.W.W.W.W.W.W.W.W.W.W.W.W.W.W.W.W.W.W.W.W.W.W.W.W.W.W.W.W.W.W.W.W.W.W.W.W.W.W.W.W.W.W.W.W.W.W.U.U.U.U.U.U.",
"U.U.U.:X:X:X:X:X:X:X:X:X:X:X:X:X:X:X:X:X:X:X:X:X:X:X:X:X:X:X:X:X:X:X:X:X:X:X:X:X:X:X:X:X:X:X:X:X:X:X:X:X:X:X:X:X:XU.U.U.",
"U.U.U.:X:X:X:X:X:X:X:X:X:X:X:X:X:X:X:X:X:X:X:X:X:X:X:X:X:X:X:X:X:X:X:X:X:X:X:X:X:X:X:X:X:X:X:X:X:X:X:X:X:X:X:X:X:XU.U.U.",
"U.U.U.:X:X:X:X:X:X:X:X:X:X:X:X:X:X:X:X:X:X:X:X:X:X:X:X:X:X:X:X:X:X:X:X:X:X:X:X:X:X:X:X:X:X:X:X:X:X:X:X:X:X:X:X:X:XU.U.U.",
"W.W.W.:X:X:X:X:X:X:X:X:X:X:X:X:X:X:X:X:X:X:X:X:X:X:X:X:X:X:X:X:X:X:X:X:X:X:X:X:X:X:X:X:X:X:X:X:X:X:X:X:X:X:X:X:X:XW.W.W.",
"W.W.W.:X:X:X:X:X:X:X:X:X:X:X:X:X:X:X:X:X:X:X:X:X:X:X:X:X:X:X:X:X:X:X:X:X:X:X:X:X:X:X:X:X:X:X:X:X:X:X:X:X:X:X:X:X:XW.W.W.",
"W.W.W.:X:X:X:X:X:X:X:X:X:X:X:X:X:X:X:X:X:X:X:X:X:X:X:X:X:X:X:X:X:X:X:X:X:X:X:X:X:X:X:X:X:X:X:X:X:X:X:X:X:X:X:X:X:XW.W.W.",
"W.W.W.:X:X:X:X:X:X:X:X:X:X:X:X:X:X:X:X:X:X:X:X:X:X:X:X:X:X:X:X:X:X:X:X:X:X:X:X:X:X:X:X:X:X:X:X:X:X:X:X:X:X:X:X:X:XW.W.W.",
"W.W.W.:X:X:X:X:X:X:X:X:X:X:X:X:X:X:X:X:X:X:X:X:X:X:X:X:X:X:X:X:X:X:X:X:X:X:X:X:X:X:X:X:X:X:X:X:X:X:X:X:X:X:X:X:X:XW.W.W.",
"W.W.W.:X:X:X:X:X:X:X:X:X:X:X:X:X:X:X:X:X:X:X:X:X:X:X:X:X:X:X:X:X:X:X:X:X:X:X:X:X:X:X:X:X:X:X:X:X:X:X:X:X:X:X:X:X:XW.W.W.",
"W.W.W.:X:X:X:X:X:X:X:X:X:X:X:X:X:X:X:X:X:X:X:X:X:X:X:X:X:X:X:X:X:X:X:X:X:X:X:X:X:X:X:X:X:X:X:X:X:X:X:X:X:X:X:X:X:XW.W.W.",
"W.W.W.:X:X:X:X:X:X:X:X:X:X:X:X:X:X:X:X:X:X:X:X:X:X:X:X:X:X:X:X:X:X:X:X:X:X:X:X:X:X:X:X:X:X:X:X:X:X:X:X:X:X:X:X:X:XW.W.W.",
"W.W.W.:X:X:X:X:X:X:X:X:X:X:X:X:X:X:X:X:X:X:X:X:X:X:X:X:X:X:X:X:X:X:X:X:X:X:X:X:X:X:X:X:X:X:X:X:X:X:X:X:X:X:X:X:X:XW.W.W.",
"W.W.W.:X:X:X:X:X:X:X:X:X:X:X:X:X:X:X:X:X:X:X:X:X:X:Xg q 6 ; 6 q p F.:X:X:X:X:X:X:X:X:X:X:X:X:X:X:X:X:X:X:X:X:X:X:XW.W.W.",
"W.W.W.:X:X:X:X:X:X:X:X:X:X:X:X:X:X:X:X:X:X:X:X:XJ.6 ; m.m.N.N.z r ; 6 $X.X:X:X:X:X:X:X:X:X:X:X:X:X:X:X:X:X:X:X:X:XW.W.W.",
"W.W.W.:X:X:X:X:X:X:X:X:X:X:X:X:X:X:X:X:X:X:X:XV.- C.XX}. X X}. X.XA.u X K.:X:X:X:X:X:X:X:X:X:X:X:X:X:X:X:X:X:X:X:XW.W.W.",
"W.W.W.:X:X:X:X:X:X:X:X:X:X:X:X:X:X:X:X:X:X:XH.> ].oX(._./.n.v.n.).`.{.D.o %X:X:X:X:X:X:X:X:X:X:X:X:X:X:X:X:X:X:X:XW.W.W.",
"W.W.W.:X:X:X:X:X:X:X:X:X:X:X:X:X:X:X:X:X:XH.  Y.|.a.R P U ,.7.t.v.).,X4XF.l :X:X:X:X:X:X:X:X:X:X:X:X:X:X:X:X:X:X:XW.W.W.",
"W.W.W.:X:X:X:X:X:X:X:X:X:X:X:X:X:X:X:X:X:X  V.[.a.+.M M M Q 0.c.b._.OX5X7X0 K.;X:X:X:X:X:X:X:X:X:X:X:X:X:X:X:X:X:XW.W.W.",
"W.W.W.:X:X:X:X:X:X:X:X:X:X:X:X:X:X:X:X:XT.: >Xd.B { '  .^ L P &.b._.oX3X6X$XX *X:X:X:X:X:X:X:X:X:X:X:X:X:X:X:X:X:XW.W.W.",
"W.W.W.:X:X:X:X:X:X:X:X:X:X:X:X:X:X:X:X:Xt C.Q.a.R I 6.q.o.Q L I :.b.(.,X3X6Xr F.:X:X:X:X:X:X:X:X:X:X:X:X:X:X:X:X:XW.W.W.",
"W.W.W.:X:X:X:X:X:X:X:X:X:X:X:X:X:X:X:XB.  !.d.R ,.8.8.8.y.4.{ ` { 0.c.}.2X<XB.9 :X:X:X:X:X:X:X:X:X:X:X:X:X:X:X:X:XW.W.W.",
"W.W.W.:X:X:X:X:X:X:X:X:X:X:X:X:X:X:X.Xy 5 Q.h.P 0.p.6.8.6.r. .Q Q | c.(.XX{.J.. :X:X:X:X:X:X:X:X:X:X:X:X:X:X:X:X:XW.W.W.",
"W.W.W.:X:X:X:X:X:X:X:X:X:X:X:X:X:X:X:X% x d.&.Q w.w.<.5.[ 3...W W o.c.b.(.>X-X7 F.:X:X:X:X:X:X:X:X:X:X:X:X:X:X:X:XW.W.W.",
"W.W.W.:X:X:X:X:X:X:X:X:X:X:X:X:X:X:X:X% v x.&.{ r.y.<.,.P E W W ( ! e.c.|.2X3Xd l :X:X:X:X:X:X:X:X:X:X:X:X:X:X:X:XW.W.W.",
"W.W.W.:X:X:X:X:X:X:X:X:X:X:X:X:X:X:X:X@ A.x.+.! q.p.w.5.` I E _ _ W q.j./.oX1Xk a :X:X:X:X:X:X:X:X:X:X:X:X:X:X:X:XW.W.W.",
"W.W.W.:X:X:X:X:X:X:X:X:X:X:X:X:X:X:X:X@ !.k.O.( | p.p.p.5.[ ! _ ) ( -.c.h.x.'.u w :X:X:X:X:X:X:X:X:X:X:X:X:X:X:X:XW.W.W.",
"W.W.W.:X:X:X:X:X:X:X:X:X:X:X:X:X:X:X:X# !.k.@._ ! 3.y.u.p.w.{ _ ( _ ..e.:.a.Q.t w :X:X:X:X:X:X:X:X:X:X:X:X:X:X:X:XW.W.W.",
"W.W.W.:X:X:X:X:X:X:X:X:X:X:X:X:X:X:X:X% I.k.%...Q ` <.u.u.v.=.! ( ( ..X.=.&.d.5 e :X:X:X:X:X:X:X:X:X:X:X:X:X:X:X:XW.W.W.",
"W.W.W.:X:X:X:X:X:X:X:X:X:X:X:X:X:X:X:X# I.k.O.W E P Y 7.1.i.r.' W ( ..o.{ &.a.4 i :X:X:X:X:X:X:X:X:X:X:X:X:X:X:X:XW.W.W.",
"W.W.W.:X:X:X:X:X:X:X:X:X:X:X:X:X:X:X:X& Z.l.O.} | 2.Y 1.U i.e.W ( ( ..o. ./ S 1 d :X:X:X:X:X:X:X:X:X:X:X:X:X:X:X:XW.W.W.",
"W.W.W.:X:X:X:X:X:X:X:X:X:X:X:X:X:X:X:X% x d.+._ w.8.<.1.] i.q.W ( ! ..o.^ P S & l :X:X:X:X:X:X:X:X:X:X:X:X:X:X:X:XW.W.W.",
"W.W.W.:X:X:X:X:X:X:X:X:X:X:X:X:X:X:X:X; h s.f.Q 6.6.9.8.y.w.| } ! W q...~ T b + G.:X:X:X:X:X:X:X:X:X:X:X:X:X:X:X:XW.W.W.",
"W.W.W.:X:X:X:X:X:X:X:X:X:X:X:X:X:X:X:Xy < Q.a.^ } 6.u.9.u.| } ( ( } >.^ C k.h 2 :X:X:X:X:X:X:X:X:X:X:X:X:X:X:X:X:XW.W.W.",
"W.W.W.:X:X:X:X:X:X:X:X:X:X:X:X:X:X:X:XS.O c K $.V | 2.6.2.! ( V W -.*.O.D P.1 M.:X:X:X:X:X:X:X:X:X:X:X:X:X:X:X:X:XW.W.W.",
"W.W.W.:X:X:X:X:X:X:X:X:X:X:X:X:X:X:X:X+X# h ~.Z $.W ! o.E W _ C _ >.@.#.H c + R.:X:X:X:X:X:X:X:X:X:X:X:X:X:X:X:X:XW.W.W.",
"W.W.W.:X:X:X:X:X:X:X:X:X:X:X:X:X:X:X:X:XJ.< P.g.g.V ~ _ E _ $.$.;.%.+.F A h $ =X:X:X:X:X:X:X:X:X:X:X:X:X:X:X:X:X:XW.W.W.",
"W.W.W.:X:X:X:X:X:X:X:X:X:X:X:X:X:X:X:X:X&XO h K Z N ~ V N $.C %.j.~ B B c + K.:X:X:X:X:X:X:X:X:X:X:X:X:X:X:X:X:X:XW.W.W.",
"W.W.W.:X:X:X:X:X:X:X:X:X:X:X:X:X:X:X:X:X:XG.+ x ^.B C E W _ ;.g.f.B H Z.* k :X:X:X:X:X:X:X:X:X:X:X:X:X:X:X:X:X:X:XW.W.W.",
"W.W.W.:X:X:X:X:X:X:X:X:X:X:X:X:X:X:X:X:X:X*Xe $ v ~.z.K g.j.f.B H S m - 8 E.:X:X:X:X:X:X:X:X:X:X:X:X:X:X:X:X:X:X:XW.W.W.",
"W.W.W.:X:X:X:X:X:X:X:X:X:X:X:X:X:X:X:X:X:X:X&Xe $ h G ~.~.P.P.L.L.h = - T.:X:X:X:X:X:X:X:X:X:X:X:X:X:X:X:X:X:X:X:XW.W.W.",
"W.W.W.:X:X:X:X:X:X:X:X:X:X:X:X:X:X:X:X:X:X:X:X=XJ.$ = , 3 j 3 = $ = j &X:X:X:X:X:X:X:X:X:X:X:X:X:X:X:X:X:X:X:X:X:XW.W.W.",
"W.W.W.:X:X:X:X:X:X:X:X:X:X:X:X:X:X:X:X:X:X:X:X:X:X+Xl l p p p s l G.:X:X:X:X:X:X:X:X:X:X:X:X:X:X:X:X:X:X:X:X:X:X:XW.W.W.",
"W.W.W.:X:X:X:X:X:X:X:X:X:X:X:X:X:X:X:X:X:X:X:X:X:X:X:X:X:X:X:X:X:X:X:X:X:X:X:X:X:X:X:X:X:X:X:X:X:X:X:X:X:X:X:X:X:XW.W.W.",
"W.W.W.:X:X:X:X:X:X:X:X:X:X:X:X:X:X:X:X:X:X:X:X:X:X:X:X:X:X:X:X:X:X:X:X:X:X:X:X:X:X:X:X:X:X:X:X:X:X:X:X:X:X:X:X:X:XW.W.W.",
"W.W.W.:X:X:X:X:X:X:X:X:X:X:X:X:X:X:X:X:X:X:X:X:X:X:X:X:X:X:X:X:X:X:X:X:X:X:X:X:X:X:X:X:X:X:X:X:X:X:X:X:X:X:X:X:X:XW.W.W.",
"W.W.W.:X:X:X:X:X:X:X:X:X:X:X:X:X:X:X:X:X:X:X:X:X:X:X:X:X:X:X:X:X:X:X:X:X:X:X:X:X:X:X:X:X:X:X:X:X:X:X:X:X:X:X:X:X:XW.W.W.",
"W.W.W.:X:X:X:X:X:X:X:X:X:X:X:X:X:X:X:X:X:X:X:X:X:X:X:X:X:X:X:X:X:X:X:X:X:X:X:X:X:X:X:X:X:X:X:X:X:X:X:X:X:X:X:X:X:XW.W.W.",
"W.W.W.:X:X:X:X:X:X:X:X:X:X:X:X:X:X:X:X:X:X:X:X:X:X:X:X:X:X:X:X:X:X:X:X:X:X:X:X:X:X:X:X:X:X:X:X:X:X:X:X:X:X:X:X:X:XW.W.W.",
"W.W.W.:X:X:X:X:X:X:X:X:X:X:X:X:X:X:X:X:X:X:X:X:X:X:X:X:X:X:X:X:X:X:X:X:X:X:X:X:X:X:X:X:X:X:X:X:X:X:X:X:X:X:X:X:X:XW.W.W.",
"W.W.W.:X:X:X:X:X:X:X:X:X:X:X:X:X:X:X:X:X:X:X:X:X:X:X:X:X:X:X:X:X:X:X:X:X:X:X:X:X:X:X:X:X:X:X:X:X:X:X:X:X:X:X:X:X:XW.W.W.",
"W.W.W.:X:X:X:X:X:X:X:X:X:X:X:X:X:X:X:X:X:X:X:X:X:X:X:X:X:X:X:X:X:X:X:X:X:X:X:X:X:X:X:X:X:X:X:X:X:X:X:X:X:X:X:X:X:XW.W.W.",
"U.U.U.:X:X:X:X:X:X:X:X:X:X:X:X:X:X:X:X:X:X:X:X:X:X:X:X:X:X:X:X:X:X:X:X:X:X:X:X:X:X:X:X:X:X:X:X:X:X:X:X:X:X:X:X:X:XU.U.U.",
"U.U.U.:X:X:X:X:X:X:X:X:X:X:X:X:X:X:X:X:X:X:X:X:X:X:X:X:X:X:X:X:X:X:X:X:X:X:X:X:X:X:X:X:X:X:X:X:X:X:X:X:X:X:X:X:X:XU.U.U.",
"U.U.U.:X:X:X:X:X:X:X:X:X:X:X:X:X:X:X:X:X:X:X:X:X:X:X:X:X:X:X:X:X:X:X:X:X:X:X:X:X:X:X:X:X:X:X:X:X:X:X:X:X:X:X:X:X:XU.U.U.",
"U.U.U.U.U.U.W.W.W.W.W.W.W.W.W.W.W.W.W.W.W.W.W.W.W.W.W.W.W.W.W.W.W.W.W.W.W.W.W.W.W.W.W.W.W.W.W.W.W.W.W.W.W.W.U.U.U.U.U.U.",
"U.U.U.U.U.U.W.W.W.W.W.W.W.W.W.W.W.W.W.W.W.W.W.W.W.W.W.W.W.W.W.W.W.W.W.W.W.W.W.W.W.W.W.W.W.W.W.W.W.W.W.W.W.W.U.U.U.U.U.U.",
"U.U.U.U.U.U.W.W.W.W.W.W.W.W.W.W.W.W.W.W.W.W.W.W.W.W.W.W.W.W.W.W.W.W.W.W.W.W.W.W.W.W.W.W.W.W.W.W.W.W.W.W.W.W.U.U.U.U.U.U."
};
