/* XPM */
static char *fc11475ca33c4a81f2274020e215121dfMVSxV2xxbUUeViP[] = {
/* columns rows colors chars-per-pixel */
"60 60 10 1 ",
"  c black",
". c gray20",
"X c #CC9869",
"o c #E3B96E",
"O c #333399",
"+ c #666699",
"@ c #808080",
"# c #F3D487",
"$ c #99CCFF",
"% c #C0C0C0",
/* pixels */
"XXXXXXooooooooooooooooooooooooooooooooooooooooooooooooXXXXXX",
"XXXXXXooooooooooooooooooooooooooooooooooooooooooooooooXXXXXX",
"XXXXXXooooooooooooooooooooooooooooooooooooooooooooooooXXXXXX",
"XXX######################################################XXX",
"XXX######################################################XXX",
"XXX######################################################XXX",
"ooo##################               #####################ooo",
"ooo##################               #####################ooo",
"ooo##################               #####################ooo",
"ooo###############   @@@%%%%%%%%%@@@   ##################ooo",
"ooo###############   @@@%%%%%%%%%@@@   ##################ooo",
"ooo###############   @@@%%%%%%%%%OOO   ##################ooo",
"ooo############   @@@%%%%%%%%%%%%OOO   ##################ooo",
"ooo############   @@@%%%%%%%%%%%%OOO   ##################ooo",
"ooo############   @@@%%%%%%%%%%%%+++   ##################ooo",
"ooo############   @@@%%%%%%%%%%%%$$$   ##################ooo",
"ooo############   @@@%%%%%%%%%%%%$$$   ##################ooo",
"ooo############   @@@%%%%%%%%%%%%$$$   ##################ooo",
"ooo############   %%%%%%%%%%%%      #####################ooo",
"ooo############   %%%%%%%%%%%%      #####################ooo",
"ooo############   %%%%%%%%%%%%      #####################ooo",
"ooo#########   @@@%%%%%%@@@   ###########################ooo",
"ooo#########   @@@%%%%%%@@@   ###########################ooo",
"ooo#########   @@@%%%%%%@@@   ###########################ooo",
"ooo######   %%%%%%@@@%%%%%%%%%            ###############ooo",
"ooo######   %%%%%%@@@%%%%%%%%%            ###############ooo",
"ooo######   %%%%%%@@@%%%%%%%%%            ###############ooo",
"ooo######   %%%%%%%%%@@@%%%   ............      #########ooo",
"ooo######   %%%%%%%%%@@@%%%   ............      #########ooo",
"ooo######   %%%%%%%%%@@@%%%   ............      #########ooo",
"ooo######   %%%%%%%%%@@@........................#########ooo",
"ooo######   %%%%%%%%%@@@........................   ######ooo",
"ooo######   %%%%%%%%%@@@........................   ######ooo",
"ooo######   %%%%%%%%%@@@........................   ######ooo",
"ooo######   %%%%%%%%%@@@........................#########ooo",
"ooo######   %%%%%%%%%@@@........................#########ooo",
"ooo######   %%%%%%%%%@@@.....................   #########ooo",
"ooo######   %%%%%%%%%@@@.....................   #########ooo",
"ooo######   %%%%%%%%%@@@.....................   #########ooo",
"ooo#########   %%%%%%@@@%%%%%%%%%%%%@@@      ############ooo",
"ooo#########   %%%%%%@@@%%%%%%%%%%%%@@@      ############ooo",
"ooo#########   %%%%%%@@@%%%%%%%%%%%%@@@      ############ooo",
"ooo#########   %%%%%%@@@%%%%%%%%%%%%   ##################ooo",
"ooo#########   %%%%%%@@@%%%%%%%%%%%%   ##################ooo",
"ooo#########   %%%%%%@@@%%%%%%%%%%%%   ##################ooo",
"ooo############   @@@@@@@@@@@@      #####################ooo",
"ooo############   @@@@@@@@@@@@      #####################ooo",
"ooo############   @@@@@@@@@@@@      #####################ooo",
"ooo###############      @@@@@@@@@   #####################ooo",
"ooo###############      @@@@@@@@@   #####################ooo",
"ooo###############      @@@@@@@@@   #####################ooo",
"ooo#####################         ########################ooo",
"ooo#####################         ########################ooo",
"ooo#####################         ########################ooo",
"XXX######################################################XXX",
"XXX######################################################XXX",
"XXX######################################################XXX",
"XXXXXXooooooooooooooooooooooooooooooooooooooooooooooooXXXXXX",
"XXXXXXooooooooooooooooooooooooooooooooooooooooooooooooXXXXXX",
"XXXXXXooooooooooooooooooooooooooooooooooooooooooooooooXXXXXX"
};
