/* XPM */
static char *_3d9dcc5447a4724e9337902361e1f82C6BIjaStFCzNENiZ[] = {
/* columns rows colors chars-per-pixel */
"60 60 13 1 ",
"  c black",
". c gray10",
"X c gray20",
"o c #CC9869",
"O c #E3B96E",
"+ c #333399",
"@ c #666699",
"# c #F3D487",
"$ c #F1D58B",
"% c #EFD592",
"& c #99CCFF",
"* c #C0C0C0",
"= c gray85",
/* pixels */
"ooooooOOOOOOOOOOOOOOOOOOOOOOOOOOOOOOOOOOOOOOOOOOOOOOOOoooooo",
"ooooooOOOOOOOOOOOOOOOOOOOOOOOOOOOOOOOOOOOOOOOOOOOOOOOOoooooo",
"ooooooOOOOOOOOOOOOOOOOOOOOOOOOOOOOOOOOOOOOOOOOOOOOOOOOoooooo",
"ooo######################################################ooo",
"ooo######################################################ooo",
"ooo######################################################ooo",
"OOO######################################################OOO",
"OOO######################################################OOO",
"OOO######################################################OOO",
"OOO######################################################OOO",
"OOO######################################################OOO",
"OOO#################               ######################OOO",
"OOO#################               ######################OOO",
"OOO#################               ######################OOO",
"OOO##############   XXX=========XXX   ###################OOO",
"OOO##############   XXX=========XXX   ###################OOO",
"OOO##############   XXX========++++   ###################OOO",
"OOO###########   XXX===******XX++++   ###################OOO",
"OOO###########   XXX===******XX++++   ###################OOO",
"OOO###########   XXX===******XX@@@@   ###################OOO",
"OOO###########   XXX===******XX&&&&   ###################OOO",
"OOO###########   XXX===******XX&&&&   ###################OOO",
"OOO###########   XXX===******XX&&&&   ###################OOO",
"OOO###########   ===*********      $#####################OOO",
"OOO###########   ===*********      ######################OOO",
"OOO###########   ===*********      ######################OOO",
"OOO########   XXX======XXX   ############################OOO",
"OOO########   XXX======XXX   ############################OOO",
"OOO########   XXX======XXX   ############################OOO",
"OOO#####   ******XXX*********      ######################OOO",
"OOO#####   ******XXX*********      ######################OOO",
"OOO#####   ******XXX*********      ######################OOO",
"OOO#####   ******===XXX******* ....######################OOO",
"OOO#####   ******===XXX******* ....        ##############OOO",
"OOO#####   ******===XXX******* ....        ##############OOO",
"OOO#####   ======*********   XXXXXX.........#############OOO",
"OOO#####   ======*********   XXXXXX.........      #######OOO",
"OOO#####   ======*********   XXXXXX.........      #######OOO",
"OOO#####   *********XXXXXXXXX......XXXXXXXXXXXXXXXX%#####OOO",
"OOO#####   *********XXXXXXXXX......XXXXXXXXXXXXXXXX   ###OOO",
"OOO#####   *********XXXXXXXXX......XXXXXXXXXXXXXXXX   ###OOO",
"OOO########   ======XXX........................XXXX######OOO",
"OOO########   ======XXX........................   #######OOO",
"OOO########   ======XXX........................   #######OOO",
"OOO########   ******XXXXXX*********XXX.........   #######OOO",
"OOO########   ******XXXXXX*********XXX        ###########OOO",
"OOO########   ******XXXXXX*********XXX        ###########OOO",
"OOO###########         XXXXXXXXX   XXX        ###########OOO",
"OOO###########         XXXXXXXXX   ######################OOO",
"OOO###########         XXXXXXXXX   ######################OOO",
"OOO####################XXXXXXXXX#########################OOO",
"OOO####################         #########################OOO",
"OOO####################         #########################OOO",
"OOO######################################################OOO",
"ooo######################################################ooo",
"ooo######################################################ooo",
"ooo######################################################ooo",
"ooooooOOOOOOOOOOOOOOOOOOOOOOOOOOOOOOOOOOOOOOOOOOOOOOOOoooooo",
"ooooooOOOOOOOOOOOOOOOOOOOOOOOOOOOOOOOOOOOOOOOOOOOOOOOOoooooo",
"ooooooOOOOOOOOOOOOOOOOOOOOOOOOOOOOOOOOOOOOOOOOOOOOOOOOoooooo"
};
