/* XPM */
static char *_e392589329a4805b08d7d69d85e6a24U3O6xItoE5f1uWIb[] = {
/* columns rows colors chars-per-pixel */
"60 60 20 1 ",
"  c black",
". c gray10",
"X c gray20",
"o c #CC9869",
"O c #E3B96E",
"+ c #333399",
"@ c #666699",
"# c #F3D487",
"$ c #F0D58E",
"% c #F0D58F",
"& c #EFD592",
"* c #EED593",
"= c #EFD593",
"- c #EFD692",
"; c #EED597",
": c #EED697",
"> c #EDD698",
", c #99CCFF",
"< c #C0C0C0",
"1 c gray85",
/* pixels */
"ooooooOOOOOOOOOOOOOOOOOOOOOOOOOOOOOOOOOOOOOOOOOOOOOOOOoooooo",
"ooooooOOOOOOOOOOOOOOOOOOOOOOOOOOOOOOOOOOOOOOOOOOOOOOOOoooooo",
"ooooooOOOOOOOOOOOOOOOOOOOOOOOOOOOOOOOOOOOOOOOOOOOOOOOOoooooo",
"ooo######################################################ooo",
"ooo######################################################ooo",
"ooo##################               #####################ooo",
"OOO#################*               -####################OOO",
"OOO#################-               -####################OOO",
"OOO###############   XXX111111111XXX   ##################OOO",
"OOO##############-   XXX111111111XXX   ##################OOO",
"OOO##############-   XXX11111111++++   ##################OOO",
"OOO############   XXX111<<<<<<XX++++   ##################OOO",
"OOO###########%   XXX111<<<<<<XX++++   ##################OOO",
"OOO###########*   XXX111<<<<<<XX@@@@   ##################OOO",
"OOO###########:   XXX111<<<<<<XX,,,,   ##################OOO",
"OOO###########>   XXX111<<<<<<XX,,,,   ##################OOO",
"OOO###########>   XXX111<<<<<<XX,,,,   ##################OOO",
"OOO###########:   111<<<<<<<<<      #####################OOO",
"OOO###########-   111<<<<<<<<<      #####################OOO",
"OOO###########%   111<<<<<<<<<      #####################OOO",
"OOO#########   XXX111111XXX   ###########################OOO",
"OOO########-   XXX111111XXX   ###########################OOO",
"OOO########-   XXX111111XXX   ###########################OOO",
"OOO######   <<<<<<XXX<<<<<<<<<            ###############OOO",
"OOO######   <<<<<<XXX<<<<<<<<<            ###############OOO",
"OOO######   <<<<<<XXX<<<<<<<<<            ###############OOO",
"OOO######   <<<<<<111XXX<<<   XXXXXX......       ########OOO",
"OOO######   <<<<<<111XXX<<<   XXXXXX......       ########OOO",
"OOO######   <<<<<<111XXX<<<   XXXXXX......       ########OOO",
"OOO######   111111<<<XXXXXXXXX......XXXXXXXXXXXXXX#######OOO",
"OOO######   111111<<<XXXXXXXXX......XXXXXXXXXXXXXX   ####OOO",
"OOO######   111111<<<XXXXXXXXX......XXXXXXXXXXXXXX   ####OOO",
"OOO######   <<<<<<<<<XXX..........................   ####OOO",
"OOO######   <<<<<<<<<XXX..........................#######OOO",
"OOO######   <<<<<<<<<XXX..........................#######OOO",
"OOO######   <<<<<<<<<XXX......................   ########OOO",
"OOO######   <<<<<<<<<XXX......................   ########OOO",
"OOO######   <<<<<<<<<XXX......................   ########OOO",
"OOO#########   111111XXX<<<<<<<<<<<<XXX      ############OOO",
"OOO#########   111111XXX<<<<<<<<<<<<XXX      ############OOO",
"OOO#########   111111XXX<<<<<<<<<<<<XXX      ############OOO",
"OOO#########   <<<<<<XXX<<<111111111   ##################OOO",
"OOO#########   <<<<<<XXX<<<111111111   ##################OOO",
"OOO#########   <<<<<<XXX<<<111111111   ##################OOO",
"OOO############   XXXXXXXXXXXX      #####################OOO",
"OOO############   XXXXXXXXXXXX      #####################OOO",
"OOO############   XXXXXXXXXXXX      #####################OOO",
"OOO###############      XXXXXXXXX   #####################OOO",
"OOO###############      XXXXXXXXX   #####################OOO",
"OOO###############      XXXXXXXXX   #####################OOO",
"OOO#####################         ########################OOO",
"OOO#####################         ########################OOO",
"OOO#####################         ########################OOO",
"OOO######################################################OOO",
"ooo######################################################ooo",
"ooo######################################################ooo",
"ooo######################################################ooo",
"ooooooOOOOOOOOOOOOOOOOOOOOOOOOOOOOOOOOOOOOOOOOOOOOOOOOoooooo",
"ooooooOOOOOOOOOOOOOOOOOOOOOOOOOOOOOOOOOOOOOOOOOOOOOOOOoooooo",
"ooooooOOOOOOOOOOOOOOOOOOOOOOOOOOOOOOOOOOOOOOOOOOOOOOOOoooooo"
};
