/* XPM */
static char *_a27c8101ff6400db856356395fe8526fXAqPW6eb2Qi6qLB[] = {
/* columns rows colors chars-per-pixel */
"60 60 11 1 ",
"  c black",
". c gray10",
"X c gray20",
"o c #CC9869",
"O c #E3B96E",
"+ c #333399",
"@ c #666699",
"# c #F3D487",
"$ c #99CCFF",
"% c #C0C0C0",
"& c gray85",
/* pixels */
"ooooooOOOOOOOOOOOOOOOOOOOOOOOOOOOOOOOOOOOOOOOOOOOOOOOOoooooo",
"ooooooOOOOOOOOOOOOOOOOOOOOOOOOOOOOOOOOOOOOOOOOOOOOOOOOoooooo",
"ooooooOOOOOOOOOOOOOOOOOOOOOOOOOOOOOOOOOOOOOOOOOOOOOOOOoooooo",
"ooo######################################################ooo",
"ooo######################################################ooo",
"ooo######################################################ooo",
"OOO##################               #####################OOO",
"OOO##################               #####################OOO",
"OOO##################               #####################OOO",
"OOO###############   XXX&&&&&&&&&XXX   ##################OOO",
"OOO###############   XXX&&&&&&&&&XXX   ##################OOO",
"OOO###############   XXX&&&&&&&&++++   ##################OOO",
"OOO############   XXX&&&%%%%%%XX++++   ##################OOO",
"OOO############   XXX&&&%%%%%%XX++++   ##################OOO",
"OOO############   XXX&&&%%%%%%XX@@@@   ##################OOO",
"OOO############   XXX&&&%%%%%%XX$$$$   ##################OOO",
"OOO############   XXX&&&%%%%%%XX$$$$   ##################OOO",
"OOO############   XXX&&&%%%%%%XX$$$$   ##################OOO",
"OOO############   &&&%%%%%%%%%      #####################OOO",
"OOO############   &&&%%%%%%%%%      #####################OOO",
"OOO############   &&&%%%%%%%%%      #####################OOO",
"OOO#########   XXX&&&&&&XXX   ###########################OOO",
"OOO#########   XXX&&&&&&XXX   ###########################OOO",
"OOO#########   XXX&&&&&&XXX   ###########################OOO",
"OOO######   %%%%%%XXX%%%%%%%%%      #####################OOO",
"OOO######   %%%%%%XXX%%%%%%%%%      #####################OOO",
"OOO######   %%%%%%XXX%%%%%%%%%      #####################OOO",
"OOO######   %%%%%%&&&XXX%%%%%%% ....#####################OOO",
"OOO######   %%%%%%&&&XXX%%%%%%% ....        #############OOO",
"OOO######   %%%%%%&&&XXX%%%%%%% ....        #############OOO",
"OOO######   &&&&&&%%%%%%%%%   XXXXXX.........############OOO",
"OOO######   &&&&&&%%%%%%%%%   XXXXXX.........      ######OOO",
"OOO######   &&&&&&%%%%%%%%%   XXXXXX.........      ######OOO",
"OOO######   %%%%%%%%%XXXXXXXXX......XXXXXXXXXXXXXXXX#####OOO",
"OOO######   %%%%%%%%%XXXXXXXXX......XXXXXXXXXXXXXXXX   ##OOO",
"OOO######   %%%%%%%%%XXXXXXXXX......XXXXXXXXXXXXXXXX   ##OOO",
"OOO#########   &&&&&&XXX...............XXXXXXXXXXXXX   ##OOO",
"OOO#########   &&&&&&XXX........................XXXX#####OOO",
"OOO#########   &&&&&&XXX........................   ######OOO",
"OOO#########   %%%%%%XXX........................   ######OOO",
"OOO#########   %%%%%%XXXXXX%%%%%%%%%%%%XX      ##########OOO",
"OOO#########   %%%%%%XXXXXX%%%%%%%%%%%%XX      ##########OOO",
"OOO############   XXXXXXXXX%%%%%%%%%%%%XX      ##########OOO",
"OOO############   XXXXXXXXX%%%%%%%%%%%%##################OOO",
"OOO############   XXXXXXXXXXX       #####################OOO",
"OOO###############XXXXXXXXXXX       #####################OOO",
"OOO###############      XXXXX       #####################OOO",
"OOO###############      XXXXXXXXX   #####################OOO",
"OOO###############      XXXXXXXXX   #####################OOO",
"OOO#####################XXXXXXXXX   #####################OOO",
"OOO#####################XXXXXXXXX########################OOO",
"OOO#####################         ########################OOO",
"OOO#####################         ########################OOO",
"OOO#####################         ########################OOO",
"ooo######################################################ooo",
"ooo######################################################ooo",
"ooo######################################################ooo",
"ooooooOOOOOOOOOOOOOOOOOOOOOOOOOOOOOOOOOOOOOOOOOOOOOOOOoooooo",
"ooooooOOOOOOOOOOOOOOOOOOOOOOOOOOOOOOOOOOOOOOOOOOOOOOOOoooooo",
"ooooooOOOOOOOOOOOOOOOOOOOOOOOOOOOOOOOOOOOOOOOOOOOOOOOOoooooo"
};
