/* XPM */
static char *f6e1c61ec152432aa94f360c390baa42DFXZahHdXE1v0CB3[] = {
/* columns rows colors chars-per-pixel */
"60 60 246 2 ",
"   c #010101",
".  c #0A0301",
"X  c #05030A",
"o  c #0B0B0B",
"O  c #0A0804",
"+  c #130C01",
"@  c #1B0D01",
"#  c #150806",
"$  c #0D110A",
"%  c #131202",
"&  c #1C1403",
"*  c #12130C",
"=  c #1A130C",
"-  c #1B1B0B",
";  c #181904",
":  c #0A0813",
">  c #130D13",
",  c #131314",
"<  c #1B1A15",
"1  c #1C1C1C",
"2  c #181616",
"3  c #0F1015",
"4  c #231A03",
"5  c #2B1C02",
"6  c #261907",
"7  c #231C13",
"8  c #231618",
"9  c #291307",
"0  c #1F221C",
"q  c #19210B",
"w  c #2C2402",
"e  c #282408",
"r  c #372907",
"t  c #393209",
"y  c #22221D",
"u  c #2A2618",
"i  c #352B17",
"p  c #2D3119",
"a  c #34321D",
"s  c #383516",
"d  c #1D1C22",
"f  c #1B1625",
"g  c #211E23",
"h  c #271D27",
"j  c #211F32",
"k  c #222222",
"l  c #2A2423",
"z  c #2B2B23",
"x  c #262629",
"c  c #2B252B",
"v  c #2C2C2C",
"b  c #262A29",
"n  c #342D2D",
"m  c #352926",
"M  c #3A3423",
"N  c #33332C",
"B  c #383728",
"V  c #2B2C31",
"C  c #352D37",
"Z  c #2D3135",
"A  c #343334",
"S  c #3B3B3B",
"D  c #393735",
"F  c #2D3425",
"G  c #1F2224",
"H  c #483809",
"J  c #533B09",
"K  c #453917",
"L  c #563C13",
"P  c #442D05",
"I  c #433926",
"U  c #413935",
"Y  c #3F493A",
"T  c #48420B",
"R  c #574609",
"E  c #4D4617",
"W  c #564619",
"Q  c #5A5119",
"!  c #7A4E01",
"~  c #69550B",
"^  c #685717",
"/  c #755A19",
"(  c #6E4F09",
")  c #79670B",
"_  c #776619",
"`  c #70691D",
"'  c #4B4424",
"]  c #554926",
"[  c #48483C",
"{  c #544835",
"}  c #5A522B",
"|  c #685927",
" . c #725B24",
".. c #645836",
"X. c #6B572B",
"o. c #6C6423",
"O. c #78662A",
"+. c #776737",
"@. c #736D31",
"#. c #3D3943",
"$. c #413F44",
"%. c #444444",
"&. c #4C4B44",
"*. c #4C4C4C",
"=. c #484547",
"-. c #534D44",
";. c #4E5249",
":. c #575648",
">. c #4D4C52",
",. c #525252",
"<. c #5D5C5C",
"1. c #595857",
"2. c #625C48",
"3. c #635D57",
"4. c #5B635A",
"5. c #5E6149",
"6. c #68644A",
"7. c #686658",
"8. c #716A57",
"9. c #79704F",
"0. c #686665",
"q. c #747266",
"w. c #767272",
"e. c #825E0E",
"r. c #896B17",
"t. c #966D16",
"y. c #95750F",
"u. c #88762B",
"i. c #8A7835",
"p. c #927937",
"a. c #8B712A",
"s. c #887747",
"d. c #8B7B50",
"f. c #877B6A",
"g. c #847D7D",
"h. c #968310",
"j. c #978637",
"k. c #95862E",
"l. c #B99729",
"z. c #A48C39",
"x. c #AB963B",
"c. c #B69C39",
"v. c #AD8A2C",
"b. c #B9A439",
"n. c #BAA327",
"m. c #AD9116",
"M. c #D9BE17",
"N. c #C7A936",
"B. c #D4AE33",
"V. c #D6BA37",
"C. c #D0B42F",
"Z. c #E4BD2C",
"A. c #DAC538",
"S. c #F6D534",
"D. c #F5D43C",
"F. c #FAD43C",
"G. c #FBD839",
"H. c #F0CE33",
"J. c #F9E43C",
"K. c #988748",
"L. c #968656",
"P. c #918A57",
"I. c #AA9447",
"U. c #B49C46",
"Y. c #A89859",
"T. c #A89651",
"R. c #B9A546",
"E. c #BAA754",
"W. c #AEA658",
"Q. c #9A8C69",
"!. c #978A74",
"~. c #8C8873",
"^. c #A49863",
"/. c #B8AC6A",
"(. c #C6A845",
"). c #CBB444",
"_. c #D6B746",
"`. c #C4A954",
"'. c #C8B658",
"]. c #D4BB59",
"[. c #E1BE51",
"{. c #CBB468",
"}. c #DBC548",
"|. c #DBC557",
" X c #D7CE52",
".X c #E6C646",
"XX c #F6CD43",
"oX c #FCDB45",
"OX c #FBD54B",
"+X c #FCDC4B",
"@X c #F7D645",
"#X c #E4C957",
"$X c #E9D35A",
"%X c #FCDC55",
"&X c #FCDC5B",
"*X c #F7D856",
"=X c #EED050",
"-X c #FDE24C",
";X c #FEE556",
":X c #D8C668",
">X c #D8C674",
",X c #CDC17F",
"<X c #E6CA66",
"1X c #E9D368",
"2X c #FBDC64",
"3X c #F7D768",
"4X c #EDD475",
"5X c #FCE262",
"6X c #FFE66A",
"7X c #FCE376",
"8X c #807C81",
"9X c #848485",
"0X c #989182",
"qX c #B8B395",
"wX c #EAD988",
"eX c #F9E98C",
"rX c #CACBBE",
"tX c #D7D096",
"yX c #CBCCC5",
"uX c #CCCCCD",
"iX c #C8C9CA",
"pX c #D0CDCC",
"aX c #CCD0CB",
"sX c #D3D3CD",
"dX c #D7D6CB",
"fX c #CCCBD2",
"gX c #C9CAD3",
"hX c #D0CED2",
"jX c #D4D4D4",
"kX c #DBD6D4",
"lX c #D6D9D4",
"zX c #D9D9D4",
"xX c #D5D6DA",
"cX c #D9D6DA",
"vX c #D5D8DB",
"bX c #D9D9DA",
"nX c #CED3D6",
"mX c #E4DED9",
"MX c #E4DACA",
"NX c #E4E2D9",
"BX c #E9E9D4",
"VX c #D7D7E3",
"CX c #D4CBE0",
"ZX c #E3DDE4",
"AX c #DCE2E2",
"SX c #E2E3E7",
/* pixels */
",                                                               X   X # > #                   X                       * ",
"  o k 1 1 1 1 1 1 1 1 1 2 1 , , 2 , , , , = ; s E t w E T t e E L r 5 ] X.I 6 2 1 2 < f 2 < u 2 1 1 1 1 1 1 1 1 1 0 o X ",
"  k S v v v b b b v A ,.=.*.D V A A Z N C i T R.:Xz.~ C..Xh.) _.|.r.e.|.:Xu.K B n C D #.V U 4.*.>.A v x v b b v v S k   ",
"  1 ,               o %.*.*.%.v v A v C U s R N.*Xl.! Z.oXy./ .XH.y.y.@X|.O.I C C V C #.C *.7.7.=.*               , 1   ",
"  d k O o o o o o o 1 %.*.*.*.S b A D A C r R C.F.l.e.Z.D.h.e.H.S.y.y.A..X_ ' D A A Z v $.7.4.4.0.1 o o o o X o o y 0   ",
"  k =.S A A A A A S %.,.*.*.>.=.n v A v n i R b.=Xv.! _.$Xy.) |.#Xr.r.}. Xo.' %.C v F n 1.0.0.4.4.%.S A A D A D S =.k X ",
"  0 b , * , X . .           X O O .     .       X X O o .     = # .   o 3 o .   X         . X   .         A , , , x 1   ",
"  1 2       O & t ^ ) ` o.E ; - 2 = r | O./ o.Q e ; - & 5 | _ _ @.| e - q - 5 ^ _ ) ` X.i 2 d 7 5 } O.+.6 c       1 1   ",
"  k A k k k + 9 p..XA. X>XP.{ &.;.' j.|.|.}.|.K.' [ [ E i.|.A.A.#XT.' Y B K _ _.M.M.A.k.t b N w ( B._.).L y y k k A k   ",
"  k *.S S D . W >XeXwXeX/.!.0X0XP./.eX5X2X7X/.9.7.8.6.L.4X&X@X2X{...[ %.I O.>X*XXXOX(.T M S a ^ #X@XH.B.J u D S S *.k   ",
"X d 1 X O X . X.1X7X4X/.K u p e R ].*X=X2X'.H u m 5 W _.oX@X-X'.Q ' B p T ).%XF.+X|.^ r n m H R.&XF.S.N.r l     X d d   ",
"  d 1       . X.<X7X>X} F B B ] {.5XD.;X$X^ M S D R `.5X+X;X1Xo.s [ { Y W.5XOX&X3Xu.r B D I T.&XF.F.=X) % V   X   d d   ",
"  1 [ A A N . o.<XeX+.n v 0 y 6.'.b.N.R.^ 4 g j 8 o.E.(.R.E.O.5 8 x B ..W.R.R.`.a.5 e 1 - ] E.=XS.;XU.r + b F D A Y g   ",
"  y &.;.[ :.  ..wX^.u D 1 [ ~.!.Q.Q.Q.f.8.7.0.0.0.q.~.Q.Q.Q.f.g.9X9X0X0X^.L.^.Q.f.8X9X8X~.Q._ C.-X'.L e * b 5.[ *.&.y   ",
"  0 *.;.[ q.  ..qX9.0 S 2 w.BXbXZXZXVXCXpXdXdXdXxXjXbXZXZXmXNXNXAXAXSXNXmXMXNXMXbXSXSXAXNXMXp.}.$X| i z $ Z q.[ ;.;.y   ",
"  y &.&.[ :.O K P.q.p a e f.BXlXCXcXfXiXrXrXrXyXyXyXdXcXVXbXkXkXvXbXzXzXlXVXbXzXzXlXvXvXxXMXs.{.u.i n z 3 b ;.[ [ &.y   ",
"  d >.*.;.=.o + 2.q.k K @.!.NXdXbXsXyXrXyXuXgXgXgXjXlXlXlXzXbXVXVXVXvXlXlXVXvXbXzXlXlXzXlXkXf.d.t m D 8 * p &.;.&.>.d   ",
"  d >.=.*.*.$ O 3.0.e K.Y.P.NXnXlXuXiXfXgXgXgXgXgXVXVXxXlXlXcXcXvXlXlXlXlXVXvXbXlXzXzXzXvXbX7.u B M i E i k *.*.*.>.d   ",
"  d >.>.*.*.o o 1.2.~ 1Xb.L.NXvXCXpXyXpXgXgXiXiXnXzXcXbXzXcXbXkXdXlXlXcXbXkXzXcXcXcXkXbXvXAX;.7 D a T I.K x *.*.*.>.k X ",
"X g >.*.>.*.> o 2.+.).;Xl.L.ZXxXnXfXyXyXyXuXiXyXlXlXdXcXcXzXkXkXlXdXxXxXzXkXkXbXcXcXbXzXjXAX;.0 A r k.).t x >.=.>.>.d   ",
"  k >.>.>.>.o O } {.OX-Xl.L.NXnXyXiXfXuXuXyXiXhXjXjXxXcXbXlXbXlXkXjXjXcXxXjXbXjXxXxXxXxXjXzX:.g i a.=XB.H x *.*.>.>.d   ",
"  1 >.*.>.*.# + p.7X@X+XU.L.NXuXyXiXyXuXuXiXyXxXcXlXxXkXxXxXkXjXbXjXbXjXbXlXjXbXxXxXkXjXbXbX*.7 X.#XXXB.H l *.*.*.>.d   ",
"  0 *.*.*.*.+ K ].%XD.5Xj.d.mXyXyXpXpXuXuXuXhXbXbXbXjXlXjXlXjXxXbXbXbXlXjXjXxXxXkXjXxXjXlXbX:.P ].+XH.B.H l >.=.*.,.A   ",
"  d *.*.*.*.  X.#X@X+X|.t w.cXyXaXpXpXpXiXhXjXjXlXcXbXjXjXjXxXcXbXjXbXxXjXkXjXkXlXlXlXjXjXcX..p.%XD.S.C.t v >.*.*.>.A   ",
"  d ;.*.*.*..  .#XOX$XO.@ w.VXyXpXfXjXuXiXuXkXbXjXbXkXjXlXjXjXcXjXjXxXbXjXsXjXjXjXjXjXkXjXdXs._.G.G.OXt.6 V *.*.*.,.A   ",
"  y >.>.*.*..  .#X4Xj.r 8 w.VXfXpXfXhXuXuXsXxXxXjXjXxXjXjXjXxXbXjXjXxXlXjXjXjXlXjXjXjXjXsXdXs.A.G.+X(.P = k *.*.*.>.A   ",
"  k *.*.*.*..  .1XW.t M 1 0.bXuXpXfXhXuXsXjXbXxXjXkXxXjXjXlXxXkXjXjXjXjXjXjXhXjXjXjXjXsXjXdXi.V.+X:X^ u = b *.*.*.,.A   ",
"  1 >.*.*.=.  +.'.W i D , 0.kXyXyXiXaXuXjXxXxXjXhXxXlXjXjXjXxXlXjXjXjXjXpXlXxXjXjXhXjXjXsXdXd._.3Xa.i A 1 k *.*.*.>.A   ",
"  k >.*.*.*.  } @.M N N & 8.kXiXgXiXaXhXjXjXjXjXhXkXxXjXpXjXxXjXhXjXjXhXjXkXxXxXxXhXbXlXkXdXP.:XT.i [ D 0 F *.*.*.,.A   ",
"  y >.*.*.*.. 7 B A F s } q.sXgXgXuXuXaXjXjXkXjXjXjXlXjXjXjXbXjXjXjXlXjXlXxXjXcXlXjXbXjXxXdXP.^.L n $.u q N *.*.*.>.A   ",
"  0 *.,.*.*.* o N U r @.Y.d.dXiXfXpXuXjXjXjXxXjXjXxXlXhXsXjXlXhXjXjXjXjXjXjXsXjXjXjXjXpXjXkX8...U U [ K a z *.*.*.,.A   ",
"  d *.*.*.*.o > m m L >XW.9.dXyXaXuXuXjXsXhXlXjXhXlXjXjXhXjXxXjXpXjXjXjXjXjXjXjXjXjXxXjXjXcX1.[ $.D W s.} y >.=.*.*.A   ",
"  k *.>.*.*.: > i J R.;Xb.s.dXiXsXiXhXjXuXjXlXhXjXxXlXpXaXjXlXjXsXjXlXjXlXjXaXlXjXjXlXhXjXcX1.,.Y p k.{.L 8 ,.*.*.*.A   ",
"  1 >.*.*.*.> = 5 z.%XJ.n.9.kXyXuXhXjXjXfXjXxXhXpXxXjXjXjXhXxXjXfXxXjXjXjXhXjXxXhXjXxXhXjXxX1.<.B o.:X].J m *.=.*.>.A   ",
"  0 *.&.*.>.o + / *XD.G.b.s.kXiXuXfXjXfXsXjXjXjXjXjXuXsXnXsXjXjXjXjXpXjXjXjXjXlXpXjXjXaXjXcX<.-.Q '.*XB.H u ,.*.*.,.A   ",
"  k *.*.*.*.  P (.XXF.;Xz.9.kXgXyXuXpXjXfXlXjXuXfXjXsXfXhXsXhXjXjXlXhXjXjXaXhXjXjXjXuXuXjXhX>.+.`.2XXXB.J 8 *.*.*.*.A   ",
"  1 >.&.*.*..  .Z.F.OX3XR 6.cXgXaXsXsXaXuXjXjXjXjXjXuXhXaXjXaXhXuXjXhXuXxXsXjXhXhXsXhXpXjXfX[ K.7X*XOX_.H c >.=.*.*.A   ",
"  k >.*.*.*.. / Z.F.3Xs.9 0.ZXnXlXkXlXjXjXxXjXlXlXsXjXjXhXnXxXlXjXxXsXkXlXxXlXbXcXbXkXkXcXyX6.>X2X+X3Xx.w x 1.*.*.*.A   ",
"  k >.*.&.*.  / Z.%XU.s 6 I 3.1.4.0.7.:.5.7.7.6.6.<.<.:.1.1.7.9.7.8.1.1.0.7.:.7.2.6.2.3.0.:.} 4X+X@X#X] # z <.*.*.*.A   ",
"  1 *.*.*.*.   ..X].E F 6 ..W.T ; - 4 i.R.b.c.(.X.@ 2 4 Q E.R.b.R.K.w 7 = K Y.R.b.(.T.r & - L <X&X#Xa.5 = v 0.,.*.*.A   ",
"  1 *.=.*.*.  +.{.| i D - j.eXx.4 7 #  .3X;XF.-X].r - & P <X;X+X%X7XQ & 6 5 E.;XoX+X7Xp.@ 6 W >XwXj.t m = b <.<.;.>.A   ",
"  k *.*.*.*.  ..a.t n S ; u.5X|.W 2 f 6 E.&XS.H.2X+.% d > i.2XF.F.2XT.- 7 > Q 1XS.S.&X{.r 6 ] wX{.s D l % b <.<.,.*.A   ",
"  0 *.*.*.*.O u s M C n H k.&X&Xx.& 0 * | 3XF.F.&X'.t , , s :X&XOX*X1XE $ d 6 I.&XF.XX2Xu.@ { tX..z C p O N ,.7.<.>.A   ",
"  d *.*.*.*.O + i I i ] z.m.D.@X$XT % ; 9 U.&XXXXX5XO.% - @ p.2XD.F.&Xx.; < @ ^ 3XXXF.OX].r t qX..n C i - k ,.1.4.1.V X ",
"  k *.*.*.%.o * m I K '.N.m.;X;X7XT.; 7 @ / 2X&X-X;X|.t & 6 J [.&X-X-X2X~ % & 5 `.6X+X+X6Xp.& ~.3.n i o.K g %.,.<.<.D X ",
"  1 &.*.&.7.o * u K p.2XN.~ j.s.K.s.p 7 8 r +.j.k.i.K.U 8 7 9 | p.u.p.K...0 u - K p.a.u.s.9.% ~.7.u / R.H c 7.&.<.<.S   ",
"  g *.-.[ 8.o * e @.$X+XN.H +   .   . & r w w r %     X   - t w w e @         * u w e e +     ~.8.K '.V.J h ~.%.1.<.%.  ",
"  k *.*.&.-.# + W #X+XXXH.x.t y b < H x.B.Z.V.R.K 8 l u t x.C.C.}.'...U [ Y } Y.{.|. X>XP.4.4.qX9.x.@XN.L 7 :.=.>.<.*.O ",
"  d S g y y # 5 x.+XD.OX<X .p N F H R.%X@XOX$XO.s F B H I.2X@X+X1Xi.I &.=.I /.7X%X5XeX^.8.g.8X~.Y.3XF.C.H m 8 l k %.=., ",
"  g 2         ^ }.G.OX3Xp.r N B r k.%XD.OX3Xp.i N a i a.&X@X@X2XI.r m A i a.#XF.S.*XT.i c c 9 ~ <XXXH.V.P m       2 D 0 ",
"  g x : , > .  .A.F.%Xc.P B D s _ =XG.S.+X(.L M Y w  .$XF.D.-X).T s I a Q [.OXS.G.|.W i D a R |.OXF.oXb.5 c * O o k S 1 ",
"  d >.%.$.=.X  ._._.c.J t B z ] E.}.V.A.b.R p a p E U._.V._.(.R r s M ] Y..XV.Z.(.^ r M s T z.}.V.A.N.~ @ c %.#.%.*.S 1 ",
"  d x , , ,   i L L P @ - $ $ i L L J J t % * - % e L J J L t @ = = e I ' H J R P & = * % 4 E T H J P 4 O b , 2 , g A 2 ",
"  G ,   X   V 8 8 8 8 8 2 1 1 2 = 8 1 f f 0 1 f d 8 8 8 8 8 8 f f f C m 7 = 2 = 7 1 1 d d 1 > * 2 f h x < ;.      o b o ",
"  k D b x x c x b b A *.>.*.*.,.S v V A N n M @.j.r.R p.j./ ~ k.j.^ ~ j.i.] C C A N V A *.>.*.*.*.S b k k x x k k S A   ",
"  k %.A V A V C V V D >.*.*.,.=.n c A F a M W ).*Xc.! |.3Xy.) .X*Xt.r. X#X .i C B N Z v S *.*.*.*.%.A A V V N Z V Y S   ",
"  1 2               , Y >.;.*.D V A A N s m L N.D.l.! V.=Xh.e.A.H.t.t.H.A.^ a C M F Z V A =.>.*.&.2               3 b   ",
"  k 0       o   O X 1 %.>.*.%.v v A v N B s R '.*Xn.e._.&Xh.) .XOXt.y.=X#X| m M a F Z A v S ,.,.=.x o O $ O X O O 2 A   ",
"  k $.D A S D A A V S %.=.=.A b b N v v y u K K.`.a.R x.U.) ( x.U./ ~ x.U.] l m p p Z b k v Y $.$.S v v A Z v V V V v   ",
"  X o     o X O O   O X         X     X X : X # # @ # @ # # . @ @ # + & + : : X   X X X     X   O O   X   O   o *   O   "
};
