/* XPM */
static char *result[] = {
/* columns rows colors chars-per-pixel */
"60 60 244 2 ",
"   c #010101",
".  c #0B0201",
"X  c #040B06",
"o  c #0B0B03",
"O  c #03020B",
"+  c #0B0409",
"@  c #0B0A0B",
"#  c #130201",
"$  c #140C03",
"%  c #160B06",
"&  c #141202",
"*  c #1B1302",
"=  c #1A1A04",
"-  c #13130A",
";  c #1B150B",
":  c #1C1B0C",
">  c #060514",
",  c #0C1215",
"<  c #1B1514",
"1  c #1A1B12",
"2  c #181818",
"3  c #211401",
"4  c #261B06",
"5  c #221C13",
"6  c #241E1A",
"7  c #1B2303",
"8  c #1E2116",
"9  c #2C2303",
"0  c #23220C",
"q  c #2C240C",
"w  c #282808",
"e  c #332504",
"r  c #362A07",
"t  c #3B3507",
"y  c #232315",
"u  c #2C2514",
"i  c #2D2914",
"p  c #22231C",
"a  c #2B241A",
"s  c #262B18",
"d  c #2E2B1C",
"f  c #332A14",
"g  c #332B1B",
"h  c #362A18",
"j  c #3A3518",
"k  c #171A22",
"l  c #281F22",
"z  c #1D2323",
"x  c #282727",
"c  c #342B25",
"v  c #312D2D",
"b  c #2C3226",
"n  c #383527",
"m  c #35332B",
"M  c #232533",
"N  c #382D33",
"B  c #2C3A37",
"V  c #353636",
"C  c #3C3533",
"Z  c #4C370C",
"A  c #453808",
"S  c #4B3C0B",
"D  c #423914",
"F  c #493C18",
"G  c #453A26",
"H  c #4C3C2B",
"J  c #4A420B",
"K  c #57490D",
"L  c #5C500F",
"P  c #4C4616",
"I  c #594917",
"U  c #5A5517",
"Y  c #6C580D",
"T  c #685918",
"R  c #725A19",
"E  c #6E631C",
"W  c #7A651D",
"Q  c #484526",
"!  c #564B26",
"~  c #5C5122",
"^  c #484638",
"/  c #52493A",
"(  c #695828",
")  c #745D23",
"_  c #695A36",
"`  c #785F33",
"'  c #5F6337",
"]  c #6C662A",
"[  c #726524",
"{  c #7A6626",
"}  c #6C643B",
"|  c #7C6A37",
" . c #7B7335",
".. c #453F46",
"X. c #494446",
"o. c #555249",
"O. c #585757",
"+. c #645847",
"@. c #655C57",
"#. c #766A4A",
"$. c #686559",
"%. c #7C7253",
"&. c #605F68",
"*. c #6C6B63",
"=. c #6A6968",
"-. c #797767",
";. c #747070",
":. c #896E1A",
">. c #8B731D",
",. c #91711E",
"<. c #836C24",
"1. c #887427",
"2. c #8B762A",
"3. c #927829",
"4. c #846D34",
"5. c #89783A",
"6. c #937D32",
"7. c #877649",
"8. c #8E794E",
"9. c #8A7E57",
"0. c #877B74",
"q. c #A68B1A",
"w. c #AC8D18",
"e. c #BDAE1D",
"r. c #978429",
"t. c #8E8237",
"y. c #9A8739",
"u. c #AA8926",
"i. c #A99329",
"p. c #B5952A",
"a. c #A78C37",
"s. c #A79539",
"d. c #B39B37",
"f. c #BAA536",
"g. c #CFAD1D",
"h. c #C7B135",
"j. c #D8B73A",
"k. c #EABD3B",
"l. c #DBC32B",
"z. c #D7C53B",
"x. c #E9C72A",
"c. c #F4CE2E",
"v. c #EBC636",
"b. c #F5CC37",
"n. c #F4D531",
"m. c #F4D234",
"M. c #F5D43D",
"N. c #F9D53B",
"B. c #958846",
"V. c #958559",
"C. c #9D9750",
"Z. c #A18D45",
"A. c #A99744",
"S. c #B09748",
"D. c #A99A55",
"F. c #B8A64A",
"G. c #B7AC49",
"H. c #B8A75A",
"J. c #8E8569",
"K. c #88857A",
"L. c #958671",
"P. c #A2916F",
"I. c #B4AA6F",
"U. c #C6AC46",
"Y. c #CAB647",
"T. c #D6BA4A",
"R. c #C1AA58",
"E. c #C9B558",
"W. c #D7BB56",
"Q. c #CC9869",
"!. c #CCB866",
"~. c #D5BA67",
"^. c #CFB675",
"/. c #E3B96E",
"(. c #D6C946",
"). c #D9C657",
"_. c #E8C947",
"`. c #F3CD45",
"'. c #F4D344",
"]. c #F7D746",
"[. c #FBDA44",
"{. c #F9D34D",
"}. c #FCDB4B",
"|. c #E7CA56",
" X c #EDD050",
".X c #EBD25A",
"XX c #F5D353",
"oX c #FBDC52",
"OX c #F9D558",
"+X c #F5DA5C",
"@X c #FCDC5C",
"#X c #FFE243",
"$X c #FDE354",
"%X c #FDE55A",
"&X c #D6C565",
"*X c #DCC978",
"=X c #E7CC65",
"-X c #E8D566",
";X c #E9D16E",
":X c #F7D868",
">X c #F8DC78",
",X c #FCE667",
"<X c #FBE679",
"1X c #888985",
"2X c #928C85",
"3X c #918989",
"4X c #96928C",
"5X c #908F94",
"6X c #8D9293",
"7X c #969795",
"8X c #A2968A",
"9X c #B8B094",
"0X c #C8AB80",
"qX c #ECDC81",
"wX c #F3D487",
"eX c #F6E890",
"rX c #C5C9BC",
"tX c #D3D5BE",
"yX c #C5CAC4",
"uX c #C8C8C7",
"iX c #CDCCCC",
"pX c #D1CFCC",
"aX c #CAD2C4",
"sX c #CDD2CD",
"dX c #D2D6C4",
"fX c #D2D2CD",
"gX c #CAC8D2",
"hX c #CDCDD1",
"jX c #D3CED4",
"kX c #D4CFDC",
"lX c #CDD3D3",
"zX c #CED2D8",
"xX c #D2D2D2",
"cX c #D3D1DA",
"vX c #DAD7D8",
"bX c #DBDCDC",
"nX c #E2D9D9",
"mX c #DDE2D8",
"MX c #D4CEE2",
"NX c #DCD2E3",
"BX c #DCDDE2",
"VX c #E8D9E4",
"CX c #DDE1E3",
"ZX c #E8E3E7",
/* pixels */
"Q.Q.Q.Q.Q.Q././././././././././././././././././././././././././././././././././././././././././././././././.Q.Q.Q.Q.Q.Q.",
"Q.Q.Q.Q.Q.Q././././././././././././././././././././././././././././././././././././././././././././././././.Q.Q.Q.Q.Q.Q.",
"Q.Q.Q.Q.Q.Q./././././././././././././././././.~././././././././././././././././././././././././././././././.Q.Q.Q.Q.Q.Q.",
"Q.Q.Q.wXwXwXwXwXwXwXwXwXwXwXwXwXwXwXwXwXwXwXwXwXwXwXwXwXwXwXwXwXwXwXwXwXwXwXwXwXwXwXwXwXwXwXwXwXwXwXwXwXwXwXwXwXwXQ.Q.Q.",
"Q.Q.Q.wXwXwXwXwXwXwXwXwXwXwXwXwXwXwXwXwXwXwXwXwXwXwXwXwXwXwXwXwXwXwXwXwXwXwXwXwXwXwXwXwXwXwXwXwXwXwXwXwXwXwXwXwXwXQ.Q.Q.",
"Q.Q.Q.wXwXwXwXwXwXwXwXwXwXwXwXwXwXwXwXwXwXwXwXwXwXwXwXwXwXwXwXwXwXwXwXwXwXwXwXwXwXwXwXwXwXwXwXwXwXwXwXwXwXwXwXwXwXQ.Q.Q.",
"/././.wXwXwXO +             X @ @ X @ < #       X + @ .     . .     + + . @ $           . . O X .           wXwXwX/././.",
"/././.wXwXwX+ $ t T T Y ( P - & & & t ] R T ) U w & * * 3 I ) T ( T r ; < ; 3 J W Y Y [ t = : : * A ) ] F   wXwXwX/././.",
"/././.wXwXwX. 9 y.).z.(.=XB.^ o.^ ! y.).z.z. XC.Q Q H H 4.Y.z.j._.d.! G ..c L f.x.g.l.f.J s b w A p.j.T.3.. wXwXwX/././.",
"/././.wXwXwX. ~ *X<X>XeX0X0.2X2XJ.9XeX>X:X>X!.#.$.;.@.8.;X:X'.oX!.` H X.H ~ E.:Xb.{.~.R j C c D s.{.b.k.3.. wXwXwX/././.",
"/././.wXwXwX  [ =X>X>XI.G x v 4 K &X+X_.>X!.! 5 N 5 Z F.:X`.oX|.{ l N c r Z.:X`.`.:X5.r c n 9 2.:X{.N.k.W . wXwXwX/././.",
"/././.wXwXwX  W .X<X~.I i B b P E.,X[.$X-X{ r m c A A.@Xn.[.+X6.r c n t 6.:X}.'.%Xd.t n m d ) =X{.M.}.d.r   wXwXwX/././.",
"/././.wXwXwX. [ -X>X[ r n 8 7 ] !.f.h.Y.{ 3 y x : U H.h.e.h.t.e 5 w = J s.Y.h.U.s.A ; 5 6 g V.|.b.].|.K * . wXwXwX/././.",
"/././.wXwXwX. <.qXC.w B 8 ^ ;.-.9.%. .#.+.O.&.*.*.0.L.9.V.V.%.*.*.*.*.-.J.V.8.V.9.*.=.=.=.9.<.w.]..X1.: :   wXwXwX/././.",
"/././.wXwXwX# ` 0X#.z B 8 0.ZXgXcXiXuXiXhXjXxXmXmXNXNXNXNXvXBXCXbXvXCXNXcXnXnXvXBXBXCXnXvXVXP.q.%XA.f x 8 X wXwXwX/././.",
"/././.wXwXwX% H V.$.M b 0 0.MXgXhXuXuXyXrXyXdXdXsXfXcXxXfXxXlXlXlXxXzXzXcXjXxXcXlXzXlXsXiXnXP.A.G.J v M k X wXwXwX/././.",
"/././.wXwXwX% * +.$.8 j _ L.tXrXrXuXyXyXyXrXfXfXlXfXdXtXtXdXsXlXcXxXcXlXfXdXdXxXlXlXcXfXlXvX8XB.T u N 6 1   wXwXwX/././.",
"/././.wXwXwX@ @ *.O.w t.D.9.tXrXyXuXgXgXgXjXxXzXvXlXxXzXxXfXfXfXcXcXzXsXdXfXpXvXcXcXxXfXaXBX4XG f V v q j . wXwXwX/././.",
"/././.wXwXwXX , O./ I -Xd.7.fXuXuXgXgXgXjXkXxXxXzXvXcXcXMXcXvXfXfXxXfXlXzXcXvXjXfXfXxXxXyXmX1X5 m m q ) |   wXwXwX/././.",
"/././.wXwXwXX @ o.} U.%Xi.%.fXuXiXiXuXuXpXxXpXjXfXfXfXxXcXcXvXfXfXfXfXxXzXxXjXjXfXfXxXxXaXvX3Xz m q K U.6.  wXwXwX/././.",
"/././.wXwXwX@ o _ ^. XM.p.7.fXuXuXuXuXiXjXpXpXxXlXxXxXxXfXfXxXxXxXlXjXxXfXlXxXxXfXjXcXsXaXnX3Xl b J G.v.:.. wXwXwX/././.",
"/././.wXwXwXo $ 7.<X'.].p.7.xXuXuXiXuXiXpXjXpXxXpXlXxXxXxXxXxXxXxXxXxXsXjXxXfXiXjXxXhXsXaXbX3X5 e y.-Xv.,.. wXwXwX/././.",
"/././.wXwXwX  S T.oX'.%Xy.#.fXuXuXiXiXpXjXpXjXxXxXhXiXxXxXxXxXxXxXxXjXfXxXlXxXjXfXxXjXsXyXbX1X4 <..X'.v.,.. wXwXwX/././.",
"/././.wXwXwX  [  X'.oX&XK @.vXuXuXuXiXjXpXpXjXxXjXfXxXxXiXxXsXxXfXxXxXlXxXfXsXjXsXpXsXsXsXCXK.Z W.[.c._.1.. wXwXwX/././.",
"/././.wXwXwX. { v.].;X2.3 *.xXyXuXuXiXxXiXxXsXxXhXsXiXlXiXxXxXiXsXjXhXiXxXhXlXpXsXpXiXsXhXbXL.3.OXb.N.T.K . wXwXwX/././.",
"/././.wXwXwX. ) |.,XA.r 4 =.jXuXiXiXiXsXjXsXjXcXhXpXxXiXpXxXxXiXiXhXlXpXfXxXxXiXiXpXfXlXgXvXP.d.{.N.+X<.3 # wXwXwX/././.",
"/././.wXwXwX. ) ;XH.S j 6 =.cXyXuXiXhXiXiXsXpXfXiXiXhXiXiXjXsXiXiXiXsXsXiXiXiXpXiXiXpXiXhXzXV.a.`.:Xf.e < . wXwXwX/././.",
"/././.wXwXwX. 4.~.~ y n k ;.cXyXuXiXuXiXpXiXiXlXiXiXiXiXiXxXpXiXiXiXiXiXiXiXpXiXpXiXiXaXuXvX9.q.@XT.P : k > wXwXwX/././.",
"/././.wXwXwX$ | B.n v V s ;.ZXxXbXbXmXbXVXbXbXmXvXmXbXbXbXBXBXCXvXvXbXvXBXzXbXCXBXbXbXbXNXZX9.a..XT q x k > wXwXwX/././.",
"/././.wXwXwX: G X.X.v n ! +.2XK.6X6X7X4X2X4X5X2X1X7X7X7X6X2X1X1XK.1X4X6X6X6X1X1X1XK.0.5X7X4X_ A.5.r m M <   wXwXwX/././.",
"/././.wXwXwXy < V X.f ] C.( 7.f < x c _ 5.4.8.7.! b x 5 Q 7.5.] 5._ a < 2 y } 4.{ 4. .j 2 < f } j v V 6 0   wXwXwX/././.",
"/././.wXwXwX8 < C H A E.F.a.>X{ $ a 3 4.>X XOX:XH.A * $ F ~.+X`.+X=XI # * 3 Z.:X{._.,X6.& & s n n V b S ( . wXwXwX/././.",
"/././.wXwXwX1 8 m F r.,Xf.u.,XW.t : y S W.%XN.#X+X .= 1 4 Z.,XN.n.$Xd.w 1 % ~ =X}.N.oX|.S ; p n ^ s t s.t.  wXwXwX/././.",
"/././.wXwXwX- 7 h 5.-X}.g.w.}.-X .o z s ] -XM.b.%XH.w , k ! W.}.x.#X&XU O k - B.@Xb.b.%Xa.3 k X.X.9 2.).1.. wXwXwX/././.",
"/././.wXwXwX- & ( *XOX].p.w.`.{.E.9 6 M f R.@Xv.OX-X( o x u t.oXc.v.@XB.* k @ I |.{.k.].W.A 5 X.Q ) |.v.<.. wXwXwX/././.",
"/././.wXwXwXo q F.:X`.@Xf.p.$X}.,X6.4 u 3 2.,X}.[.,XR.e u r S W.$XN.#X%XT % 5 4 s.$X#XN.,Xs.e G | Y.}.x.>.. wXwXwX/././.",
"/././.wXwXwX. ) |.`.XX:X<.4.&XT.).D.j 5 * j H.).T.).!.~ 0 d 3 5.&XT.Y.).t.4 : & P E.).E.&XE.t F ~.oXm.k.,.. wXwXwX/././.",
"/././.wXwXwX. { `.b.:XH.Z 5 f u u d x , O < b i n j u : , z X - d i q f 5 X O O + u f u u h + 7.<X'.M.k.R   wXwXwX/././.",
"/././.wXwXwX. :.k.OXE._ m .                                                                 . D.,XM.@Xs.e . wXwXwX/././.",
"/././.wXwXwX. W k.|.T h b                                                           X     . # D.:XoXW.J *   wXwXwX/././.",
"/././.wXwXwX  { |.,.r m p                                                                   . D.<X-X{ = 5   wXwXwX/././.",
"/././.wXwXwX  #.y.e v V p                                                                   . D.eXt.j x 2   wXwXwX/././.",
"/././.wXwXwXo Q D d V v c .                                                                 . I.I.j v M k   wXwXwX/././.",
"/././.wXwXwXo = y m c D #.-                                                             O O   P.J.x N l 1   wXwXwX/././.",
"/././.wXwXwXo = y C e y.H.&                                                               O   $.K.v v f G   wXwXwX/././.",
"/././.wXwXwX. : p h ) :XF.o           O       O                         O O   . .         O   O.3Xn e <.5.. wXwXwX/././.",
"/././.wXwXwX# ; y I W.@Xf.&                                                                   O.7Xi U T.3.# wXwXwX/././.",
"/././.wXwXwX@ ; i G.$XM.h.<.w o , @ & U 1.:.>.1.D @ , , $ J 1.>.<.7.! 1 k z 1 j  .5.4.t.' x , =.8XJ h.`.1.. wXwXwX/././.",
"/././.wXwXwXo 3 3.:Xm.M..Xy.h c b w W  XM.b.}.f.S s B i L T.{.v.$XE.] ^ O./  .&X<X:X<XqXI.1X5X9XP.S.].x.,.# wXwXwX/././.",
"/././.wXwXwX. K j.N.c.$XF.A c n w Y ).}.`.OXW.! q C g J U.@Xb.{.=X[ e C n A S.>XXX'.-X5.n ..X.H 6.:X`.k.1.. wXwXwX/././.",
"/././.wXwXwX. <.k.b.}.W.I a N h S F.oXb.{.|.) l N h A a.}.b.{.:X5.q m C q 2..X'.b.oXi.t b c 4 Y |.{.b._.>.  wXwXwX/././.",
"/././.wXwXwX# <._.'._.W f C n D s.XXm.c.`.r.A n n j 1..X'.c.'.p.A t G h [ ).].c.].h.K h C j I Y.[.c.'.h.S   wXwXwX/././.",
"/././.wXwXwX. ( s.s.E 9 s x 7 ! D.p.w.p.>.e w s 0 j y.d.q.i.r.A 0 i y r 5.s.q.i.i.J 4 a a w ] s.i.q.i.Y 3   wXwXwX/././.",
"/././.wXwXwX    o .   . o   X - 6 % # # . O > X . + + # # . . . O > > O . . # # o O + .   X o . . # # # + O wXwXwX/././.",
"Q.Q.Q.wXwXwXwXwXwXwXwXwXwXwXwXwXwXwXwXwXwXwXwXwXwXwXwXwXwXwXwXwXwXwXwXwXwXwXwXwXwXwXwXwXwXwXwXwXwXwXwXwXwXwXwXwXwXQ.Q.Q.",
"Q.Q.Q.wXwXwXwXwXwXwXwXwXwXwXwXwXwXwXwXwXwXwXwXwXwXwXwXwXwXwXwXwXwXwXwXwXwXwXwXwXwXwXwXwXwXwXwXwXwXwXwXwXwXwXwXwXwXQ.Q.Q.",
"Q.Q.Q.wXwXwXwXwXwXwXwXwXwXwXwXwXwXwXwXwXwXwXwXwXwXwXwXwXwXwXwXwXwXwXwXwXwXwXwXwXwXwXwXwXwXwXwXwXwXwXwXwXwXwXwXwXwXQ.Q.Q.",
"Q.Q.Q.Q.Q.Q././././././././././././././././././././././././././././././././././././././././././././././././.Q.Q.Q.Q.Q.Q.",
"Q.Q.Q.Q.Q.Q././././././././././././././././././././././././././././././././././././././././././././././././.Q.Q.Q.Q.Q.Q.",
"Q.Q.Q.Q.Q.Q././././././././././././././././././././././././././././././././././././././././././././././././.Q.Q.Q.Q.Q.Q."
};
