/* XPM */
static char *result[] = {
/* columns rows colors chars-per-pixel */
"60 60 241 2 ",
"   c #030001",
".  c #0A0301",
"X  c #0B0A03",
"o  c #080609",
"O  c #0C0A0A",
"+  c #140C01",
"@  c #1B0E01",
"#  c #150B09",
"$  c #0D110A",
"%  c #131202",
"&  c #1C1403",
"*  c #181905",
"=  c #12130C",
"-  c #1A130C",
";  c #1B1B0B",
":  c #0C0C12",
">  c #0F1015",
",  c #181516",
"<  c #1B1B15",
"1  c #1B1B1C",
"2  c #230E06",
"3  c #231501",
"4  c #231A03",
"5  c #2B1C02",
"6  c #271C0A",
"7  c #231C13",
"8  c #231518",
"9  c #1C2312",
"0  c #2C2402",
"q  c #282408",
"w  c #362806",
"e  c #3C2D0A",
"r  c #3A320A",
"t  c #2E2A15",
"y  c #282318",
"u  c #2D2A1D",
"i  c #322A14",
"p  c #352B18",
"a  c #2D3219",
"s  c #383416",
"d  c #35321D",
"f  c #1B1625",
"g  c #1C1A22",
"h  c #231B25",
"j  c #1F2224",
"k  c #2A2423",
"l  c #2B2B23",
"z  c #2C242B",
"x  c #282828",
"c  c #342A25",
"v  c #352A2B",
"b  c #353323",
"n  c #3A3424",
"m  c #33342C",
"M  c #393A2A",
"N  c #2A2933",
"B  c #352E35",
"V  c #393835",
"C  c #442D05",
"Z  c #483809",
"A  c #533B09",
"S  c #463916",
"D  c #573C14",
"F  c #433826",
"G  c #413B33",
"H  c #3F493A",
"J  c #48420B",
"K  c #574509",
"L  c #4E4519",
"P  c #574718",
"I  c #5A5119",
"U  c #69550D",
"Y  c #675717",
"T  c #70551A",
"R  c #66611B",
"E  c #776619",
"W  c #4C4424",
"Q  c #554927",
"!  c #5B5023",
"~  c #48493A",
"^  c #544835",
"/  c #595637",
"(  c #6B572B",
")  c #685928",
"_  c #725B23",
"`  c #705A2D",
"'  c #645836",
"]  c #6B6424",
"[  c #776529",
"{  c #776737",
"}  c #736D31",
"|  c #3E3B42",
" . c #494445",
".. c #534D44",
"X. c #4C5448",
"o. c #585849",
"O. c #595857",
"+. c #625C48",
"@. c #645C56",
"#. c #5C6250",
"$. c #68644A",
"%. c #79704F",
"&. c #6A6757",
"*. c #716856",
"=. c #6A6766",
"-. c #746F66",
";. c #7A777D",
":. c #826829",
">. c #88762A",
",. c #92782A",
"<. c #8A7835",
"1. c #927A36",
"2. c #816D46",
"3. c #887747",
"4. c #957E45",
"5. c #867C5A",
"6. c #877B6A",
"7. c #847D7D",
"8. c #AD9116",
"9. c #9E8727",
"0. c #968437",
"q. c #A48C39",
"w. c #AC963C",
"e. c #B69C39",
"r. c #B8A425",
"t. c #B9A33A",
"y. c #D9BE17",
"u. c #D6B529",
"i. c #C7A936",
"p. c #D4AE33",
"a. c #CCB135",
"s. c #D6BA37",
"d. c #E5BE2D",
"f. c #DAC538",
"g. c #F5CF2F",
"h. c #F6D534",
"j. c #F5D43C",
"k. c #FAD43C",
"l. c #FBD839",
"z. c #F9E43C",
"x. c #988648",
"c. c #8C865A",
"v. c #968656",
"b. c #9B9351",
"n. c #A99449",
"m. c #B19B45",
"M. c #A89651",
"N. c #A89859",
"B. c #BAA343",
"V. c #B8A648",
"C. c #AEA75D",
"Z. c #BAA855",
"A. c #8C836B",
"S. c #9A8C69",
"D. c #888879",
"F. c #978A74",
"G. c #999373",
"H. c #A49863",
"J. c #B8AC6A",
"K. c #C6A845",
"L. c #CCB445",
"P. c #D6B646",
"I. c #C4A954",
"U. c #C8B659",
"Y. c #D4BB59",
"T. c #E0BF45",
"R. c #CC9869",
"E. c #C4AF6B",
"W. c #D3B966",
"Q. c #E3B96E",
"!. c #DBC447",
"~. c #DBC456",
"^. c #D7CE52",
"/. c #E7C645",
"(. c #F6CD43",
"). c #F7D646",
"_. c #FDDB45",
"`. c #FBD54B",
"'. c #FCDC4B",
"]. c #E5C95A",
"[. c #F2CE59",
"{. c #EAD35A",
"}. c #F7D756",
"|. c #FCDC55",
" X c #FCDC5B",
".X c #FDE24C",
"XX c #FEE354",
"oX c #FEE85A",
"OX c #D8C56A",
"+X c #CDC17F",
"@X c #D8C674",
"#X c #E6CA66",
"$X c #E9D368",
"%X c #F5D365",
"&X c #FBDC64",
"*X c #F8D96A",
"=X c #E3CB72",
"-X c #E4D073",
";X c #F6DB77",
":X c #FCE262",
">X c #FFE66A",
",X c #FCE376",
"<X c #807C81",
"1X c #848485",
"2X c #989182",
"3X c #B8B395",
"4X c #D7D096",
"5X c #E5D788",
"6X c #F3D487",
"7X c #F4DE88",
"8X c #F9E98C",
"9X c #CACBBE",
"0X c #CBCCC5",
"qX c #C8C9CA",
"wX c #CCCCCD",
"eX c #D0CDCC",
"rX c #C9D0C8",
"tX c #CDD1CC",
"yX c #D7D6CB",
"uX c #D3D3CD",
"iX c #C9CAD3",
"pX c #CCCBD2",
"aX c #D0CED2",
"sX c #CED3D6",
"dX c #D4D4D4",
"fX c #DBD6D4",
"gX c #D6D9D4",
"hX c #D9D9D4",
"jX c #D5D6DA",
"kX c #D9D6DA",
"lX c #D5D8DB",
"zX c #D9D9DA",
"xX c #E4DACA",
"cX c #E4DED9",
"vX c #E9E9D4",
"bX c #E4E2D9",
"nX c #D4CBE0",
"mX c #D7D7E3",
"MX c #E3DDE4",
"NX c #DCE2E2",
"BX c #E2E3E7",
/* pixels */
"R.R.R.R.R.R.Q.Q.Q.Q.Q.Q.Q.Q.Q.Q.Q.Q.Q.Q.Q.Q.Q.Q.Q.Q.Q.Q.Q.Q.Q.Q.Q.Q.Q.Q.Q.Q.Q.Q.Q.Q.Q.Q.Q.Q.Q.Q.Q.Q.Q.Q.Q.Q.R.R.R.R.R.R.",
"R.R.R.R.R.R.Q.Q.Q.Q.Q.Q.Q.Q.Q.Q.Q.Q.Q.Q.Q.Q.Q.Q.Q.Q.Q.Q.Q.Q.Q.Q.Q.Q.Q.Q.Q.Q.Q.Q.Q.Q.Q.Q.Q.Q.Q.Q.Q.Q.Q.Q.Q.Q.R.R.R.R.R.R.",
"R.R.R.R.R.R.Q.Q.Q.Q.Q.W.Q.Q.Q.Q.Q.Q.Q.Q.Q.Q.Q.Q.Q.Q.Q.Q.Q.Q.Q.Q.Q.Q.Q.Q.Q.Q.Q.Q.Q.Q.Q.Q.Q.Q.Q.Q.Q.Q.Q.Q.Q.Q.R.R.R.R.R.R.",
"R.R.R.6X6X6X6X6X6X6X6X6X6X6X6X6X6X6X6X6X6X6X6X6X6X6X6X6X6X6X6X6X6X6X6X6X6X6X6X6X6X6X6X6X6X6X6X6X6X6X6X6X6X6X6X6X6XR.R.R.",
"R.R.R.6X6X6X6X6X6X6X6X6X6X6X6X6X6X6X6X6X6X6X6X6X6X6X6X6X6X6X6X6X6X6X6X6X6X6X6X6X6X6X6X6X6X6X6X6X6X6X6X6X6X6X6X6X6XR.R.R.",
"R.R.R.6X6X6X6X6X6X6X6X6X6X6X6X6X6X6X6X6X6X6X6X6X6X6X6X6X6X6X6X6X6X6X6X6X6X6X6X6X6X6X6X6X6X6X6X6X6X6X6X6X6X6X6X6X6XR.R.R.",
"Q.Q.Q.6X6X6Xo   X   .       o o O . .           o o o O .   . 2 -     O O O o             o o X .         B 6X6X6XQ.Q.Q.",
"Q.Q.Q.6X6X6XX & r U E R ] L ; - < & q ) ] _ ] I q * ; * 5 ) E [ } ) 4 * < 6 5 Y E E R ` t < 1 7 4 ) { ` q k 6X6X6XQ.Q.Q.",
"Q.Q.Q.6X6X6X+ 5 1./.!.^.@Xc./ ../ ~ 0.~.!.!.OXx.W ~ ~ W >.Y.f.f.].b.W H M r E s.y.y.f.0.r l l 0 U P.s.P.A y 6X6X6XQ.Q.Q.",
"Q.Q.Q.6X6X6X. P @X8X7X8XE.F.2XD.A.J.7X>X&X,XJ.%.*.&.+.b.;X X`.:XW.' .. .F [ =X}.(.`.i.K m | d Y ~.(.g.p.A y 6X6X6XQ.Q.Q.",
"Q.Q.Q.6X6X6X. ` $X,X-XJ.s t u 6 K !.}./.:XU.Z t v q L P.).j.}.~.I F ~ l J L.}.k.`.^.Y t v n r K. Xk.g.r.w x 6X6X6XQ.Q.Q.",
"Q.Q.Q.6X6X6X. ) #X,X@XQ d M M Q W.:X_.XX].R l V M A I.>X'.XX$X] e ~ ~ M Z.>X[.|.&X} w n V F M.&Xk.l.[.E + N 6X6X6XQ.Q.Q.",
"Q.Q.Q.6X6X6X  ) -X7X$.c l y 9 $.Z.t.i.t.Y 4 h N 1 { Z.t.B.Z.[ 5 8 x M } C.V.B.I.:.5 y y 7 Q Z.).h.XXw.w # x 6X6X6XQ.Q.Q.",
"Q.Q.Q.6X6X6X. ) 5XH.a V g ~ D.G.G.H.F.6.*.&.=.=.=.-.A.S.S.S.6.7.1X1X1XG.G.v.N.S.A.<X1X7.D.A.E u..XU.P q = x 6X6X6XQ.Q.Q.",
"Q.Q.Q.6X6X6X  ' +X%.a V 1 A.vXhXMXMXmXnXeXyXyXyXfXdXzXMXMXcXbXbXNXNXBXbXxXvXbXxXzXBXBXNXbXxX1.s.{.) p u $ N 5X6X6XQ.Q.Q.",
"Q.Q.Q.6X6X6X. F c.=.l d 6 ;.vXtXnXjXwXqX9X9X9X9X0X0XhXhXmXzXfXzXhXjXgXkXzXlXzXhXhXgXlXdXjXxX3.W.>.p B l $ N 7X6X6XQ.Q.Q.",
"Q.Q.Q.6X6X6XO + +.-.k S { G.bXuXlXdX0X9X0XqXpXiXiXdXgXgXgXhXzXzXmXlXlXgXgXmXlXhXhXgXgXgXhXkX6.5.e n M y $ l 6X6X6XQ.Q.Q.",
"Q.Q.Q.6X6X6XO o @.=.6 4.M.c.bXjXgXtXqXpXiXiXiXiXiXmXmXjXgXgXkXmXlXgXlXgXgXmXlXzXhXhXhXhXzXzX&.t v n p F t k 6X6X6XQ.Q.Q.",
"Q.Q.Q.6X6X6XO O O.+.U $Xt.v.cXjXjXeX0XeXiXiXqXqXdXgXlXzXhXzXkXfXgXyXhXkXzXfXfXzXkXkXzXkXjXNXX.9 V d J b.S k 6X6X6XQ.Q.Q.",
"Q.Q.Q.6X6X6X> o o.{ L.oXr.v.MXjXiXwXwX0XwXwXqX0XuXgXhXhXkXhXfXfXgXdXhXjXhXhXhXzXjXkXkXkXzXmXX.1 m e 9.L.r x 6X6X6XQ.Q.Q.",
"Q.Q.Q.6X6X6XO + ( OX`._.r.5.cXdXqXqXwXwXwXqXqXaXjXdXjXzXkXdXhXdXzXdXkXzXjXzXjXhXkXgXdXkXdXzXX.x t >.[.a.Z x 6X6X6XQ.Q.Q.",
"Q.Q.Q.6X6X6XO + <.;X)..Xt.c.cXyX0XqXwXwXwXqXwXdXhXkXdXhXdXzXdXzXdXzXhXdXdXdXdXjXkXdXzXdXdXbXo.8 ( ].k.p.Z k 6X6X6XQ.Q.Q.",
"Q.Q.Q.6X6X6X+ S U.XXj.&X0.6.cX0X0XeXeXwXwXwXuXkXzXzXjXdXdXjXdXzXzXzXzXdXhXdXdXhXdXhXdXdXdXzXo.w Y.`.g.p.Z k 6X6X6XQ.Q.Q.",
"Q.Q.Q.6X6X6X  ] ].).}.~.C -.zX0XeXeXeXeXqXeXdXdXdXzXhXdXdXdXdXzXzXdXzXhXdXdXdXkXdXdXzXdXdXzX' ,.|.h.h.p.e N 6X6X6XQ.Q.Q.",
"Q.Q.Q.6X6X6X. _ ].`.{.E & ;.kXqXeXpXaXwXqXwXjXzXdXkXdXdXdXdXzXzXdXdXdXzXdXdXdXdXdXdXdXdXyXhX2.s.l.l.`.,.2 x 6X6X6XQ.Q.Q.",
"Q.Q.Q.6X6X6X. _ T.;X0.w < ;.mXwXaXpXaXtXwXdXzXhXdXhXjXdXdXdXdXzXdXdXjXdXdXdXdXdXdXdXdXdXdXyX3.!.l.'.L.C @ k 6X6X6XQ.Q.Q.",
"Q.Q.Q.6X6X6X. _ =XC.r n , =.mXqXaXqXaXwXeXdXzXdXdXdXzXdXdXdXzXkXdXdXdXdXdXdXdXdXdXdXdXdXdXyX<.a.|.].Y y > x 6X6X6XQ.Q.Q.",
"Q.Q.Q.6X6X6X  ` U.I t V > &.cXqXwXwXuXwXdXdXjXdXdXdXdXdXdXdXhXdXdXdXdXdXuXdXdXdXdXdXdXyXhX0Xx.P.*X{ p V < k 6X6X6XQ.Q.Q.",
"Q.Q.Q.6X6X6X. ^ } n m M ; *.fXqXqXrXtXpXdXdXdXdXdXdXdXdXdXdXdXdXtXdXdXdXdXhXdXjXdXdXdXdXhXyXc.=Xn.c ~ M 9 l 7X6X6XQ.Q.Q.",
"Q.Q.Q.6X6X6XX 7 m V c s ! -.uXiXiXwXwXwXdXdXdXdXdXdXdXdXdXdXdXdXdXdXdXdXdXkXdXdXdXdXzXdXdXyXc.N.Q z  .d 9 m 6X6X6XQ.Q.Q.",
"Q.Q.Q.6X6X6X= # v G q } N.5.yXqXwXdXtXdXdXdXdXdXdXdXdXdXdXdXjXdXaXdXdXdXdXdXdXdXdXdXhXdXdXfX*.' F G ..p d x 6X6X6XQ.Q.Q.",
"Q.Q.Q.6X6X6Xo = c c P OXZ.%.yXqX0XeXwXaXdXdXdXdXdXdXdXdXdXdXdXdXdXdXdXdXjXdXdXdXdXdXdXdXdXkXO. .| V L <.^ y 6X6X6XQ.Q.Q.",
"Q.Q.Q.6X6X6X: - p A m.oXt.2.fXqXuXwXpXdXwXdXdXdXdXdXdXdXuXdXdXdXdXdXdXdXdXtXdXhXdXdXhXaXdXzXO.O.H d <.W.D k 6X6X6XQ.Q.Q.",
"Q.Q.Q.6X6X6X> # w 4.|.z.r.3.yXqXeXpXdXdXaXdXdXpXdXdXpXdXpXdXdXdXaXdXdXdXdXaXdXdXdXdXdXaXdXjXO.O.M ] #XP.Z k 6X6X6XQ.Q.Q.",
"Q.Q.Q.6X6X6XO + T [.k.z.t.2.fXwXwXwXdXtXwXdXdXdXdXdXdXuXpXuXdXdXdXdXdXdXdXaXdXdXtXdXdXtXdXkXO...I U.}.p.A k 6X6X6XQ.Q.Q.",
"Q.Q.Q.6X6X6X  C i.`.l.XXq.%.fXpXwXwXwXdXuXdXdXwXtXdXaXwXdXwXdXdXdXdXdXtXdXtXdXdXaXdXtXwXaXdX..$.Z.&X(.p.A 7 6X6X6XQ.Q.Q.",
"Q.Q.Q.6X6X6X. _ d.k.`.*XP $.kXqXdXtXuXtXwXdXuXuXdXdXwXdXwXuXtXdXwXdXdXwXdXdXjXdXeXdXaXeXdXwX~ b.,X}.`.P.Z z 6X6X6XQ.Q.Q.",
"Q.Q.Q.6X6X6X. _ d.k.*X4.3 -.mXnXsXgXgXdXdXjXjXkXhXaXdXdXpXsXsXzXdXjXuXkXzXdXsXlXjXkXfXdXkXwX$.Q.&X).%Xe.0 x 6X6X6XQ.Q.Q.",
"Q.Q.Q.6X6X6X  _ d.|.m.d q n &.O.#.=.&.o.+.&.&.$.$.O.O.#.O.O.$.%.&.*.o.O.=.$.o.&.@.$.+.@.=.o.! -X`..X].Q # k 6X6X6XQ.Q.Q.",
"Q.Q.Q.6X6X6X  _ T.Y.J d 7 ) C.J * ; 4 <.V.t.t.B.) @ 8 * Y C.V.t.V.x.q 8 - S N.V.t.K.n.w & 4 L -X|.{.:.0 = v 6X6X6XQ.Q.Q.",
"Q.Q.Q.6X6X6X  { W.( t V ; 0.8Xw.3 < - _ *XXX_.XXY.e * * C =XoX_.XX;XP & 6 5 Z.oXl.'.;X1.2 6 P -X,Xx.r u - x 6X6X6XQ.Q.Q.",
"Q.Q.Q.6X6X6X  ' :.i v V ; >.:X^.P - f 6 m. Xk.g.&X{ % 1 - >.*Xg.l.:XM.q < # I $Xl.g. XW.w ; Q 5XE.d V k % x 6X6X6XQ.Q.Q.",
"Q.Q.Q.6X6X6XX q S n B m Z 9. X Xw.* 1 = ) #Xk.g. XU.i , , e OX|.`.}.-XL = g & m. Xk.`.*X>.3 Q 4X' c B l X x 6X6X6XQ.Q.Q.",
"Q.Q.Q.6X6X6XX # t F p Q 0.8._.).{.J * * 5 I.}.(.(.:X[ % 9 @ 1.&Xj.j.}.w.& < # T %X(.g.`.Y.w p 3X/ v V t ; x 6X6X6XQ.Q.Q.",
"Q.Q.Q.6X6X6Xo = k F S U.i.8.oX|.,Xn.* 7 3 T *X:X.XoX~.r ; 3 A Q. X.XXX&XI % 4 5 I.*X'.'.>X1.& A.&.z p ] Z h 6X6X6XQ.Q.Q.",
"Q.Q.Q.6X6X6XO = l e q.&Xi.U 0.4.x.%.a y 2 w { 1.0.>.x.F 7 7 3 ( 1.,.1.x.' 9 t 4 D 1.,.>.3.%.% D.&.y T K.Z z 6X6X6XQ.Q.Q.",
"Q.Q.Q.6X6X6XO = y } {.'.i.Z +     .   & e w 0 w %     o   * r 0 0 w +         X y 0 q q $ o   D.*.S U.a.A h 6X6X6XQ.Q.Q.",
"Q.Q.Q.6X6X6X# + P /.'.k./.w.r 9 x y C m.s.u.s.V.S 7 z y r w.a.u.!.E.' F ~ H / H.OX~.^.@Xc.#.#.3X2.w.|.i.A k 6X6X6XQ.Q.Q.",
"Q.Q.Q.6X6X6Xo 5 w.|.).`.%X_ i m b r B.XX).`.[.[ a M M Z n.&X).'.$X<.F  . .^ C.;X|.:X8XN.*.<X<X6.N.%Xj.a.C c 6X6X6XQ.Q.Q.",
"Q.Q.Q.6X6X6X  ) s._.).%X1.w m M r 0.|.(.}.%Xx.p m d q ,. X`.).&Xq.w c m p :.[.l.h. XN.p z z 6 Y %X`.g.s.A z 6X6X6XQ.Q.Q.",
"Q.Q.Q.6X6X6X. _ f.k.|.e.C M V a E [.z.h.XXB.Z d H 0 _ ].k.j..XL.J s F b I ].`.g.l.P.P d V s K ~.`.j.).e.5 v 6X6X6XQ.Q.Q.",
"Q.Q.Q.6X6X6X. ` P.s.e.A e m l Q Z.f.u.f.t.K s d a L m.!.s.P.K.K r d n Q N.!.d.f.K.T e b s J q.!.s.f.a.U 2 h 6X6X6XQ.Q.Q.",
"Q.Q.Q.6X6X6X. w D D w 2 * = # i D A A J w % * = + 0 D A A D C @ - - 7 F D Z A K C & - = % 4 S P Z A Z & . x 6X6X6XQ.Q.Q.",
"Q.Q.Q.6X6X6XN h 8 8 8 h , f 1 , , 8 8 f g j g f f 8 8 8 8 8 f h f h v v < , < - 8 < 1 1 g 1 - - , f h k < X.6X6X6XQ.Q.Q.",
"R.R.R.6X6X6X6X6X6X6X6X6X6X6X6X6X6X6X6X6X6X6X6X6X6X6X6X6X6X6X6X6X6X6X6X6X6X6X6X6X6X6X6X6X6X6X6X6X6X6X6X6X6X6X6X6X6XR.R.R.",
"R.R.R.6X6X6X6X6X6X6X6X6X6X6X6X6X6X6X6X6X6X6X6X6X6X6X6X6X6X6X6X6X6X6X6X6X6X6X6X6X6X6X6X6X6X6X6X6X6X6X6X6X6X6X6X6X6XR.R.R.",
"R.R.R.6X6X6X6X6X6X6X6X6X6X6X6X6X6X6X6X6X6X6X6X6X6X6X6X6X6X6X6X6X6X6X6X6X6X6X6X6X6X6X6X6X6X6X6X6X6X6X6X6X6X6X6X6X6XR.R.R.",
"R.R.R.R.R.R.Q.Q.Q.Q.Q.Q.Q.Q.Q.Q.Q.Q.Q.Q.Q.Q.Q.Q.Q.Q.Q.Q.Q.Q.Q.Q.Q.Q.Q.Q.Q.Q.Q.Q.Q.Q.Q.Q.Q.Q.Q.Q.Q.Q.Q.Q.Q.Q.R.R.R.R.R.R.",
"R.R.R.R.R.R.Q.Q.Q.Q.Q.Q.Q.Q.Q.Q.Q.Q.Q.Q.Q.Q.Q.Q.Q.Q.Q.Q.Q.Q.Q.Q.Q.Q.Q.Q.Q.Q.Q.Q.Q.Q.Q.Q.Q.Q.Q.Q.Q.Q.Q.Q.Q.Q.R.R.R.R.R.R.",
"R.R.R.R.R.R.Q.Q.Q.Q.Q.Q.Q.Q.Q.Q.Q.Q.Q.Q.Q.Q.Q.Q.Q.Q.Q.Q.Q.Q.Q.Q.Q.Q.Q.Q.Q.Q.Q.Q.Q.Q.Q.Q.Q.Q.Q.Q.Q.Q.Q.Q.Q.Q.R.R.R.R.R.R."
};
