/* XPM */
static char *result[] = {
/* columns rows colors chars-per-pixel */
"60 60 241 2 ",
"   c #010003",
".  c #0C0301",
"X  c #070A05",
"o  c #0D0A03",
"O  c #03020B",
"+  c #0B060B",
"@  c #07090E",
"#  c #0A0A0B",
"$  c #140300",
"%  c #1B0500",
"&  c #140B03",
"*  c #1C0C00",
"=  c #150A0B",
"-  c #0F1705",
";  c #141303",
":  c #1B1402",
">  c #1D1A02",
",  c #1B130B",
"<  c #15190A",
"1  c #1C1B0B",
"2  c #020112",
"3  c #0D0912",
"4  c #140D15",
"5  c #0B1412",
"6  c #1B1412",
"7  c #1C1A13",
"8  c #181916",
"9  c #250F06",
"0  c #221503",
"q  c #241B00",
"w  c #2B1E03",
"e  c #261709",
"r  c #241A0B",
"t  c #331F08",
"y  c #231D12",
"u  c #251B19",
"i  c #1C2416",
"p  c #2C2504",
"a  c #272709",
"s  c #26230C",
"d  c #2B240D",
"f  c #342502",
"g  c #3B2D04",
"h  c #342609",
"j  c #322B0D",
"k  c #3B2D0B",
"l  c #3A3408",
"z  c #272617",
"x  c #2B2B14",
"c  c #2B241C",
"v  c #2D2A1B",
"b  c #342C12",
"n  c #362A17",
"m  c #2C341A",
"M  c #3B3313",
"N  c #363318",
"B  c #3B341A",
"V  c #1B1624",
"C  c #1C1A23",
"Z  c #2F1F21",
"A  c #2E2526",
"S  c #2C2A24",
"D  c #2D2B2B",
"F  c #342C24",
"G  c #352A29",
"H  c #2D3426",
"J  c #373725",
"K  c #3B3623",
"L  c #3C3A25",
"P  c #34312A",
"I  c #3A352C",
"U  c #2A2B34",
"Y  c #362C37",
"T  c #2E3239",
"R  c #343333",
"E  c #393636",
"W  c #483906",
"Q  c #47310B",
"!  c #42340B",
"~  c #453916",
"^  c #523C16",
"/  c #473924",
"(  c #443B2C",
")  c #433C37",
"_  c #3B4324",
"`  c #474208",
"'  c #59480E",
"]  c #4D4415",
"[  c #574916",
"{  c #59511D",
"}  c #624A0C",
"|  c #634E18",
" . c #64541C",
".. c #695B18",
"X. c #735D1C",
"o. c #6D6419",
"O. c #74631D",
"+. c #796619",
"@. c #4A4329",
"#. c #564927",
"$. c #5A5425",
"%. c #484336",
"&. c #43433A",
"*. c #544D3E",
"=. c #585636",
"-. c #6C5423",
";. c #695A27",
":. c #685A34",
">. c #6C6625",
",. c #796624",
"<. c #74632C",
"1. c #7E732B",
"2. c #6A6339",
"3. c #79693A",
"4. c #797339",
"5. c #3E3843",
"6. c #463E48",
"7. c #4B4644",
"8. c #5E5E47",
"9. c #555251",
"0. c #665E59",
"q. c #716A50",
"w. c #706A67",
"e. c #826D1B",
"r. c #866D2A",
"t. c #837325",
"y. c #84722C",
"u. c #8A7A2D",
"i. c #90782F",
"p. c #857632",
"a. c #8B7B34",
"s. c #887738",
"d. c #8B7B3B",
"f. c #937C3A",
"g. c #887B46",
"h. c #94830C",
"j. c #988219",
"k. c #A7911D",
"l. c #B1901A",
"z. c #9B8423",
"x. c #968529",
"c. c #9B842A",
"v. c #98853A",
"b. c #998E3A",
"n. c #A99228",
"m. c #AD922E",
"M. c #B59527",
"N. c #A48E36",
"B. c #A89637",
"V. c #BAA939",
"C. c #D9BC1A",
"Z. c #C9A72B",
"A. c #C5AB37",
"S. c #CBB53B",
"D. c #D9BC38",
"F. c #E4BA23",
"G. c #DBC32B",
"H. c #DAC234",
"J. c #F7D62B",
"K. c #E8C738",
"L. c #F0CC32",
"P. c #F7D836",
"I. c #F4D43B",
"U. c #FBD43B",
"Y. c #868147",
"T. c #998845",
"R. c #9B954B",
"E. c #948D57",
"W. c #A18C46",
"Q. c #AA9849",
"!. c #B79C47",
"~. c #AE9A54",
"^. c #B9A548",
"/. c #B5A956",
"(. c #BAB15B",
"). c #979074",
"_. c #A79D66",
"`. c #AC9E77",
"'. c #BBAE66",
"]. c #B6AD7A",
"[. c #C6AB4A",
"{. c #CBB649",
"}. c #D4B746",
"|. c #C7AB55",
" X c #CCB659",
".X c #D3B956",
"XX c #CC9869",
"oX c #C9B566",
"OX c #D2BD69",
"+X c #D3BF75",
"@X c #E3B96E",
"#X c #DAC649",
"$X c #CDC25D",
"%X c #D7C55A",
"&X c #E7C844",
"*X c #F9CE42",
"=X c #F6CD4A",
"-X c #F5D444",
";X c #FAD344",
":X c #F4DA46",
">X c #FBDA44",
",X c #F4D44C",
"<X c #FCD44C",
"1X c #FDDB4B",
"2X c #E6C85A",
"3X c #ECD45A",
"4X c #F4D352",
"5X c #FBD552",
"6X c #FCDC52",
"7X c #F8DA5A",
"8X c #FCDB5C",
"9X c #FBE146",
"0X c #F4E257",
"qX c #FBE354",
"wX c #FCE25A",
"eX c #CEC566",
"rX c #D9C369",
"tX c #D6CB79",
"yX c #E4CD62",
"uX c #E8C966",
"iX c #F1CD6C",
"pX c #E6D266",
"aX c #EBD363",
"sX c #F8D867",
"dX c #FDDC64",
"fX c #FBDD6C",
"gX c #E7D679",
"hX c #F8D973",
"jX c #FCE463",
"kX c #FAE56A",
"lX c #FCE778",
"zX c #99958B",
"xX c #A19D94",
"cX c #9FA093",
"vX c #AEA89B",
"bX c #CEB184",
"nX c #CAC387",
"mX c #F3D487",
"MX c #F5DE90",
"NX c #FAE584",
"BX c #FAEA91",
/* pixels */
"XXXXXXXXXXXX@X@X@X@X@X@X@X@X@X@X@X@X@X@X@X@X@X@X@X@X@X@X@X@X@X@X@X@X@X@X@X@X@X@X@X@X@X@X@X@X@X@X@X@X@X@X@X@XXXXXXXXXXXXX",
"XXXXXXXXXXXX@X@X@X@X@X@X@X@X@X@X@X@X@X@X@X@X@X@X@X@X@X@X@X@X@X@X@X@X@X@X@X@X@X@X@X@X@X@X@X@X@X@X@X@X@X@X@X@XXXXXXXXXXXXX",
"XXXXXXXXXXXX@X@X@X@X@X@X@X@X@X@X@X@X@X@X@X@X@X@X@X@X@X@X@X@X@X@X@X@X@X@X@X@X@X@X@X@X@X@X@X@X@X@X@X@X@X@X@X@XXXXXXXXXXXXX",
"XXXXXXmXmXmXmXmXmXmXmXmXmXmXmXmXmXmXmXmXmXmXmXmXmXmXmXmXmXmXmXmXmXmXmXmXmXmXmXmXmXmXmXmXmXmXmXmXmXmXmXmXmXmXmXmXmXXXXXXX",
"XXXXXXmXmXmXmXmXmXmXmXmXmXmXmXmXmXmXmXmXmXmXmXmXmXmXmXmXmXmXmXmXmXmXmXmXmXmXmXmXmXmXmXmXmXmXmXmXmXmXmXmXmXmXmXmXmXXXXXXX",
"XXXXXXmXmXmXmXmXmXmXmXmXmXmXmXmXmXmXmXmXmXmXmXmXmXmXmXmXmXmXmXmXmXmXmXmXmXmXmXmXmXmXmXmXmXmXmXmXmXmXmXmXmXmXmXmXmXXXXXXX",
"@X@X@XmXmXmXO + .       3 6 &   # X             o   X # o .   .       o +   o , r .     . X 3   o         O mXmXmX@X@X@X",
"@X@X@XmXmXmX. 0 g o.o...>.:.m < 1 : f  .O.X.,.$.p , 1 1 q [ X.X.;.<.j < 7 r p  .r.X...O.] > 1 z 0 ! <.<.#.$ mXmXmX@X@X@X",
"@X@X@XmXmXmX. f x.#XH.#X%X_.=.*.7.@.s.rX#X#X%XQ.#.7.7.( ,.{.&XD.#X^.$.L &.K  .{.D.C.G.V.` x u n Q N.D.}.v.$ mXmXmX@X@X@X",
"@X@X@XmXmXmX. #.tXNXNXBXbX).cXxX).].MXlXsXhXtXq.w.w.0.g.gXfX<XdXuXX.@.7.%.=.oXdXU.5X3X+.! 5.E ~ N.>XJ.L.c.$ mXmXmX@X@X@X",
"@X@X@XmXmXmX  <.iXlXhX]./ D 5.E ^  XsX=XdX@X-.Z G v ! ^.8X=X5XiX3.Z R U c W.fX<XU.5Xv.n R T c r.3XI.J.K.r.. mXmXmX@X@X@X",
"@X@X@XmXmXmX. X.uXNXrX{ x J %.$.{.1XU.1X3Xt.k I J l b.wXU.>X8XN.l L J N u.sX1X>XqXV.W J R m ;.2X>XI.1XA.! $ mXmXmX@X@X@X",
"@X@X@XmXmXmX. ,.pXMXy.d J S s g.eXA.S.{.u.d c z d $.|.{.S.}.N.g x x a ` /..X{.{.!.W u F i m Q.K.J.>XaX..: & mXmXmX@X@X@X",
"@X@X@XmXmXmX. o.tX`.b R v e t ^ =.[ ] [ l k M M x / / ^ ' } W ! M x z B =.-.' } ^ Q ! d x x W l.;XfXd.j y   mXmXmX@X@X@X",
"@X@X@XmXmXmX  >.tXq.U 5.z <.+X;.F G 1 4.eX#X{.$XT.w y e ^ '. X{. X(.~ 1 B j E..X}.{.OX3.0 y f n.dX~.B S C + mXmXmX@X@X@X",
"@X@X@XmXmXmX. [ E.w.U E d f.NXV.f u : ] yXqX9X6XyX] : < s (.jXU.9X0Xv.; z , ,.jX9X>XqX Xh , h W.oX] P D C @ mXmXmX@X@X@X",
"@X@X@XmXmXmX= > 8.w.D K ;.m.dX3X| * u 0 W.dXU.*XdXW.q 1 ;  .uX;XL.5XrXl < 8 w [.6XU.;XdX1.: b E.2.x E S 7 . mXmXmX@X@X@X",
"@X@X@XmXmXmX4 = 0.0.p p.^.M.:X9X^.0 6 , ^ uX<X*X<XyX] ; 1 q !.8XU.;XjXa.; z * +.sX5X=X8X{.l N @.M m B j B o mXmXmX@X@X@X",
"@X@X@XmXmXmX= 4 0.8.' pXZ.M.6X-XpX{ - < > b.0XI.P.7Xb.: 7 *  .aX-XI.>X#Xk & 1 p  X6XU.*X7Xo.r A P P k ;.v.  mXmXmX@X@X@X",
"@X@X@XmXmXmXX 7 8.2.^.dXZ.M.lX8XlX'.a 1 > ] gXqXqXwXgX#.r r q /.kXqXqXlXT.: y : >.kXqX8XjXeXM A ) n ' [.b.. mXmXmX@X@X@X",
"@X@X@XmXmXmX3 - =.].3X<XA...s.a.v.q.d , , > <.d.d.d.g.#.* r ; / f.a.s.g.q.r , ; i 4.a.a.s.g.B u F ! !.4Xh.. mXmXmX@X@X@X",
"@X@X@XmXmXmX@ ; v.NX=X1XS.*         O O O               O                 O O           .     y M f.hXD.j.$ mXmXmX@X@X@X",
"@X@X@XmXmXmX& ` {.8X;X6XV.,           O 2   @ 2       O O O     @ O       O O         O     O q +.2X<XL.j.$ mXmXmX@X@X@X",
"@X@X@XmXmXmX: ,.K.>X:XyX .1                     X     X     X       X         O               l #X>XU.K.i.. mXmXmX@X@X@X",
"@X@X@XmXmXmX% t.&X,XsXi.~ 8                                           O             O       . r.8X;X5X2X' . mXmXmX@X@X@X",
"@X@X@XmXmXmX* r.#XfXQ.W ) @                           O   O O           O                   $ N.:X<XkXi.q . mXmXmX@X@X@X",
"@X@X@XmXmXmX$ y.yXoX~ &.6.+                       O                             O           % c.>X8X Xg d   mXmXmX@X@X@X",
"@X@X@XmXmXmX. s.oX<.v _ )                                       O             O       O     0 z.0XeX:.F V # mXmXmX@X@X@X",
"@X@X@XmXmXmX& 3.d.B D 7.(                       O                     O     O     O         0 b.gX3.@.R C # mXmXmX@X@X@X",
"@X@X@XmXmXmX, %.L R T %.$.&                           O O   O   O                           e ~.R.( 6.D 1   mXmXmX@X@X@X",
"@X@X@XmXmXmX< D S E F :._.,                   O         O               O             O     : q.#.%.7.v a   mXmXmX@X@X@X",
"@X@X@XmXmXmX8 D S K l oXoX:         O                               O           O           & m @.%./ ` 2.. mXmXmX@X@X@X",
"@X@X@XmXmXmX8 P c k b.kX[.0                                         O       O         O       P 7.@.W N.T.. mXmXmX@X@X@X",
"@X@X@XmXmXmX8 D 0 1.2XwXS.0                                 O                   O             E 9./ i.&Xx.& mXmXmX@X@X@X",
"@X@X@XmXmXmXS s ] %X5X6X}.r                               O             O                     E *.3.pXK.j.$ mXmXmX@X@X@X",
"@X@X@XmXmXmX7 g n.8X-X7X Xn                           O       O       O       O     O         J 3.OXdXK.j.$ mXmXmX@X@X@X",
"@X@X@XmXmXmX9 X.H.P.:XfXs.=                       O             O                         O   B rXkX,XL.z.$ mXmXmX@X@X@X",
"@X@X@XmXmXmX% X.G.J.6X^.Q .                         O                   O         O           3.NX,X<X&Xe.$ mXmXmX@X@X@X",
"@X@X@XmXmXmX. e.F.1X.X[ ( 6 O                     O     O         O                         . R.lX4XwX!.f $ mXmXmX@X@X@X",
"@X@X@XmXmXmX. +.K.3Xo.B ) #                                   O             O     O X   X   $ W.kX4X2X' 9 o mXmXmX@X@X@X",
"@X@X@XmXmXmX  >.OXi.g %.R       O       O                                                   . W.NXaXt.a u X mXmXmX@X@X@X",
"@X@X@XmXmXmX  4.T.~ F ) H                                                             O     . R.BXW.l R V 3 mXmXmX@X@X@X",
"@X@X@XmXmXmX  #.~ G Y E _ <                                             O                     _.nX! J U C + mXmXmX@X@X@X",
"@X@X@XmXmXmXX 1 c Y G ~ Y.v       O                                                     2   X ).).c 5.S 1 X mXmXmX@X@X@X",
"@X@X@XmXmXmX  7 Z G n g.'.:                   .       +                                   .   8.zXF I M ~ . mXmXmX@X@X@X",
"@X@X@XmXmXmX+ 8 z k X.hX{.:   .       .   .               X   .                     .         %.zXH k +.Y.. mXmXmX@X@X@X",
"@X@X@XmXmXmX+ i i ]  XdXZ.0       O       .     X                                 .   .   .   &.cXx | .Xx.. mXmXmX@X@X@X",
"@X@X@XmXmXmX+ 6 d !.6XU.D.u.j ; 5 - * { y.t.t.p.~ ; 4 = ; W t.e.t.a.$.> 8 C 6 j 4.p.y.4.2.s # 9.cX` |.&Xx.% mXmXmX@X@X@X",
"@X@X@XmXmXmX. 0 r.dXU.U.3XW.k H H x O.2X;XI.,X^.` m H M ' {.,X-X<X%X>.=.9.0.q.rXkXfXkXNX].).zXvXxXB.wXK.c.$ mXmXmX@X@X@X",
"@X@X@XmXmXmX  ' }.U.J.5X|.W N L N [ @X8X;X1X2X{ b R P ~ |.jXU.;XaX<.A U E N N.dX4X5XhXT.K 5.7./ f.iXU.L.j.$ mXmXmX@X@X@X",
"@X@X@XmXmXmX. +.D.J.<X2X| n Y n ! ^.8X*X<X4X,.b P P l T.sX;X;X8Xv.n Y E j 1.7X-X*X8X!.Q N G d } 2X<XU.&Xx.$ mXmXmX@X@X@X",
"@X@X@XmXmXmX. +.H.-X2Xp.M E E ~ c.6XJ.L.4Xz.! K L B 1.2XI.L.-XV.` B E J o.#XI.-X=X|.} ~ ) K [ [.>XJ.-XS.` . mXmXmX@X@X@X",
"@X@X@XmXmXmX. ;.B.B.,.h z c s ^ ~.m.k.M.x.l a a s l v.B.k.n.n.W p x s j v.B.k.n.n.[ p c z a >.Q.k.l.B.X.w o mXmXmX@X@X@X",
"@X@X@XmXmXmX  . & $ & o X X X 6 A 9 % $   X # = = + $ * % % % $ & = # 4 u r % % % o + 4 @ X o . $ 9 $ % $   mXmXmX@X@X@X",
"XXXXXXmXmXmXmXmXmXmXmXmXmXmXmXmXmXmXmXmXmXmXmXmXmXmXmXmXmXmXmXmXmXmXmXmXmXmXmXmXmXmXmXmXmXmXmXmXmXmXmXmXmXmXmXmXmXXXXXXX",
"XXXXXXmXmXmXmXmXmXmXmXmXmXmXmXmXmXmXmXmXmXmXmXmXmXmXmXmXmXmXmXmXmXmXmXmXmXmXmXmXmXmXmXmXmXmXmXmXmXmXmXmXmXmXmXmXmXXXXXXX",
"XXXXXXmXmXmXmXmXmXmXmXmXmXmXmXmXmXmXmXmXmXmXmXmXmXmXmXmXmXmXmXmXmXmXmXmXmXmXmXmXmXmXmXmXmXmXmXmXmXmXmXmXmXmXmXmXmXXXXXXX",
"XXXXXXXXXXXX@X@X@X@X@X@X@X@X@X@X@X@X@X@X@X@X@X@X@X@X@X@X@X@X@X@X@X@X@X@X@X@X@X@X@X@X@X@X@X@X@X@X@X@X@X@X@X@XXXXXXXXXXXXX",
"XXXXXXXXXXXX@X@X@X@X@X@X@X@X@X@X@X@X@X@X@X@X@X@X@X@X@X@X@X@X@X@X@X@X@X@X@X@X@X@X@X@X@X@X@X@X@X@X@X@X@X@X@X@XXXXXXXXXXXXX",
"XXXXXXXXXXXX@X@X@X@X@X@X@X@X@X@X@X@X@X@X@X@X@X@X@X@X@X@X@X@X@X@X@X@X@X@X@X@X@X@X@X@X@X@X@X@X@X@X@X@X@X@X@X@XXXXXXXXXXXXX"
};
