/* XPM */
static char *result[] = {
/* columns rows colors chars-per-pixel */
"60 60 243 2 ",
"   c #010001",
".  c #0B0301",
"X  c #060805",
"o  c #0C0A03",
"O  c #02020A",
"+  c #0A040D",
"@  c #0B0A0A",
"#  c #130501",
"$  c #1A0501",
"%  c #130C02",
"&  c #1A0D01",
"*  c #150B0A",
"=  c #0D1307",
"-  c #141203",
";  c #1B1302",
":  c #1B1A03",
">  c #14120C",
",  c #1B150B",
"<  c #151C0C",
"1  c #1C1C0C",
"2  c #0D0811",
"3  c #140C15",
"4  c #181815",
"5  c #1D1C14",
"6  c #221B01",
"7  c #2C1409",
"8  c #241908",
"9  c #241B18",
"0  c #1D2109",
"q  c #1C2114",
"w  c #2B2204",
"e  c #272309",
"r  c #2D2B0C",
"t  c #352707",
"y  c #332B0D",
"u  c #363307",
"i  c #3C330B",
"p  c #222213",
"a  c #2C2513",
"s  c #29281A",
"d  c #362A15",
"f  c #332D1A",
"g  c #2C321A",
"h  c #393419",
"j  c #1D1D25",
"k  c #251E20",
"l  c #1D2229",
"z  c #2E2F23",
"x  c #292828",
"c  c #322B23",
"v  c #352C2B",
"b  c #382A28",
"n  c #2C3428",
"m  c #3A3423",
"M  c #34342B",
"N  c #383629",
"B  c #3B3B2A",
"V  c #332C36",
"C  c #2D3135",
"Z  c #333233",
"A  c #373938",
"S  c #422D07",
"D  c #46370A",
"F  c #463A19",
"G  c #533D12",
"H  c #443824",
"J  c #453B39",
"K  c #3D412A",
"L  c #4A450B",
"P  c #58450B",
"I  c #494215",
"U  c #574917",
"Y  c #5E5116",
"T  c #654B19",
"R  c #695819",
"E  c #745F19",
"W  c #6C621B",
"Q  c #77641B",
"!  c #534827",
"~  c #5B5227",
"^  c #474538",
"/  c #514E33",
"(  c #655926",
")  c #6B5B23",
"_  c #775D2A",
"`  c #675735",
"'  c #6C6329",
"]  c #796827",
"[  c #7C742A",
"{  c #6C6337",
"}  c #786736",
"|  c #78713A",
" . c #393641",
".. c #453A44",
"X. c #494749",
"o. c #55564F",
"O. c #645D4A",
"+. c #675D4B",
"@. c #6D644B",
"#. c #756A48",
"$. c #696457",
"%. c #716858",
"&. c #7B755A",
"*. c #695E67",
"=. c #696868",
"-. c #756B69",
";. c #726D73",
":. c #757572",
">. c #897016",
",. c #8A751A",
"<. c #82682B",
"1. c #887629",
"2. c #957B25",
"3. c #816B34",
"4. c #897635",
"5. c #957D37",
"6. c #83694B",
"7. c #867845",
"8. c #927D43",
"9. c #8A7A57",
"0. c #837865",
"q. c #AA931A",
"w. c #98842B",
"e. c #998536",
"r. c #999430",
"t. c #AB892D",
"y. c #A79326",
"u. c #B3952E",
"i. c #A68C37",
"p. c #AC9538",
"a. c #B79A39",
"s. c #B8A63B",
"d. c #C5AB3B",
"f. c #C3B036",
"g. c #DAB934",
"h. c #EABE34",
"j. c #DAC019",
"k. c #D7C630",
"l. c #F7D62B",
"z. c #E9C436",
"x. c #EFCA30",
"c. c #F7CD38",
"v. c #F4D334",
"b. c #FAD334",
"n. c #F6D33C",
"m. c #FAD43C",
"M. c #FADC3E",
"N. c #978645",
"B. c #8F845A",
"V. c #968A53",
"C. c #9E9450",
"Z. c #A68A44",
"A. c #A89647",
"S. c #B89C46",
"D. c #AC8D52",
"F. c #A79757",
"G. c #B59C53",
"H. c #BAA449",
"J. c #AFA251",
"K. c #BBA658",
"L. c #89846F",
"P. c #968963",
"I. c #999479",
"U. c #A48F6B",
"Y. c #A89879",
"T. c #BAA86D",
"R. c #C59E45",
"E. c #C4A647",
"W. c #D0AE42",
"Q. c #C8B44B",
"!. c #D3B947",
"~. c #C4A956",
"^. c #C8B357",
"/. c #D7B85A",
"(. c #E5BE43",
"). c #CC9869",
"_. c #C8A868",
"`. c #C9B662",
"'. c #D7BB65",
"]. c #E3B96E",
"[. c #D7C54B",
"{. c #D9C757",
"}. c #EBC948",
"|. c #F8CF45",
" X c #FBD543",
".X c #FCDB45",
"XX c #F7D749",
"oX c #FDDC4B",
"OX c #E8CA5B",
"+X c #F1CD57",
"@X c #EBD357",
"#X c #F6D757",
"$X c #FDDB55",
"%X c #FDDC5B",
"&X c #FAE24D",
"*X c #FEE252",
"=X c #FEE15A",
"-X c #DAC566",
";X c #E8CA66",
":X c #EBD46A",
">X c #F7D966",
",X c #E5CA77",
"<X c #FADA73",
"1X c #FDE665",
"2X c #FDE56B",
"3X c #FDE273",
"4X c #F8E677",
"5X c #95908C",
"6X c #A69D84",
"7X c #A7ACA3",
"8X c #CFB886",
"9X c #D5CA86",
"0X c #EBD88B",
"qX c #F3D487",
"wX c #FCE787",
"eX c #FBE895",
"rX c #D2D0BB",
"tX c #CBCCC4",
"yX c #C9C7CC",
"uX c #CDCDCC",
"iX c #D3CAC6",
"pX c #D2CCCC",
"aX c #CED4C6",
"sX c #CDD3CB",
"dX c #D5D6C8",
"fX c #D2D1CD",
"gX c #DBD3CD",
"hX c #CCCED2",
"jX c #CDCAD6",
"kX c #D3CED3",
"lX c #D2CEDB",
"zX c #CDD1D3",
"xX c #CED1DB",
"cX c #D2D1D4",
"vX c #DAD5D7",
"bX c #DBDAD4",
"nX c #D2D2DA",
"mX c #D5DADB",
"MX c #DADADB",
"NX c #E0DBDC",
"BX c #E2E2DD",
"VX c #D0CEE4",
"CX c #D9D9E2",
/* pixels */
").).).).).).].].].].].].].].].].].].].].].].].].].].].].].].].].].].].].].].].].].].].].].].].].].].].].].].).).).).).).",
").).).).).).].].].].].].].].].].].].].].].].].].].].].].].].].].].].].].].].].].].].].].].].].].].].].].].].).).).).).).",
").).).).).).].].].].].].].].].].].].].].].].].].].].].].].].].].].].].].].].].].].].].].].].].].].].].].].].).).).).).).",
").).).qXqXqXqXqXqXqXqXqXqXqXqXqXqXqXqXqXqXqXqXqXqXqXqXqXqXqXqXqXqXqXqXqXqXqXqXqXqXqXqXqXqXqXqXqXqXqXqXqXqXqXqXqXqX).).).",
").).).qXqXqXqXqXqXqXqXqXqXqXqXqXqXqXqXqXqXqXqXqXqXqXqXqXqXqXqXqXqXqXqXqXqXqXqXqXqXqXqXqXqXqXqXqXqXqXqXqXqXqXqXqXqX).).).",
").).).qXqXqXqXqXqXqXqXqXqXqXqXqXqXqXqXqXqXqXqXqXqXqXqXqXqXqXqXqXqXqXqXqXqXqXqXqXqXqXqXqXqXqXqXqXqXqXqXqXqXqXqXqXqX).).).",
"].].].qXqXqXX   .       . . . + @ @       .   X X X X @ X   .   .   . .   . o . .         O + X . . . * 3 X qXqXqX].].].",
"].].].qXqXqXo , i ) ' R ' U 6 8 < ; t ( W E R ( 6 ; 1 : 6 Y E E W { r 1 < 5 8 G _ E E W I 1 5 p 6 D _ 3.` % qXqXqX].].].",
"].].].qXqXqX. 8 e.{.[.[.,XV.! J / ! | [.[.k.{.A.! ^ / H ] !.k.k.[.J.! K K m T E.g.j.k.s.L a c a D t.h.g.i.8 qXqXqX].].].",
"].].].qXqXqX. ~ ,XwX4XeX_.5X5X5XL.T.wX2X%X4X'.6.%.;.+.7.0X>XoX$XOX) ^ X.^ ~ `.%Xb. XOX_ H N H F D.XXl.h.w.6 qXqXqX].].].",
"].].].qXqXqX# } :X2X<XT.H b v e U !..Xn.#X-XU a c c S E.>XXXXX;XQ t v Z t N.=Xv.b.>X5.d V h a 3.#Xl.b.(.>.: qXqXqX].].].",
"].].].qXqXqX# } ,X3X'.T m M N F ^.=X&X*X:X] i A N h Z.1XoX.X%Xr.u m A h 5.>X&XM.=XS.D N A f _ ,XoXl.oXR.S = qXqXqX].].].",
"].].].qXqXqX. } ,XeX] a M q 0 | T.s.f.^.} 7 s 5 0 ~ K.E.d./.e.w 8 z 5 H J.Q.s.f.S.S 9 x l g Z.}.v.&XOXT 7 X qXqXqX].].].",
"].].].qXqXqX# { 0XF.g A q n O.%.| 7.7.B.9.-.;.;.=.L.P.B.P.9.0.-.;.;.-.&.P.B.V.P.0.-.;.-.=.&.[ q.XX@X4.y p X qXqXqX].].].",
"].].].qXqXqX. } 9X@.s K 4 =.mXpXiXpXpXgXbXbXmXmXmXdXgXgXgXgXNXCXCXMXbXbXvXvXmXvXvXMXbXdXdXBXY.t.2XA.h c p   qXqXqX].].].",
"].].].qXqXqX. ! P.$.x M q =.nXjXyXhXjXkXfXfXcXzXzXdXfXaXdXiXdXiXsXsXfXkXfXuXdXaXaXsXsXdXaXnXY.D.^.I M C p . qXqXqX].].].",
"].].].qXqXqX% - *.*.x H ` &.iXyXyXtXsXuXkXnXxXxXzXgXzXzXcXfXsXsXsXzXzXcXcXsXaXaXsXsXzXnXjXmX6X8.) a M V 4 . qXqXqX].].].",
"].].].qXqXqX* o *.*.a 8.F.7.dXrXtXrXaXzXkXlXxXxXhXsXnXVXVXlXzXzXsXzXcXcXlXxXxXjXcXcXxXlXjXmX6Xi h n M d H . qXqXqX].].].",
"].].].qXqXqX@ * $.` T ;Xs.4.dXyXuXsXsXkXkXfXaXsXsXhXkXpXkXkXcXzXzXzXpXcXzXkXlXkXkXpXfXuXhXmX5X4 M A y R 4.. qXqXqX].].].",
"].].].qXqXqX2 % O.{ ^.2Xu.7.uXyXhXhXuXiXpXuXsXaXaXsXrXrXrXiXhXhXzXhXhXiXaXtXpXkXpXsXuXsXaXxX:.< A c Y E.5.. qXqXqX].].].",
"].].].qXqXqX2 % ` ^.@X$Xa.7.BXhXbXMXbXbXbXCXmXCXCXbXbXgXNXvXCXMXmXCXmXmXMXbXbXvXMXbXmXmXvXBX5X= n H E.}.2.. qXqXqX].].].",
"].].].qXqXqX@ & 7.3X XoXs.U @.=.=.=.=.=.+.#.@.%.$.=.=.=.-.+.%.#.@.+.=.=.=.=.%.@.@.@.%.=.;.-.K q y e.%Xx.2.. qXqXqX].].].",
"].].].qXqXqX. D '.>Xb.*Xy.W D.F + < = { F.i.i.A.` - = = h V.i.i.A.N.6 = 4 g B.A.p.i.A.~ 9 9 9 : <.:X Xz.i.; qXqXqX].].].",
"].].].qXqXqX. ] @X XXXOXI 4.eXZ.: q = ( 4X%X.X1X-Xu < q h -X2XoX=X2X] 0 n e V.wX=X=X3XK.t b c D [.$X|.c.w.# qXqXqX].].].",
"].].].qXqXqX. ] z.oX>X4.: 4.>XOXL > 5 6 H.XXb.n.1X4.& j % Q #Xn.b.$X^.i x > D ;X$Xn.XX:X( 9 F 2.*Xn.XX[.R . qXqXqX].].].",
"].].].qXqXqX. ] }.<Xi.i ; 5.%X%Xr.- k % T >X Xl.*X/.i 3 9 w ^.$Xb.n.>X} s 5 7 Z.>X X.X1XS.t G p.oXn.>Xe.w . qXqXqX].].].",
"].].].qXqXqX. ] :X~.F n p 4.$Xn.{.L - e 6 H.&Xl.v.%X1.- 9 ; ] %Xb.l..X^.d 8 y I -X$Xn..X@XR D t.XX%XK.U e . qXqXqX].].].",
"].].].qXqXqX# 3.'.R z A 1 N.2X$X2XV.: 0 - ~ >X.X.X%X-XD - > t ~.=X.X.X<X| ;   e e.2X$X%X3X^.G u.%X/.` B 0 . qXqXqX].].].",
"].].].qXqXqX# } 4.h n n 8 _ ~.S.~.P.h s l s V.~.S.S.T.` 5 x 4 { K.R.S.K.9.a     ! G.K.G.G.F.R t.+X] ..A q   qXqXqX].].].",
"].].].qXqXqX. f ^ A V h H & # o o . @ @ @ @ . . . . . @ @ @ o + . o . o X > s @ > @ 4 ,   o a D.N.u X.A 9 X qXqXqX].].].",
"].].].qXqXqXo = n A d ~ U.,   .                                                     .     @ 7 @.F f X.m e . qXqXqX].].].",
"].].].qXqXqXo = n H S ~.T.&     O O                                                         9 b ^ Z ^ Y ) o qXqXqX].].].",
"].].].qXqXqXX > n i 5.<X~.&     O O                                                         3 V X.C ! A.w.. qXqXqX].].].",
"].].].qXqXqXX > r <.#X XE.&     .                                                           3 V o.f N.OX,.. qXqXqX].].].",
"].].].qXqXqX% & U -X.X.XE.-                                                                 O C / ) :X}.2.- qXqXqX].].].",
"].].].qXqXqX# w a.*Xv.$XS.;   X                                                             . N 3.Q.>X}.i.; qXqXqX].].].",
"].].].qXqXqX. ) (.m..X>X} .                                                                   F -X$Xn.}.5.& qXqXqX].].].",
"].].].qXqXqX# <.h.v.&Xs.w .   X O O                                                         . #.3Xv.b.OX_ % qXqXqX].].].",
"].].].qXqXqX. <.h.$X/.I 5 O                                                                 . C.1Xc.>XK.u , qXqXqX].].].",
"].].].qXqXqX. ] z.;X( h p   O                                                               X C.2X|.,XR e 4 qXqXqX].].].",
"].].].qXqXqX. ] [.4.b N q       O                                                           . F.wX:X1.u 0 5 qXqXqX].].].",
"].].].qXqXqX. | Z.i V Z p                                                                   . F.eXe.B g p p qXqXqX].].].",
"].].].qXqXqX. ! I N V M s X                                                           O     . Y.8Xh  . .z 5 qXqXqX].].].",
"].].].qXqXqXo : n A c H #.<     O O                                                       . . I.I.z A K g * qXqXqX].].].",
"].].].qXqXqX. - s J r N.T.;       O   X   .   . O             X     .   .   .     . X     .   O.5Xz N f ! . qXqXqX].].].",
"].].].qXqXqX@ > z d E <XH.; . X             .       O       X                             O O K 5Xz d <.7.. qXqXqX].].].",
"].].].qXqXqX@ > f Y !.*XR.& .           .   .   .   O O       .   .                 .         X.7X0 T /.2.o qXqXqX].].].",
"].].].qXqXqX@ : h H.oXb.g.1.r * * , - Y ,.>.Q 4.F - = = o G 1.>.,.4.! , 4 5 1 h | [ [ 7.{ 0 = o.7XD !.}.2.. qXqXqX].].].",
"].].].qXqXqXo & [ >Xm.c.#Xe.h z N y ' }.v.v.@XJ.D f n g Y /.XXn.XX{.' o.o.+.#.9X4X1X4XeXY.5X5X7X6XD.$Xz.2.. qXqXqX].].].",
"].].].qXqXqX. I g. X X%X~.F g N f T ;X#X|.$X-XY c  .M D Q.$Xn. X:X` c Z Z h D.<X|.#X<X7.h ..X.H 5.>Xb.h.2.# qXqXqX].].].",
"].].].qXqXqX. [ z.n.$XOXU f M g D Q.$Xn.oX+XQ y M Z i t.oXv. X#Xe.f Z M y 3.>X Xc.%XS.u z v a ) ;X.Xl.}.1.. qXqXqX].].].",
"].].].qXqXqX. 3.h.c.}.Q u B K F N.$Xc.|.@Xw.D m B h 3.+Xn.c.@Xa.D N B u W {.XXl.m.W.P m K H U ^.XXx.M.g.G   qXqXqX].].].",
"].].].qXqXqX. ( u.u.Q w r a p U Z.u.y.u.1.t t a a h N.p.y.p.w.i r p e y 1.p.q.y.y.P e z q r ' A.q.q.u.R 6 X qXqXqX].].].",
"].].].qXqXqX. # $ # # o @ 2 o # $ $ & $ $ * + * . % & % $ & % o @ @ @ @ % $ o o o + 2 O o o o % $ $ $ % .   qXqXqX].].].",
").).).qXqXqXqXqXqXqXqXqXqXqXqXqXqXqXqXqXqXqXqXqXqXqXqXqXqXqXqXqXqXqXqXqXqXqXqXqXqXqXqXqXqXqXqXqXqXqXqXqXqXqXqXqXqX).).).",
").).).qXqXqXqXqXqXqXqXqXqXqXqXqXqXqXqXqXqXqXqXqXqXqXqXqXqXqXqXqXqXqXqXqXqXqXqXqXqXqXqXqXqXqXqXqXqXqXqXqXqXqXqXqXqX).).).",
").).).qXqXqXqXqXqXqXqXqXqXqXqXqXqXqXqXqXqXqXqXqXqXqXqXqXqXqXqXqXqXqXqXqXqXqXqXqXqXqXqXqXqXqXqXqXqXqXqXqXqXqXqXqXqX).).).",
").).).).).).].].].].].].].].].].].].].].].].].].].].].].].].].].].].].].].].].].].].].].].].].].].].].].].].).).).).).).",
").).).).).).].].].].].].].].].].].].].].].].].].].].].].].].].].].].].].].].].].].].].].].].].].].].].].].].).).).).).).",
").).).).).).].].].].].].].].].].].].].].].].].].].].].].].].].].].].].].].].].].].].].].].].].].].].].].].].).).).).).)."
};
