/* XPM */
static char *_e0eac38e43c4f6099cb166d32cd0a84yI9BHUVG68pekgi4[] = {
/* columns rows colors chars-per-pixel */
"60 60 242 2 ",
"   c #030001",
".  c #0A0301",
"X  c #0B0A03",
"o  c #0C0A0A",
"O  c #080609",
"+  c #140C01",
"@  c #1B0E01",
"#  c #150B09",
"$  c #0D110A",
"%  c #131202",
"&  c #1C1403",
"*  c #12130C",
"=  c #1A130C",
"-  c #1B1B0B",
";  c #181905",
":  c #0C0C12",
">  c #1B1B15",
",  c #1B1B1C",
"<  c #181516",
"1  c #0F1015",
"2  c #230E06",
"3  c #231501",
"4  c #231A03",
"5  c #2B1C02",
"6  c #271C0A",
"7  c #231311",
"8  c #231C13",
"9  c #24171B",
"0  c #2C160B",
"q  c #1C2312",
"w  c #2C2402",
"e  c #282408",
"r  c #3C2D0A",
"t  c #362806",
"y  c #3A320A",
"u  c #2E2A15",
"i  c #2D2A1D",
"p  c #282318",
"a  c #322A14",
"s  c #352B18",
"d  c #35321D",
"f  c #383416",
"g  c #2D3219",
"h  c #1C1A22",
"j  c #1B1625",
"k  c #231B25",
"l  c #211F32",
"z  c #1F2224",
"x  c #2A2423",
"c  c #2B2B23",
"v  c #2C242B",
"b  c #282828",
"n  c #342A25",
"m  c #332C2D",
"M  c #37282A",
"N  c #353323",
"B  c #3A3424",
"V  c #33342C",
"C  c #393A2A",
"Z  c #2A2933",
"A  c #352E35",
"S  c #393835",
"D  c #483809",
"F  c #533B09",
"G  c #463916",
"H  c #573C14",
"J  c #442D05",
"K  c #433826",
"L  c #413B33",
"P  c #3F493A",
"I  c #48420B",
"U  c #574509",
"Y  c #4E4519",
"T  c #574718",
"R  c #5A5119",
"E  c #69550D",
"W  c #675717",
"Q  c #70551A",
"!  c #776619",
"~  c #66611B",
"^  c #4C4424",
"/  c #554927",
"(  c #5B5023",
")  c #48493A",
"_  c #544835",
"`  c #595637",
"'  c #685928",
"]  c #725B24",
"[  c #645836",
"{  c #6B572B",
"}  c #6B6424",
"|  c #776529",
" . c #776737",
".. c #736D31",
"X. c #3E3B42",
"o. c #534D44",
"O. c #585849",
"+. c #595857",
"@. c #4A4B46",
"#. c #625C48",
"$. c #645C56",
"%. c #5C6250",
"&. c #68644A",
"*. c #6A6757",
"=. c #716856",
"-. c #79704F",
";. c #6A6766",
":. c #7A777D",
">. c #746F66",
",. c #826829",
"<. c #88762A",
"1. c #8A7835",
"2. c #927A36",
"3. c #92782A",
"4. c #887747",
"5. c #957E45",
"6. c #867C5A",
"7. c #816D46",
"8. c #877B6A",
"9. c #847D7D",
"0. c #968437",
"q. c #9E8727",
"w. c #A48C39",
"e. c #AC963C",
"r. c #B69C39",
"t. c #B0952A",
"y. c #B9A33A",
"u. c #B8A425",
"i. c #AD9116",
"p. c #D9BE17",
"a. c #C7A936",
"s. c #D4AE33",
"d. c #D6BA37",
"f. c #D2B42D",
"g. c #E5BE2D",
"h. c #DAC538",
"j. c #F6D534",
"k. c #F5D43C",
"l. c #FAD43C",
"z. c #FBD839",
"x. c #F5CF2F",
"c. c #F9E43C",
"v. c #988648",
"b. c #8C865A",
"n. c #968656",
"m. c #9B9351",
"M. c #A99449",
"N. c #B19B45",
"B. c #A89859",
"V. c #A89651",
"C. c #BAA343",
"Z. c #B8A648",
"A. c #AEA75D",
"S. c #BAA855",
"D. c #8C836B",
"F. c #9A8C69",
"G. c #978A74",
"H. c #8D8C77",
"J. c #A49863",
"K. c #B8AC6A",
"L. c #C6A845",
"P. c #CCB445",
"I. c #D6B646",
"U. c #C4A954",
"Y. c #C8B659",
"T. c #D4BB59",
"R. c #E0BF45",
"E. c #CC9869",
"W. c #D3B966",
"Q. c #C4AF6B",
"!. c #E3B96E",
"~. c #DBC447",
"^. c #DBC456",
"/. c #D7CE52",
"(. c #E7C645",
"). c #F6CD43",
"_. c #FDDB45",
"`. c #FBD54B",
"'. c #FCDC4B",
"]. c #F7D646",
"[. c #E5C95A",
"{. c #EAD35A",
"}. c #FCDC55",
"|. c #FCDC5B",
" X c #F7D756",
".X c #F2CE59",
"XX c #FDE24C",
"oX c #FEE354",
"OX c #FEE85A",
"+X c #D8C56A",
"@X c #D8C674",
"#X c #CDC17F",
"$X c #E6CA66",
"%X c #E9D368",
"&X c #F5D365",
"*X c #FBDC64",
"=X c #F8D96A",
"-X c #E3CB72",
";X c #F6DB77",
":X c #E4D073",
">X c #FCE262",
",X c #FFE66A",
"<X c #FCE376",
"1X c #807C81",
"2X c #848485",
"3X c #989182",
"4X c #B8B395",
"5X c #F3D487",
"6X c #F4DE88",
"7X c #E5D788",
"8X c #F9E98C",
"9X c #CACBBE",
"0X c #D7D096",
"qX c #CBCCC5",
"wX c #CCCCCD",
"eX c #C8C9CA",
"rX c #D0CDCC",
"tX c #CDD1CC",
"yX c #C9D0C8",
"uX c #D3D3CD",
"iX c #D7D6CB",
"pX c #CCCBD2",
"aX c #C9CAD3",
"sX c #D0CED2",
"dX c #CED3D6",
"fX c #D4D4D4",
"gX c #DBD6D4",
"hX c #D6D9D4",
"jX c #D9D9D4",
"kX c #D5D6DA",
"lX c #D9D6DA",
"zX c #D5D8DB",
"xX c #D9D9DA",
"cX c #E4DED9",
"vX c #E4DACA",
"bX c #E4E2D9",
"nX c #E9E9D4",
"mX c #D7D7E3",
"MX c #D4CBE0",
"NX c #E3DDE4",
"BX c #DCE2E2",
"VX c #E2E3E7",
/* pixels */
"E.E.E.E.E.E.!.!.!.!.!.!.!.!.!.!.!.!.!.!.!.!.!.!.!.!.!.!.!.!.!.!.!.!.!.!.!.!.!.!.!.!.!.!.!.!.!.!.!.!.!.!.!.!.E.E.E.E.E.E.",
"E.E.E.E.E.E.!.!.!.!.!.!.!.!.!.!.!.!.!.!.!.!.!.!.!.!.!.!.!.!.!.!.!.!.!.!.!.!.!.!.!.!.!.!.!.!.!.!.!.!.!.!.!.!.E.E.E.E.E.E.",
"E.E.E.E.E.E.!.!.!.!.!.W.!.!.!.!.!.!.!.!.!.!.!.!.!.!.!.!.!.!.!.!.!.!.!.!.!.!.!.!.!.!.!.!.!.!.!.W.!.!.!.!.!.!.E.E.E.E.E.E.",
"E.E.E.5X5X5X5X5X5X5X5X5X5X5X5X5X5X5X5X5X5X5X5X5X5X5X5X5X5X5X5X5X5X5X5X5X5X5X5X5X5X5X5X5X5X5X5X5X5X5X5X5X5X5X5X5X5XE.E.E.",
"E.E.E.5X5X5X5X5X5X5X5X5X5X5X5X5X5X5X5X5X5X5X5X5X5X5X5X5X5X5X5X5X5X5X5X5X5X5X5X5X5X5X5X5X5X5X5X5X5X5X5X5X5X5X5X5X5XE.E.E.",
"E.E.E.5X5X5X5X5X5X5X5X5X5X5X5X5X5X5X5X5X5X5X5X5X5X5X5X5X5X5X5X5X5X5X5X5X5X5X5X5X5X5X5X5X5X5X5X5X5X5X5X5X5X5X5X5X5XE.E.E.",
"!.!.!.5X5X5XO   X   .       O O o . .           O O O o .   . = = .   o $ O .             X   . .         A 5X5X5X!.!.!.",
"!.!.!.5X5X5XX & y E ! ~ } Y ; = > = t ' } ] } R 4 - - ; 5 { ! ! ..[ 4 ; > 6 6 W ! ! ! [ u < h p 5 ( |  .6 m 5X5X5X!.!.!.",
"!.!.!.5X5X5X+ 5 2.(.~./.@Xm.) @.) ) 0.^.~.~.+Xv.^ ) ) ^ 3.^.h.h.{.m.Y C L G ! d.p.p.h.q.y b N w E P.d.I.F 9 5X5X5X!.!.!.",
"!.!.!.5X5X5X. T @X8X6X8XQ.G.3X3Xb.K.8X=X=X<XQ.-.*.>.O.m.;X|.].*XQ.[ @.@.K | -X.X).'.L.D N X.d W [.).x.s.F u 5X5X5X!.!.!.",
"!.!.!.5X5X5X. { %X<X:XK.f i i e U ^. X].>XS.I p n e T I.].]. X^.R K ^ g I P.}.l.`.^.W a m M D Z.}.l.j.u.t b 5X5X5X!.!.!.",
"!.!.!.5X5X5X. ' $X<X@X/ g C B / W.>Xz.oX{.~ N S C F U.>X].oX%X} y @.) P A.>X`.|.|...t C C K m.*Xl.l..X! $ b 5X5X5X!.!.!.",
"!.!.!.5X5X5X  ' :X6X .m b z p &.S.y.a.Z.W 3 k l > ..S.C.C.S.| 5 9 b C [ A.Z.C.U.<.5 p p < / S.].j.oXe.t # b 5X5X5X!.!.!.",
"!.!.!.5X5X5X. ' 7XJ.u S , ) H.H.F.J.G.8.=.=.;.;.;.>.D.F.F.F.D.9.2X2X3XH.J.n.B.F.D.1X2X:.H.F.! f.oXY.T e * b 5X5X5X!.!.!.",
"!.!.!.5X5X5X  [ #X-.q S , :.nXjXNXNXNXMXrXiXiXiXgXsXxXNXNXcXbXbXBXBXVXbXcXvXvXcXNXVXVXBXbXvX2.I.{.' s c $ Z 6X5X5X!.!.!.",
"!.!.!.5X5X5X. K b.>.c C e 8.nXuXmXkXeXeX9X9X9XqXqXqXhXzXlXlXgXxXkXkXxXhXzXzXxXhXhXhXhXkXhXvX4.T.<.a m c 1 b 5X5X5X!.!.!.",
"!.!.!.5X5X5Xo + #.;.x K  .G.nXuXzXuXqX9XqXaXaXaXaXfXhXhXhXhXxXmXmXzXzXhXhXBXzXjXjXhXhXjXxXjX8.6.r B m p $ i 5X5X5X!.!.!.",
"!.!.!.5X5X5Xo o $.;.w 0.A.b.bXdXhXwXeXaXaXaXaXaXaXmXmXhXhXjXlXmXzXzXzXhXhXmXzXxXhXjXjXjXzXhX*.u V N a ^ u b 5X5X5X!.!.!.",
"!.!.!.5X5X5Xo O +.#.E %Xy.n.bXkXkXrXqXrXaXaXeXeXfXxXxXxXhXlXcXgXjXiXhXlXxXgXxXxXlXlXgXlXzXBXo.> S d D m.Y x 5X5X5X!.!.!.",
"!.!.!.5X5X5X1 O O.,.P.oXt.n.NXkXaXwXqXwXqXaXqXqXuXhXiXxXlXlXgXiXiXfXhXzXfXgXxXgXlXzXlXgXzXBX@.z V r q.P.y b 5X5X5X!.!.!.",
"!.!.!.5X5X5X: o [ +X X_.r.n.cXfXwXeXwXwXwXeXeXsXfXzXfXxXzXfXjXfXjXlXfXxXzXxXfXxXzXfXzXfXfXxX+.h i <..Xf.J b 5X5X5X!.!.!.",
"!.!.!.5X5X5X+ + 2.;Xk.'.y.n.cXyXqXeXeXwXrXeXwXfXxXxXfXlXfXlXzXgXfXxXxXfXfXfXxXfXfXlXgXfXfXcXO.8 { [.l.s.D b 5X5X5X!.!.!.",
"!.!.!.5X5X5X+ G T.oXk.>X0.6.xXqXqXrXrXrXeXrXsXxXxXlXfXhXfXfXfXlXxXxXxXfXfXfXfXxXfXzXfXzXfXcXO.t T.'.x.s.D v 5X5X5X!.!.!.",
"!.!.!.5X5X5X  } ^.]. X^.J >.xXqXqXrXsXrXeXrXfXfXfXjXxXfXfXfXfXxXxXfXxXjXfXfXfXgXfXjXgXfXfXxX` 3.}.l.x.a.r v 5X5X5X!.!.!.",
"!.!.!.5X5X5X. ] ~. X{.! & :.mXrXrXpXsXwXeXwXzXxXfXxXgXfXfXfXzXxXfXfXfXfXfXfXfXfXfXfXfXfXhXiX7.I.z.z.`.3.2 b 5X5X5X!.!.!.",
"!.!.!.5X5X5X. ] [.;X0.t 7 :.mXwXsXpXsXtXwXfXgXhXfXfXzXfXfXfXzXgXfXfXzXfXfXfXfXfXfXfXfXfXfXiX4.d.j.'.P.J @ x 5X5X5X!.!.!.",
"!.!.!.5X5X5X. ] $XA.y B > ;.zXwXsXeXpXwXfXfXxXfXfXlXhXfXfXfXfXxXfXfXfXfXfXfXfXfXfXfXfXfXuXiX1.d.}.[.' p 1 b 5X5X5X!.!.!.",
"!.!.!.5X5X5X   .Y.T i S * ;.gXeXrXqXtXwXfXfXlXfXfXfXfXfXfXfXxXfXfXfXfXfXfXfXfXfXfXuXfXfXiXiXv.I.=X,.s V > x 5X5X5X!.!.!.",
"!.!.!.5X5X5X  _ ..B V C - >.gXeXeXyXtXpXfXfXfXfXfXfXfXfXfXfXfXfXuXfXfXfXfXfXfXlXfXfXzXfXjXiXb.-XV.s L C q c 6X5X5X!.!.!.",
"!.!.!.5X5X5XX 6 V S n f / -.uXaXaXpXwXwXfXfXfXfXfXzXfXfXfXfXfXfXsXfXfXfXzXxXfXfXfXfXjXfXfXiXb.J.H A @.d q V 5X5X5X!.!.!.",
"!.!.!.5X5X5X$ $ m L e ..J.6.iXeXwXsXuXpXfXfXfXfXsXfXfXfXfXfXlXfXfXfXfXfXfXfXfXfXfXfXfXfXfXgX=.[ L X.@.f d i 5X5X5X!.!.!.",
"!.!.!.5X5X5X: * n M U +XS.-.gXqXqXuXwXfXfXfXfXfXfXfXfXuXfXfXfXfXfXfXfXfXfXfXfXfXfXfXfXfXsXlX+.@.L S Y 2._ z 5X5X5X!.!.!.",
"!.!.!.5X5X5X: # s F C.>Xy.7.iXqXtXwXwXfXsXfXfXfXfXfXfXfXtXfXhXfXfXfXfXfXhXfXuXfXfXfXfXfXfXlX+.+.S P <.T.H x 5X5X5X!.!.!.",
"!.!.!.5X5X5X1 # t w.}.c.u.4.gXeXrXsXfXfXpXfXfXfXpXfXfXfXfXsXfXfXpXfXfXfXfXtXfXfXfXfXfXwXfXzX+.+.C } +XI.D v 5X5X5X!.!.!.",
"!.!.!.5X5X5XO + Q &Xk.c.y.7.gXeXwXpXsXsXuXfXfXfXfXfXpXuXuXsXfXfXfXfXfXfXfXdXfXfXsXfXfXfXfXlX+.o.R Y.|.s.F u 5X5X5X!.!.!.",
"!.!.!.5X5X5X. J L.).j.}.w.-.gXpXwXqXtXfXwXfXfXwXwXfXfXwXsXsXfXhXfXfXsXuXfXsXsXhXtXfXwXwXsXfXo.&.S.*X).s.F 9 5X5X5X!.!.!.",
"!.!.!.5X5X5X. ] R.k.`.&XT &.lXeXtXuXuXwXrXfXsXfXfXfXwXtXfXwXtXtXwXfXsXpXfXfXfXuXrXfXrXrXgXeX) m.<X X`.s.D v 5X5X5X!.!.!.",
"!.!.!.5X5X5X. ! g.l.=X5.3 >.mXMXhXjXhXfXfXxXfXxXxXtXfXfXsXfXdXzXfXxXuXzXjXfXdXzXzXlXgXgXlXwX&.!.*X`.*XN.6 b 5X5X5X!.!.!.",
"!.!.!.5X5X5X  ] g._.V.G 8 B *.+.%.;.*.#.#.*.&.&.&.+.+.%.+.+.&.-.*.*.#.$.;.*.O.*.$.&.#.$.;.O.( :XXX_.^./ # i 5X5X5X!.!.!.",
"!.!.!.5X5X5X  ] R.T.I d 6 } A.I ; q 4 ..Z.C.y.Z.' @ 9 & ( S.Z.y.Z.v.e < = G B.Z.y.C.M.t = 4 Y :X X{.,.t # b 5X5X5X!.!.!.",
"!.!.!.5X5X5X   .W.{ a S - 0.8Xe.3 9 = ] =XoX_.oXT.r ; & J $XoX_.oX;XT ; 5 5 S.,Xz.'.;X2.2 6 T @X<Xv.f n * c 5X5X5X!.!.!.",
"!.!.!.5X5X5X  [ ..r A S - <.>X/.U < j 6 Z. Xx.x.=X..% , 1 1.*Xl.z.>XV.4 8 $ R {.j.j. XW.t 4 / 7XK.G V x % b 5X5X5X!.!.!.",
"!.!.!.5X5X5X. u G B m m G q.|.|.N.3 , * ' $Xl.l.|.Y.a < < r +X}._. X%XY o h - M.|.l.`.=X..@ / 0X[ n A i X V 5X5X5X!.!.!.",
"!.!.!.5X5X5XX % a K s / 0.i._.k./.I ; ; 3 U. X).k.>X| % q @ 2.|.k.k. XM.4 > @ Q &X).l._.T.J f 4X` m A f - x 5X5X5X!.!.!.",
"!.!.!.5X5X5XO * x K G Y.a.i.oXoX<Xm.e p 2 Q =XOX'.OXT.y ; 3 F !.*X'.oX*XR % 3 5 U.,X'.'.,X0.& D.*.v s } G k 5X5X5X!.!.!.",
"!.!.!.5X5X5Xo $ c r w.*Xa.E 0.5.v.4.u > 2 t  .0.0.3.n.^ 9 8 3 { 2.3.2.v.[ q p 6 G 2.<.<.2.-.$ H.*.p Q Z.D x 5X5X5X!.!.!.",
"!.!.!.5X5X5Xo * p ..{.'.a.D +     O . & r w w t %     O   ; y w w e +         o p w w e $ O   H.=.G Y.P.F k 5X5X5X!.!.!.",
"!.!.!.5X5X5X# + T (.'.l.(.e.y q b 8 J r.d.f.d.Z.G 9 b 8 y N.f.f.I.Q.[ ^ ) P ` B.+X^./.@Xb.%.+.4X7.e.'.a.F p 5X5X5X!.!.!.",
"!.!.!.5X5X5XO 5 e. Xk.`.&X] g V N y C.oX].`.&X| f C C J N.*X].}.=X1.K @.@.L E.<X|.>X8XB.=.1X1X8.B.&Xk.f.J v 5X5X5X!.!.!.",
"!.!.!.5X5X5X  Q h._.`.&X3.a V C y q.|.k.`.&Xv.a V g u <.|.].).OXw.t c V a ,..Xj.j.|.V.s l Z 6 E &X`.x.d.D M 5X5X5X!.!.!.",
"!.!.!.5X5X5X. ] h.l.}.r.J C S a ! .Xz.j.'.L.D d P w ' .X).k.'.P.I f ^ d T [._.x.z.I.T d L f U ^.`.k.].y.t v 5X5X5X!.!.!.",
"!.!.!.5X5X5X  | I.d.r.F y V c / S.~.f.h.y.U g d g Y C.I.d.~.C.U y d N _ B.~.g.h.L.Q r B f I w.~.d.h.a.E @ v 5X5X5X!.!.!.",
"!.!.!.5X5X5X  a H H t 2 = * * u H H I D y % ; < % e H F F H J @ @ > 8 K Y D I U J 3 < $ % 4 G T D F J 3 . b 5X5X5X!.!.!.",
"!.!.!.5X5X5XZ 9 7 9 9 k < , j 7 = 7 9 j h , , j j 7 7 9 9 9 j k j k m M 7 < 7 = 8 > , , , j = = 9 j k x > @.5X5X5X!.!.!.",
"E.E.E.5X5X5X5X5X5X5X5X5X5X5X5X5X5X5X5X5X5X5X5X5X5X5X5X5X5X5X5X5X5X5X5X5X5X5X5X5X5X5X5X5X5X5X5X5X5X5X5X5X5X5X5X5X5XE.E.E.",
"E.E.E.5X5X5X5X5X5X5X5X5X5X5X5X5X5X5X5X5X5X5X5X5X5X5X5X5X5X5X5X5X5X5X5X5X5X5X5X5X5X5X5X5X5X5X5X5X5X5X5X5X5X5X5X5X5XE.E.E.",
"E.E.E.5X5X5X5X5X5X5X5X5X5X5X5X5X5X5X5X5X5X5X5X5X5X5X5X5X5X5X5X5X5X5X5X5X5X5X5X5X5X5X5X5X5X5X5X5X5X5X5X5X5X5X5X5X5XE.E.E.",
"E.E.E.E.E.E.!.!.!.!.!.!.!.!.!.!.!.!.!.!.!.!.!.!.!.!.!.!.!.!.!.!.!.!.!.!.!.!.!.!.!.!.!.!.!.!.!.!.!.!.!.!.!.!.E.E.E.E.E.E.",
"E.E.E.E.E.E.!.!.!.!.!.!.!.!.!.!.!.!.!.!.!.!.!.!.!.!.!.!.!.!.!.!.!.!.!.!.!.!.!.!.!.!.!.!.!.!.!.!.!.!.!.!.!.!.E.E.E.E.E.E.",
"E.E.E.E.E.E.!.!.!.!.!.!.!.!.!.!.!.!.!.!.!.!.!.!.!.!.!.!.!.!.!.!.!.!.!.!.!.!.!.!.!.!.!.!.!.!.!.!.!.!.!.!.!.!.E.E.E.E.E.E."
};
