/* XPM */
static char *d40de271a699411cf828016d0bf5cf69YvsykHfiPlaatSnu[] = {
/* columns rows colors chars-per-pixel */
"60 60 212 2 ",
"   c #010101",
".  c #05030A",
"X  c #0A0508",
"o  c #0B0B0B",
"O  c #140302",
"+  c #130C0C",
"@  c #1A0803",
"#  c #181705",
"$  c #060313",
"%  c #0B0715",
"&  c #130F13",
"*  c #130610",
"=  c #131314",
"-  c #171914",
";  c #1C1A15",
":  c #151519",
">  c #1C1C1C",
",  c #19161C",
"<  c #211B0D",
"1  c #201F1F",
"2  c #321C03",
"3  c #1F201E",
"4  c #2B2807",
"5  c #332D04",
"6  c #37270C",
"7  c #34310B",
"8  c #353207",
"9  c #232117",
"0  c #22221E",
"q  c #29251C",
"w  c #26281B",
"e  c #2D2B19",
"r  c #362B12",
"t  c #332C1A",
"y  c #38271B",
"u  c #2C3117",
"i  c #373618",
"p  c #1E1D23",
"a  c #1C1722",
"s  c #201F23",
"d  c #222222",
"f  c #2D2C24",
"g  c #262629",
"h  c #2A272E",
"j  c #2D2D2D",
"k  c #282826",
"l  c #322522",
"z  c #312E2D",
"x  c #352827",
"c  c #2D3326",
"v  c #32312D",
"b  c #393D2C",
"n  c #393629",
"m  c #2C2D31",
"M  c #222A35",
"N  c #322D33",
"B  c #342D3A",
"V  c #3F2D3D",
"C  c #2E3133",
"Z  c #2C323D",
"A  c #333333",
"S  c #393535",
"D  c #3A3936",
"F  c #33343D",
"G  c #3C3C3B",
"H  c #363A35",
"J  c #533F00",
"K  c #433A1D",
"L  c #49391A",
"P  c #553C18",
"I  c #403D3D",
"U  c #413037",
"Y  c #453A25",
"T  c #3D413C",
"R  c #3C4034",
"E  c #574609",
"W  c #4C4715",
"Q  c #53431A",
"!  c #5F5B1A",
"~  c #604201",
"^  c #7F4F00",
"/  c #754E02",
"(  c #68540A",
")  c #7E5700",
"_  c #624F1E",
"`  c #675816",
"'  c #725A16",
"]  c #7C690B",
"[  c #76640B",
"{  c #7A701E",
"}  c #484426",
"|  c #574924",
" . c #43433E",
".. c #4A4639",
"X. c #4C4B3E",
"o. c #404034",
"O. c #57543F",
"+. c #675826",
"@. c #725D2B",
"#. c #6F6422",
"$. c #7B6C2D",
"%. c #3C3C42",
"&. c #363644",
"*. c #413F43",
"=. c #3D4243",
"-. c #444343",
";. c #484646",
":. c #464845",
">. c #4B4A45",
",. c #44444A",
"<. c #494748",
"1. c #474A4B",
"2. c #4C4C4C",
"3. c #504C45",
"4. c #514F4D",
"5. c #4F5047",
"6. c #4D524D",
"7. c #535344",
"8. c #52514D",
"9. c #575A4D",
"0. c #4D4C52",
"q. c #4E4F5B",
"w. c #484953",
"e. c #524E54",
"r. c #514E5A",
"t. c #4D5153",
"y. c #4C515A",
"u. c #545353",
"i. c #585656",
"p. c #5A5956",
"a. c #545359",
"s. c #595759",
"d. c #5C5B5B",
"f. c #575858",
"g. c #605E5D",
"h. c #625E53",
"j. c #5C6557",
"k. c #5D635D",
"l. c #64604E",
"z. c #636353",
"x. c #61625E",
"c. c #696A58",
"v. c #696957",
"b. c #726F5E",
"n. c #5E5E62",
"m. c #615F62",
"M. c #685F6D",
"N. c #635D72",
"B. c #5E6362",
"V. c #626262",
"C. c #6A6769",
"Z. c #6C6C6C",
"A. c #64646A",
"S. c #706F6F",
"D. c #767767",
"F. c #686377",
"G. c #706C70",
"H. c #727271",
"J. c #825E0E",
"K. c #936E0B",
"L. c #9A790C",
"P. c #896912",
"I. c #896C1B",
"U. c #966D16",
"Y. c #8D7213",
"T. c #977611",
"R. c #937C16",
"E. c #8C7832",
"W. c #807C6C",
"Q. c #938112",
"!. c #988610",
"~. c #9B850C",
"^. c #998836",
"/. c #8B8434",
"(. c #B99429",
"). c #B98F30",
"_. c #A79336",
"`. c #BEA12B",
"'. c #BBAC34",
"]. c #DAB13E",
"[. c #C8B234",
"{. c #E3BC2B",
"}. c #E8C939",
"|. c #ECD236",
" X c #F6CE38",
".X c #958747",
"XX c #AC9542",
"oX c #BD9F49",
"OX c #B4A54A",
"+X c #B2A34C",
"@X c #84816D",
"#X c #868371",
"$X c #C7B243",
"%X c #D7BC45",
"&X c #C8B652",
"*X c #E1BD5C",
"=X c #D7C34D",
"-X c #DDCA48",
";X c #DBC959",
":X c #E3C64B",
">X c #E5C844",
",X c #ECD24C",
"<X c #E8D347",
"1X c #F9D646",
"2X c #E3C951",
"3X c #F3CF52",
"4X c #E0D256",
"5X c #F5DC57",
"6X c #DAC964",
"7X c #F1D663",
"8X c #A39F86",
"9X c #A8A793",
/* pixels */
"=                                                                   X * & +                                           = ",
"  o d > > > > > > > > > : > = = : = = = : # # i W 7 4 W W 5 4 W P 6 2 | +.L < ; ; ; , a : - w : > > > > > > > > > 3 o   ",
"  d G j j j k k g j H 2.>.1.D j m H z A z t E OX6X_./ [.-XR.[ %X2XI.P.;X6X$.K n U n S &.B G j.2.8.H j g j k k j j G d   ",
"  > =               o ;.1.2.;.j j A j B V r E [.5X).^ {.1XL.J.:X}.K.U.<X;X$.Y N N B B &.N 6.c.x.;.o               = >   ",
"  3 d X o o o X o o > ;.2.2.2.G j v A S U 6 E [. X(.J.{. XL.J.<X XK.K.|.-X{ } D N v c j *.V.V.k.x.> o o o o X o X d 3   ",
"  d :.G A A H H A G ;.2.1.2.e.1.N j A z v r E '.,X)./ %X4XR.] =X2XI.Y.=X;X#.} =.F m f n i.C.V.B.k.-.G A A H H A G 1.d   ",
"  1 k = = = = = = = d ;.1.>.2.2.-.j k F &.H i ! ` _ L ` #.Q L @.@.P P @.+.K -.w.&.M c X.h.C.V.B.B.d = = = = = = = k 3   ",
"  > :               o ,.u.>.2.2.2.H g m M g w u 4 q f 4 u q j d l h x t e u G =.%.m v p.V.m.n.B.k.=               : >   ",
"  d A d 1 d d 1 1 s C 1.<.<.2.2.4.1.G -.-. . .8.u.0.u.9.9.6.w.=.1.a.n.e.u.7.9.k.V.p.d.V.B.n.n.B.k.C d d d d d d 3 A d   ",
"  0 2.G G G G G H G -.u.2.0.2.0.2.2.u.4.3.4.e.N.F.N.A.x.k.k.0.6.j.j.N.M.V.v.j.Z.H.C.M.A.B.B.k.B.B.-.G A G D D G T 2.0   ",
"  p p   X   o   X   = :.2.>.4.2.2.1.>.2.>.>.i.m.m.n.d.V.x.8.1.p.x.k.n.m.n.x.d.C.H.G.V.n.B.d.V.k.x.=   X . o   X   p p   ",
"  p p               + ;.2.>.2.2.4.2.2.2.2.e.d.V.n.V.n.d.n.2.6.d.m.B.V.V.V.n.V.V.Z.H.C.m.V.B.g.V.x.=               p p   ",
"  p =.A H c c n n H G u.>.>.2.>.2.>.2.>.1.u.g.m.m.V.V.d.u.2.u.k.x.n.g.d.V.d.V.d.C.S.S.V.V.V.d.m.k.G S v v f c H H %.>   ",
"  0 5.7.X.9.D.5.>.2.2.4.<.2.2.>.>.2.2.>.2.d.V.k.d.d.V.d.t.2.d.V.m.d.B.g.k.n.x.m.k.C.S.C.d.d.V.k.d.4.2.>.7.D.9.X.8.>.0   ",
"  0 >.5...D.9Xv.>.>.>.2.>.e.>.>.2.>.>.2.u.V.B.V.V.d.d.d.2.u.d.d.V.B.V.V.g.V.d.V.B.V.S.S.V.B.V.d.V.V.>.>.c.9XD...5.6.0   ",
"  0 >.>.X.7.z.O.>.:.2.>.4.>.2.2.4.2.2.2.u.d.d.d.d.d.d.u.1.u.d.d.d.d.d.d.d.d.B.d.d.k.Z.S.C.d.d.d.d.d.n.d.O.z.7.X.X.>.0   ",
"  s e.>.2.>...o.D G D G I G G G G G G I =.-.-.-.G -.-.G G G -.-.-.G -.-. .-.-.-.-.=.1.u.u.,.T -.%.T G -.-. .>.3.2.0.p   ",
"  s 0.1.2.>.>.I v v v z z z v z z j z z A A A z A A m j m A j j A A A C z m m v z z A :.;.A j A z A j A G 2.>.4.1.0.p   ",
"  p 0.1.4.>.>.I j G 2.>.>.>.4.<.>.>.2.8.u.2.t.u.6.2.2.2.2.4.u.t.u.t.u.t.t.u.8.e.6.u.2.d.B.d.u.2.1.u.-.A G 1.2.1.2.0.s   ",
"  s e.w.0.0.2.*.z >.8.I I 1.8.e.u.u.p.g.V.d.V.V.V.d.u.d.d.V.V.V.V.V.V.V.V.V.V.V.V.V.V.C.H.H.d.-.-.i.2.S G 1.e.1.0.0.p   ",
"  s 0.0.e.2.2.*.z >.;.k j  .>.2.>.u.p.d.d.d.d.d.u.u.2.u.d.d.d.d.d.d.d.d.d.d.d.d.d.d.d.d.A.S.f.H k -.1.A G 2.t.2.0.0.s   ",
"  p 0.2.0.2.2.*.j ;.2.D G -.2.>.>.8.i.d.d.d.d.d.u.2.t.f.d.d.d.d.d.d.f.d.d.d.d.d.d.d.d.f.d.Z.C.:.A u.2.k *.0.2.>.2.0.p   ",
"  p 2.2.2.4.1.-.m ;.u.>.>.2.2.2.2.s.d.s.d.d.d.f.t.2.f.d.d.d.d.d.d.d.d.d.f.d.d.d.u.u.d.d.d.C.C.C.i.g.2.j %.>.0.1.2.2.A   ",
"  1 2.2.1.0.>.-.A -.u.2.1.2.>.2.d.2.%.H :.u.d.s.2.4.f.d.d.d.d.d.d.d.d.B.d.s.2.-.A S 2.d.s.d.C.C.d.i.1.N -.>.4.2.2.u.A   ",
"  3 2.2.2.2.0.;.A -.2.2.1.4.4.1.u.H m k k S ;.1.0.i.d.u.u.d.d.d.d.s.d.f.6.*.z k j N A s.d.i.C.G.V.e.;.A -.2.e.<.2.u.A   ",
"  d 4.t.2.2.2.;.A =.2.2.2.2.1.2.t.z N G A m k j G 2.d.x.d.d.f.d.d.d.0.G j j j m S A j u.s.i.g.G.V.u.;.N ;.3.2.2.2.2.A   ",
"  d 2.2.2.2.6.<.A  .0.2.2.2.2.u.u.I j k C A A A j A G 2.f.k.d.u.6.G A k j A A H j j *.i.s.s.d.V.m.s.;.N ;.0.e.1.2.u.A   ",
"  > 2.2.2.2.2.1.A -.0.2.0.2.t.d.d.u.:.A A j m H C z j C G 0.2.G A j j A A A j A G :.i.i.i.d.s.g.g.g.;.z ;.2.4.>.1.u.A   ",
"  d 2.0.2.2.2.,.A G >.2.2.2.u.f.d.f.u.s.<.G j j m A A m A A C A z A C m m C G <.u.d.f.s.s.d.i.e.d.m.<.N ,.4.2.<.>.e.A   ",
"  3 u.2.2.2.2.1.A =.2.2.2.2.u.d.d.d.f.f.d.2.-.G A A v v j A A v C A S H -.6.u.f.d.d.u.d.s.s.i.4.u.d.2.S <.<.4.2.1.u.A   ",
"  > 2.8.2.2.2.1.j I 2.2.2.t.u.d.d.f.d.f.u.<.t.u.1.A m A v C A A A z A -.u.d.i.i.u.u.f.d.d.i.e.2.2.g.u.U *.2.2.2.2.e.A   ",
"  d 0.2.2.>.4.1.A -.t.2.2.u.d.f.u.f.f.i.u.>.1.;.S A A A A A m A A A A A G 1.u.s.d.f.u.s.s.u.e.>.<.s.i.*.<.2.4.1.>.t.A   ",
"  d 2.2.2.2.2.1.N =.0.1.8.d.d.u.d.u.p.u.;.-.H m A H m z G %.G G A C A A A A -.2.u.d.u.u.d.u.2.<.e.e.e.;.e.<.2.2.2.2.A   ",
"  > t.2.2.2.2.<.A  .4.2.u.u.p.u.u.u.e.:.A A A A A S G %.2.u.u.u.;.A A A A m j A G <.d.u.u.u.2.>.>.2.>.-.s.>.0.>.2.e.A   ",
"  p 2.>.2.0.1.>.z I >.u.u.u.i.u.i.8.G A A m N A G -.2.u.d.s.u.u.u.t.:.G H N j A C A 2.i.e.4.2.2.2.2.:.-.d.8.2.2.1.u.A   ",
"  d 2.2.2.2.>.1.v  .2.2.u.p.p.p.i.:.v f j H G :.6.s.d.u.u.u.s.u.u.d.d.u.>.%.H S j j ;.u.4.2.>.4.2.3. .G g.i.2.>.1.2.A   ",
"  > 2.2.1.2.2.2.A  .8.8.i.u.u.i.i.2.G S G 1.u.d.s.u.u.u.u.u.s.s.u.u.u.u.d.d.u.-.A G u.8.2.2.>.2.>.4.-.D g.d.8.>.2.2.A   ",
"  d u.2.2.2.2.2.A G 8.p.p.9.u.8.u.i.3.2.i.s.i.u.u.u.u.s.s.s.u.u.i.u.u.s.s.u.s.s.u.u.i.4.>.2.2.4.2.2. .A p.g.d.1.2.4.A   ",
"  d 2.2.1.2.2.2.v G 8.2.4.u.i.8.u.4.3.u.i.u.e.8.u.s.u.u.u.i.u.u.u.u.s.u.u.u.e.u.d.s.u.2.4.>.>.;. .>.I z 8.x.d.e.1.e.A   ",
"  > 2.2.2.2.2.0.A -.>.S S >.i.i.e.>.2.u.u.i.i.e.u.u.u.u.u.u.u.s.i.u.u.u.u.u.u.u.u.u.e.e.2.>.:.S v G G z 8.p.x.u.>.e.A   ",
"  1 2.1.2.2.2.2.v G  .v v :.u.u.4.>.8.u.u.u.i.i.i.i.u.u.u.u.u.u.u.u.u.s.i.4.u.u.u.4.4.2.>.2. .v j D G z 2.9.d.d.2.2.A   ",
"  1 0.2.2.2.2.e.S G  .G G :.>.;.;. .;.>.;.;.;.;.;.;.;.;.;.;.;.-.*.;.;.*.*.;.-.-.-.*.I I I I G v v D v z 8.e.x.d.u.2.A   ",
"  3 2.2.2.2.2.u.v v S v v A v z v z v A S N S N N S N S S N N S S S S S S N N N S N N v v v v z v v z S u.>.u.d.d.u.A   ",
"  s 2.2.2.2.4.u.G G G G I G I G G G I I G I I I I I I I I I I I I U I I I I *.I I I I I G G G G G  .G  .i.4.4.p.d.f.A   ",
"  d 2.2.2.1.;.8.d.d.p.p.p.p.p.i.i.d.d.d.g.d.g.g.g.g.g.s.d.d.g.d.g.d.g.g.d.m.g.m.g.s.s.s.d.d.s.s.s.g.i.i.i.>.:.u.V.d.A   ",
"  > >.2.3.h.W.z.>.u.8.u.8.u.2.2.2.6.u.4.2.0.e.r.4.e.e.e.e.8.r.q.u.t.6.2.a.r.e.>.X.;.r.1.2.2.1.2.2.>.3.X.7.W.v.>.d.d.=.  ",
"  d >.3...b.8Xv.3.u.1.i.u.2.2.4.8.u.u.t.8.u.r.r.u.8.e.e.8.6.r.a.t.t.8.8.e.r.r.3.X.3.r.2.2.0.2.0.>.3.3...O.8X#X;.u.d.-.  ",
"  s 4.4.3.7.l.7.8.u.u.s.2.t.2.2.0.u.8.u.8.e.u.e.4.8.4.4.8.7.8.8.u.8.7.8.u.e.e.3.3.;.2.w.2.2.0.2.4.8.3.7...l.7.;.u.x.1.X ",
"  p G 0 1 q ; q d k A 2.2.2.6.2.u.u.u.e.e.8.8.e.6.9.6.6.6.7.8.4.8.8.8.4.e.u.2.2.>.2.6.6.2.2.w.w.2.G 0 q 9 q 9 k k T 1.: ",
"  p :               = :.u.1.2.0.0.u.6.e.e.4.5.t.y.y.6.6.6.6.7.8.e.8.4.e.e.4.2.2.1.2.>.1.1.2.2.0.1.,               : S > ",
"  s h % & & + + & & k 1.2.1.4.8.8.u.t.e.r.6.6.t.y.=.t.y.y.t.6.t.e.u.e.y.r.0.>.2.w.2.>.>.6.2.1.0.0.h & % o + + o o d G > ",
"  p w.-.*.,.,.,.-.;.>.t.;.2.2.e.2.u.u.e.a.t.t.5.6.t.w.q.y.y.t.y.y.y.1.u.t.q.0.0.0.2.2.2.2.2.t.2.0.e.%.,.%.%.-.G -.1.G > ",
"  p g : : : : : : = d >.2.u.u.6.u.<.H G &.%.T b b b G %.S G I G R T R R b G &.&.G G I 2.4.1.2.0.1.g : : : = = : = > A > ",
"  p :               o -.6.2.e.2.2.A g m m m w 7 5 5 r r 6 r 6 8 4 4 4 8 4 e h N z k m -.8.1.1.0.,.=               o k o ",
"  d H g g g g g k k A 2.2.e.2.u.G j j v n v i E.^.P._ E.^.' E ^.^.` ( ^./.| x B A v m A 2.6.1.6.2.G k g d k k d d G H   ",
"  d %.H C A A m C j G 0.2.>.t.<.j j S z i n Q OX5X)./ *X7X!.] =X3XR.P.2X6X' x B n v m j %.w.2.2.0.-.C H m m A m z =.H   ",
"  > -               =  .2.0.2.D j m A v i x P [.|.(.^ ].3X~.J.}. XU.K.}.-X( t S c c C C A ,.2.2.:.-               = k   ",
"  d > X .   .   o . 3 :.6.2.-.j j A A v n t E &X5X`.] ].5X~.] >X3XU.L.<X4X+.x n i c Z H j T u.t.<.d o X o . . o . ; A   ",
"  d T A H A H H C z H -.:.:.H k k j j j w t L .XOXE.~ XXOX[ ( XXoX' ' _.+X| l l u u M k g z G G T H m z C c m z z C z   ",
"    o X . X . X     . X   .     X     X $ $   + @ @ O @ O O O @ @ O @ < O X $ $ X . . .         X o   . o   . o o X     "
};
