/* XPM */
static char *_aa5757f8c0a4581d6238c3f465bd8e90lgdC8QyZ6RVo9cD[] = {
/* columns rows colors chars-per-pixel */
"48 45 7 1 ",
"  c None",
". c black",
"X c gray20",
"o c red",
"O c #8DACE0",
"+ c #CEDEF4",
"@ c white",
/* pixels */
"      ..................                        ",
"      ..................                        ",
"      ..................                        ",
"   ...++++++++++++++++++...                     ",
"   ...++++++++++++++++++...                     ",
"   ...++++++++++++++++++...                     ",
"...++++++++++++OOOOOO+++OOO...                  ",
"...++++++++++++OOOOOO+++OOO...                  ",
"...++++++++++++OOOOOO+++OOO...                  ",
"   .........OOO+++OOOOOOOOO...                  ",
"   .........OOO+++OOOOOOOOO...                  ",
"   .........OOO+++OOOOOOOOO...                  ",
"      ...OOOOOOOOOOOO...OOO...                  ",
"      ...OOOOOOOOOOOO...OOO...                  ",
"      ...OOOOOOOOOOOO...OOO...                  ",
"         ...OOOOOOOOO...OOO...                  ",
"         ...OOOOOOOOO...OOO...                  ",
"         ...OOOOOOOOO...OOO...                  ",
"         ......OOOOOOOOOOOO...                  ",
"         ......OOOOOOOOOOOO...                  ",
"         ......OOOOOOOOOOOO...                  ",
"         .........OOOOOOOOO..................   ",
"         .........OOOOOOOOO..................   ",
"      ............OOOOOOOOO...@@@@@@@@@XXXXXX   ",
"      ...XXX..................@@@@@@@@@XXXXXX...",
"      ...XXX..................@@@@@@@@@XXXXXX...",
"      ...XXX..................@@@@@@ooo@@@XXX   ",
"      ...XXXXXX...............@@@@@@ooo@@@..    ",
"      ...XXXXXX...............@@@@@@ooo@@@..    ",
"      ...XXXXXX...............@@@@@@ooo@@@..    ",
"      ...XXXXXXXXX...............@@@......      ",
"      ...XXXXXXXXX...............@@@......      ",
"      ...XXXXXXXXX...............@@@            ",
"      ...XXXXXXXXXXXXXXXXXX.........            ",
"      ...XXXXXXXXXXXXXXXXXX.........            ",
"      ...XXXXXXXXXXXXXXXXXX                     ",
"      .....................                     ",
"      .....................                     ",
"         ..................                     ",
"         ..................                     ",
"         ..................                     ",
"         ..................                     ",
"               .........                        ",
"               .........                        ",
"               .........                        "
};
