/* XPM */
static char *result[] = {
/* columns rows colors chars-per-pixel */
"60 60 9 1 ",
"  c black",
". c gray20",
"X c red",
"o c #CC9869",
"O c #E3B96E",
"+ c #F3D487",
"@ c #8DACE0",
"# c #CEDEF4",
"$ c white",
/* pixels */
"ooooooOOOOOOOOOOOOOOOOOOOOOOOOOOOOOOOOOOOOOOOOOOOOOOOOoooooo",
"ooooooOOOOOOOOOOOOOOOOOOOOOOOOOOOOOOOOOOOOOOOOOOOOOOOOoooooo",
"ooooooOOOOOOOOOOOOOOOOOOOOOOOOOOOOOOOOOOOOOOOOOOOOOOOOoooooo",
"ooo++++++++++++++++++++++++++++++++++++++++++++++++++++++ooo",
"ooo++++++++++++++++++++++++++++++++++++++++++++++++++++++ooo",
"ooo++++++++++++++++++++++++++++++++++++++++++++++++++++++ooo",
"OOO++++++++++++++++++++++++++++++++++++++++++++++++++++++OOO",
"OOO+++++++++                  +++++++++++++++++++++++++++OOO",
"OOO+++++++++                  +++++++++++++++++++++++++++OOO",
"OOO+++++++++                  +++++++++++++++++++++++++++OOO",
"OOO++++++   ##################   ++++++++++++++++++++++++OOO",
"OOO++++++   ##################   ++++++++++++++++++++++++OOO",
"OOO++++++   ##################   ++++++++++++++++++++++++OOO",
"OOO+++   ############@@@@@@###@@@   +++++++++++++++++++++OOO",
"OOO+++   ############@@@@@@###@@@   +++++++++++++++++++++OOO",
"OOO+++   ############@@@@@@###@@@   +++++++++++++++++++++OOO",
"OOO++++++         @@@###@@@@@@@@@   +++++++++++++++++++++OOO",
"OOO++++++         @@@###@@@@@@@@@   +++++++++++++++++++++OOO",
"OOO++++++         @@@###@@@@@@@@@   +++++++++++++++++++++OOO",
"OOO+++++++++   @@@@@@@@@@@@   @@@   +++++++++++++++++++++OOO",
"OOO+++++++++   @@@@@@@@@@@@   @@@   +++++++++++++++++++++OOO",
"OOO+++++++++   @@@@@@@@@@@@   @@@   +++++++++++++++++++++OOO",
"OOO++++++++++++   @@@@@@@@@   @@@   +++++++++++++++++++++OOO",
"OOO++++++++++++   @@@@@@@@@   @@@   +++++++++++++++++++++OOO",
"OOO++++++++++++   @@@@@@@@@   @@@   +++++++++++++++++++++OOO",
"OOO++++++++++++      @@@@@@@@@@@@   +++++++++++++++++++++OOO",
"OOO++++++++++++      @@@@@@@@@@@@   +++++++++++++++++++++OOO",
"OOO++++++++++++      @@@@@@@@@@@@   +++++++++++++++++++++OOO",
"OOO++++++++++++         @@@@@@@@@                  ++++++OOO",
"OOO++++++++++++         @@@@@@@@@                  ++++++OOO",
"OOO+++++++++            @@@@@@@@@   $$$$$$$$$......++++++OOO",
"OOO+++++++++   ...                  $$$$$$$$$......   +++OOO",
"OOO+++++++++   ...                  $$$$$$$$$......   +++OOO",
"OOO+++++++++   ...                  $$$$$$XXX$$$...++++++OOO",
"OOO+++++++++   ......               $$$$$$XXX$$$  +++++++OOO",
"OOO+++++++++   ......               $$$$$$XXX$$$  +++++++OOO",
"OOO+++++++++   ......               $$$$$$XXX$$$  +++++++OOO",
"OOO+++++++++   .........               $$$      +++++++++OOO",
"OOO+++++++++   .........               $$$      +++++++++OOO",
"OOO+++++++++   .........               $$$+++++++++++++++OOO",
"OOO+++++++++   ..................         +++++++++++++++OOO",
"OOO+++++++++   ..................         +++++++++++++++OOO",
"OOO+++++++++   ..................++++++++++++++++++++++++OOO",
"OOO+++++++++                     ++++++++++++++++++++++++OOO",
"OOO+++++++++                     ++++++++++++++++++++++++OOO",
"OOO++++++++++++                  ++++++++++++++++++++++++OOO",
"OOO++++++++++++                  ++++++++++++++++++++++++OOO",
"OOO++++++++++++                  ++++++++++++++++++++++++OOO",
"OOO++++++++++++                  ++++++++++++++++++++++++OOO",
"OOO++++++++++++++++++         +++++++++++++++++++++++++++OOO",
"OOO++++++++++++++++++         +++++++++++++++++++++++++++OOO",
"OOO++++++++++++++++++         +++++++++++++++++++++++++++OOO",
"OOO++++++++++++++++++         +++++++++++++++++++++++++++OOO",
"OOO++++++++++++++++++++++++++++++++++++++++++++++++++++++OOO",
"ooo++++++++++++++++++++++++++++++++++++++++++++++++++++++ooo",
"ooo++++++++++++++++++++++++++++++++++++++++++++++++++++++ooo",
"ooo++++++++++++++++++++++++++++++++++++++++++++++++++++++ooo",
"ooooooOOOOOOOOOOOOOOOOOOOOOOOOOOOOOOOOOOOOOOOOOOOOOOOOoooooo",
"ooooooOOOOOOOOOOOOOOOOOOOOOOOOOOOOOOOOOOOOOOOOOOOOOOOOoooooo",
"ooooooOOOOOOOOOOOOOOOOOOOOOOOOOOOOOOOOOOOOOOOOOOOOOOOOoooooo"
};
