/* XPM */
static char *f9a06cdaaa184ca7d1c830e73a57d54emYIRnE5pLJmLY41h[] = {
/* columns rows colors chars-per-pixel */
"60 60 206 2 ",
"   c #000000",
".  c #05030A",
"X  c #0A0508",
"o  c #0B0B0B",
"O  c #140302",
"+  c #130C0C",
"@  c #1A0803",
"#  c #181705",
"$  c #060313",
"%  c #0B0715",
"&  c #130F13",
"*  c #130610",
"=  c #131314",
"-  c #171914",
";  c #1C1A15",
":  c #151519",
">  c #1C1C1C",
",  c #19161C",
"<  c #201F1F",
"1  c #2A1C08",
"2  c #1F201E",
"3  c #2C2705",
"4  c #332D04",
"5  c #37270C",
"6  c #34310B",
"7  c #353207",
"8  c #22221E",
"9  c #29251C",
"0  c #27281B",
"q  c #2A2619",
"w  c #362B12",
"e  c #332C1A",
"r  c #38271B",
"t  c #2D311A",
"y  c #373618",
"u  c #1E1D23",
"i  c #1C1722",
"p  c #201F23",
"a  c #222222",
"s  c #2C2C24",
"d  c #262629",
"f  c #2A272E",
"g  c #2C2C2C",
"h  c #2B2623",
"j  c #322522",
"k  c #312E2E",
"l  c #352827",
"z  c #2D3326",
"x  c #32322D",
"c  c #39372A",
"v  c #2C2D31",
"b  c #322D33",
"n  c #342D3A",
"m  c #3F2D3D",
"M  c #2E3133",
"N  c #2C323D",
"B  c #333333",
"V  c #393535",
"C  c #3A3936",
"Z  c #33343D",
"A  c #3C3B3B",
"S  c #363A35",
"D  c #533F00",
"F  c #433A1D",
"G  c #49391A",
"H  c #553C18",
"J  c #413E3D",
"K  c #413037",
"L  c #453A25",
"P  c #3C4038",
"I  c #574609",
"U  c #4C4715",
"Y  c #53431A",
"T  c #5F5B1A",
"R  c #604201",
"E  c #7F4F00",
"W  c #754E02",
"Q  c #68540A",
"!  c #7E5700",
"~  c #624F1E",
"^  c #675816",
"/  c #725A16",
"(  c #7C690B",
")  c #76640B",
"_  c #7A701E",
"`  c #484426",
"'  c #574924",
"]  c #43433E",
"[  c #4A4639",
"{  c #4C4B3E",
"}  c #404034",
"|  c #57543F",
" . c #675826",
".. c #725D2B",
"X. c #6F6422",
"o. c #7B6C2D",
"O. c #3D3C42",
"+. c #363644",
"@. c #413F43",
"#. c #3D4243",
"$. c #434343",
"%. c #484746",
"&. c #474947",
"*. c #4C4B45",
"=. c #44444A",
"-. c #464B4C",
";. c #4C4C4C",
":. c #494748",
">. c #504D44",
",. c #524F4D",
"<. c #4F5047",
"1. c #4E534E",
"2. c #545344",
"3. c #52514D",
"4. c #595A4D",
"5. c #4D4C52",
"6. c #4B4A55",
"7. c #514E54",
"8. c #524E5A",
"9. c #4E5152",
"0. c #4C525B",
"q. c #525252",
"w. c #585656",
"e. c #5A5956",
"r. c #595659",
"t. c #5D5C5C",
"y. c #53525A",
"u. c #605E5D",
"i. c #625E53",
"p. c #5C6557",
"a. c #5D635D",
"s. c #64604E",
"d. c #646354",
"f. c #62635E",
"g. c #696957",
"h. c #726F5E",
"j. c #5E5F62",
"k. c #605F61",
"l. c #685F6D",
"z. c #5E6362",
"x. c #626262",
"c. c #6A6769",
"v. c #6C6C6C",
"b. c #64646A",
"n. c #706F6F",
"m. c #747566",
"M. c #706C70",
"N. c #727271",
"B. c #666371",
"V. c red",
"C. c #825E0E",
"Z. c #936E0B",
"A. c #9A790C",
"S. c #896912",
"D. c #896C1B",
"F. c #966D16",
"G. c #977611",
"H. c #937C16",
"J. c #8D7213",
"K. c #8C7832",
"L. c #807C6C",
"P. c #938112",
"I. c #988610",
"U. c #9B850C",
"Y. c #998836",
"T. c #8B8434",
"R. c #B99429",
"E. c #B98F30",
"W. c #A79336",
"Q. c #BEA12B",
"!. c #BBAC34",
"~. c #DAB13E",
"^. c #C8B234",
"/. c #E3BC2B",
"(. c #E8C939",
"). c #ECD236",
"_. c #F6CE38",
"`. c #958747",
"'. c #AC9542",
"]. c #BD9F49",
"[. c #B4A54A",
"{. c #B2A34C",
"}. c #85826F",
"|. c #C7B243",
" X c #D7BC45",
".X c #C8B652",
"XX c #E1BD5C",
"oX c #D7C34D",
"OX c #DDCA48",
"+X c #DBC959",
"@X c #E3C64B",
"#X c #E5C844",
"$X c #ECD24C",
"%X c #E8D347",
"&X c #F9D646",
"*X c #E3C951",
"=X c #F3CF52",
"-X c #F5DC57",
";X c #E0D256",
":X c #DAC964",
">X c #F1D663",
",X c #A39F86",
"<X c #A8A792",
"1X c #8DACE0",
"2X c #CEDEF4",
"3X c white",
/* pixels */
"=                                                                   X * * +                                           = ",
"  o a > > > > > > , > 2 = > = = = = = = : # # y U 6 3 U U 4 3 U H 5 1 ~  .G 1 ; > ; , i = - 0 > > > > > > > > > > a o   ",
"  a A g g g g g g g B ;.:.;.S v x B B B x e I [.:XW.W ^.OXP.)  X*XD.S.XX:Xo.F c K c V +.v ] d.:.3.S f d g g g g g A a   ",
"  > =               o &.;.;.&.g g B g n m w I ^.-XE.! /.&XA.C.@X(.Z.J.%X+Xo.L b b n n +.b 3.x.f.&.o               = >   ",
"  > a o o o o o o o , &.;.;.;.C g B B V K 5 I ^._.R.C./.&XA.C.#X).Z.Z.).OX_ ` C b B z g @.x.x.p.a.> o o o o o o o a 2   ",
"  a &.C B B B B S C &.5.:.;.9.:.B g B g x w I !.$XE.W  X*XH.( oXXXD.J.OX+XX.` #.Z g z x w.c.z.z.a.&.C B B B B B A %.a   ",
"  a g = = = = = = = a &.:.;.;.;.$.g g Z +.B y ^ ^ ~ G ^ X.Y G ....H Y ..X.c $.-.+.v g { i.b.x.z.z.h = = = = = = = d a   ",
"  > =               o &.                                    g h j l l r q t O.#.O.v z e.x.k.k.b.z.o               - >   ",
"  a B a a a a a u a B -.                                    -.#.-.q.j.8.3.3.4.z.x.w.e.x.j.j.z.z.z.x a u a a a a a S u   ",
"  a ;.A C C A C S C $.q.                                    5.9.p.a.b.B.x.d.d.v.N.M.l.k.z.a.a.z.z.=.C S A C S A A ;.8   ",
"  u u   o X o   X       2X2X2X2X2X2X2X2X2X2X2X2X2X2X2X2X2X2X      t.j.k.x.f.t.x.n.n.b.j.z.t.f.j.x.=   X X X X X   i p   ",
"  p i                   2X2X2X2X2X2X2X2X2X2X2X2X2X2X2X2X2X2X      j.x.x.f.j.x.f.v.N.c.z.x.j.k.k.f.=               u u   ",
"  a P B S x s x x       2X2X2X2X2X2X2X2X2X2X2X2X2X2X2X2X2X2X      t.x.t.k.a.x.t.c.N.v.x.t.x.t.f.f.A B x x t z S S #.2   ",
"  2 <.<.{ 4.      2X2X2X2X2X2X2X2X2X2X2X2X1X1X1X1X1X1X2X2X2X1X1X1X      x.t.x.t.f.c.N.c.t.x.x.j.f.;.;.*.2.m.4.{ 3.*.8   ",
"  8 <.<.[ m.      2X2X2X2X2X2X2X2X2X2X2X2X1X1X1X1X1X1X2X2X2X1X1X1X      f.k.t.x.x.x.N.v.z.t.x.a.x.t.;.*.h.<Xm.[ <.<.2   ",
"  8 *.*.*.2.      2X2X2X2X2X2X2X2X2X2X2X2X1X1X1X1X1X1X2X2X2X1X1X1X      t.t.z.t.t.z.v.v.c.t.t.t.t.t.t.k.2.d.<.{ *.*.8   ",
"  p ;.;.;.{ [ J C                   1X1X1X2X2X2X1X1X1X1X1X1X1X1X1X      $.$.P $.$.$.:.q.q.&.A #.A $.A $.P { { ;.;.5.p   ",
"  u 5.:.;.*.*.J x                   1X1X1X2X2X2X1X1X1X1X1X1X1X1X1X      B g B b b M B =.=.B k k g B g B O.;.;.;.;.5.u   ",
"  p 5.;.;.*.*.@.g                   1X1X1X2X2X2X1X1X1X1X1X1X1X1X1X      ;.q.q.1.q.q.1.t.x.t.q.;.;.q.$.v C ;.;.;.;.6.p   ",
"  p 6.5.5.5.*.$.k *.q.J       1X1X1X1X1X1X1X1X1X1X1X1X      1X1X1X      x.x.x.x.x.x.x.x.N.N.a.$.#.w.5.S A :.q.:.6.5.p   ",
"  u 8.6.5.5.;.@.x :.%.s       1X1X1X1X1X1X1X1X1X1X1X1X      1X1X1X      t.t.t.t.e.e.t.t.x.N.t.B s @.:.B A ;.5.:.6.5.a   ",
"  a 5.;.;.;.;.@.g %.;.C       1X1X1X1X1X1X1X1X1X1X1X1X      1X1X1X      t.t.e.t.t.t.t.t.t.v.b.;.S q.;.f @.;.;.;.;.5.a   ",
"  8 ;.:.;.;.:.$.b &.q.;.:.;.;.      1X1X1X1X1X1X1X1X1X      1X1X1X      t.t.t.e.r.w.t.e.r.c.c.x.r.t.;.g A ;.5.;.*.7.B   ",
"  u ;.;.;.;.;.$.B $.9.;.:.;.;.      1X1X1X1X1X1X1X1X1X      1X1X1X      j.q.5.A M B ;.t.e.j.c.c.t.w.:.b $.;.;.;.;.;.S   ",
"  a ;.;.;.;.;.&.B $.;.;.:.1.;.      1X1X1X1X1X1X1X1X1X      1X1X1X      ;.$.x g g k B r.e.r.c.v.x.q.$.B $.;.,.:.;.q.B   ",
"  2 ;.;.;.9.;.&.x $.5.;.;.;.:.            1X1X1X1X1X1X1X1X1X1X1X1X      g g g B B B g q.t.r.u.v.x.q.&.b %.,.;.;.;.;.B   ",
"  > ;.;.;.;.;.:.B #.q.;.;.;.;.            1X1X1X1X1X1X1X1X1X1X1X1X      g B B B g M $.w.r.r.t.b.k.r.%.b $.,.7.:.;.q.B   ",
"  a q.;.;.;.;.:.B $.;.;.;.;.q.            1X1X1X1X1X1X1X1X1X1X1X1X      B B g M C %.w.r.r.e.e.t.u.u.:.k =.;.;.;.;.q.B   ",
"  a ;.,.;.;.;.:.B A ;.:.:.;.q.                  1X1X1X1X1X1X1X1X1X                                    b :.;.;.:.;.5.B   ",
"  a 5.;.;.;.;.:.M ] ;.;.;.;.w.                  1X1X1X1X1X1X1X1X1X                                    B :.,.;.;.;.q.B   ",
"  a 5.1.;.;.1.:.k O.;.;.                        1X1X1X1X1X1X1X1X1X      3X3X3X3X3X3X3X3X3XB B B B B B A $.,.;.;.;.q.B   ",
"  > ;.;.;.;.;.-.M ] 9.;.      B B B                                     3X3X3X3X3X3X3X3X3XB B B B B B       ;.;.:.q.B   ",
"  > ;.q.;.;.;.:.B O.5.:.      B B B                                     3X3X3X3X3X3X3X3X3XB B B B B B       ;.;.;.5.B   ",
"  a ;.;.;.;.;.-.B ] 3.,.      B B S                                     3X3X3X3X3X3XV.V.V.3X3X3XB B B $.w.:.;.;.;.3.B   ",
"  u ;.:.;.;.:.&.k A ;.3.      B B M B B B                               3X3X3X3X3X3XV.V.V.3X3X3X    $.$.t.3.;.:.:.7.B   ",
"  a ;.;.;.;.;.:.x ] ;.;.      B B B B B B                               3X3X3X3X3X3XV.V.V.3X3X3X    ] J t.e.;.;.;.1.B   ",
"  a 1.;.:.;.;.;.B ] 3.q.      B B B B B B                               3X3X3X3X3X3XV.V.V.3X3X3X    ] C t.t.q.:.;.;.B   ",
"  2 ;.;.;.;.;.;.B A 3.e.      B B B B B B B B B                               3X3X3X            ;.;.] B e.f.e.:.;.;.B   ",
"  > q.;.:.;.;.1.B J 3.;.      B B B B B B B B B                               3X3X3X            ] :.A k q.f.t.q.;.;.B   ",
"  a ;.;.;.;.5.;.B ] %.V       B B B B B B B B B                               3X3X3Xq.3.;.;.$.V x J A k 3.e.t.r.;.1.B   ",
"  u ;.:.;.;.;.5.g A ] k       B B B B B B B B B B B B B B B B B B                   ,.;.*.,.$.k g C A k ,.3.u.e.1.;.B   ",
"  a ;.;.;.:.;.q.V A ] A       B B B B B B B B B B B B B B B B B B                   J J A J C x x V x k 3.q.a.t.w.5.B   ",
"  a ;.;.;.;.;.q.x x B x       B B B B B B B B B B B B B B B B B B B V b V B b V B b V k x B B k x B k x q.;.3.t.e.7.B   ",
"  2 ;.;.;.;.,.q.J C A ]                                           J J J J J J @.J J J A A A A C A ] J ] w.3.3.e.t.r.B   ",
"  2 ;.;.;.&.&.q.t.e.e.e.                                          u.u.u.u.u.u.t.u.r.e.w.e.t.r.r.r.u.w.w.q.%.*.q.z.e.S   ",
"  p ;.*.>.i.L.i.,.q.3.9.;.q.;.                                    9.1.;.8.8.8.*.*.*.6.6.;.;.:.;.:.*.>.{ 2.}.d.;.e.z.O.  ",
"  p *.>.[ h.,Xg.*.w.;.w.q.;.;.                                    1.3.<.q.8.8.>.{ >.5.;.;.;.;.5.*.,.| [ | ,X}.%.w.t.$.  ",
"  p ,.,.>.2.s.2.3.q.q.w.5.1.;.                                    3.3.3.q.7.7.*.*.*.6.5.;.5.;.5.;.,.>.2.{ s.2.%.5.a.;.X ",
"  u A a < 9 1 8 h d S :.;.1.;.                                    3.3.3.7.q.,.;.*.;.;.1.-.;.6.;.6.S 8 9 8 q q a h #.:.= ",
"  p =               o -.q.:.5.;.q.q.q.7.7.                  2.,.7.3.,.q.7.5.;.:.-.-.*.;.;.;.;.5.6.,               : S > ",
"  p f % & & o & + = d :.;.:.9.q.1.q.q.7.8.                  3.7.q.7.7.y.8.;.<.;.6.;.*.;.1.;.;.5.;.f = % + + + o o a A > ",
"  u 5.=.@.=.=.:.&.$.;.5.%.;.;.3.;.q.q.q.y.                  5.0.0.0.-.9.9.0.6.6.;.;.;.;.&.;.9.-.5.5.@.=.A O.@.#.&.:.P > ",
"  u d = : : : : = = a &.3.7.q.1.7.=.S A +.                  J J S P P c c Z +.O.A A J *.1.:.;.5.;.d : : : = = = = u B = ",
"  u :               = $.;.;.q.5.:.S d v v v 0 6 4 4 w w 5 5 5 4 6 3 6 4 4 t f v g s b $.9.;.:.9.&.=               o g o ",
"  a C d d d d d d h B ;.;.1.5.3.A g B x x c F K.Y.D.~ K.Y./ I Y.Y.^ Q Y.T.' b m B x v S :.9.-.;.-.A d d h d d a a C S   ",
"  a #.B M Z B M B g C 5.;.;.9.:.B g B z y l Y [.-XE.W XX>XP.( oX=XD.S.*X;X .j b x x v g O.;.-.;.;.=.B M v v M B B #.S   ",
"  2 -               = #.;.;.;.S g g B x y l H ^.).R.C.~.=XU.( (._.F.Z.#XOXQ r V z z M g S =.;.;.&.-               = g   ",
"  a > X .   X   o X > $.1.;.$.g g B B x c y I .X-XR.( ~.-XI.( @X&XF.A.$X;X .l c y z N S g P 9.q.-.a o o o X o X X - B   ",
"  u P S S S S S M g C &.&.&.M s d k g g 0 e G `.].K.R W.{.) Q '.]./ / W.{.' j l t z v d d k P P P A g g M g g g g k g   ",
"  X o .   X X X X   X X   X           X $ $ . + @ @ @ @ O O O @ @ O @ # O X $ $     $ .     X   o X   X o   . o o X X   "
};
