/* XPM */
static char *_6ca5ded17144cbeca687b765a9473500Q8qmM5MUCSK698t[] = {
/* columns rows colors chars-per-pixel */
"60 60 207 2 ",
"   c #010101",
".  c #05030A",
"X  c #0A0508",
"o  c #0B0B0B",
"O  c #140302",
"+  c #190501",
"@  c #130C0C",
"#  c #1A0A04",
"$  c #181705",
"%  c #060313",
"&  c #0B0715",
"*  c #130F13",
"=  c #130610",
"-  c #131314",
";  c #171914",
":  c #1C1A15",
">  c #151519",
",  c #1C1C1C",
"<  c #211B0D",
"1  c #321C03",
"2  c #201F1F",
"3  c #1F201E",
"4  c #2B2807",
"5  c #332D04",
"6  c #39250C",
"7  c #35280C",
"8  c #34310B",
"9  c #353207",
"0  c #232117",
"q  c #22221D",
"w  c #29251C",
"e  c #26281B",
"r  c #2D2B19",
"t  c #362B12",
"y  c #332C1A",
"u  c #3C291D",
"i  c #342619",
"p  c #2C3015",
"a  c #2C321D",
"s  c #373618",
"d  c #1E1D23",
"f  c #1C1722",
"g  c #201F23",
"h  c #222222",
"j  c #2B2623",
"k  c #262629",
"l  c #2B272E",
"z  c #2C2C2C",
"x  c #2B2C25",
"c  c #322522",
"v  c #322E2E",
"b  c #352827",
"n  c #2D3326",
"m  c #33322C",
"M  c #393D2C",
"N  c #393629",
"B  c #2C2D31",
"V  c #222A35",
"C  c #322D33",
"Z  c #342D3A",
"A  c #3F2D3D",
"S  c #2E3133",
"D  c #2C323D",
"F  c #333333",
"G  c #3A3335",
"H  c #3B3A34",
"J  c #33343D",
"K  c #3B3B3B",
"L  c #363A35",
"P  c #533F00",
"I  c #433A1D",
"U  c #49391A",
"Y  c #553C18",
"T  c #413E3B",
"R  c #413037",
"E  c #453A25",
"W  c #3D413C",
"Q  c #3C4034",
"!  c #574609",
"~  c #4C4715",
"^  c #53431A",
"/  c #5F5B1A",
"(  c #604201",
")  c #7F4F00",
"_  c #754E02",
"`  c #68540A",
"'  c #7E5700",
"]  c #624F1E",
"[  c #695C15",
"{  c #665317",
"}  c #725A16",
"|  c #7C690B",
" . c #76640B",
".. c #7A701E",
"X. c #484426",
"o. c #574924",
"O. c #44443D",
"+. c #4A4639",
"@. c #4C4B3E",
"#. c #404034",
"$. c #57543F",
"%. c #675826",
"&. c #725D2B",
"*. c #6F6422",
"=. c #7B6C2D",
"-. c #3C3C42",
";. c #363644",
":. c #413F43",
">. c #3D4243",
",. c #444344",
"<. c #484747",
"1. c #464845",
"2. c #4B4B44",
"3. c #44444A",
"4. c #494748",
"5. c #474A4B",
"6. c #4C4C4C",
"7. c #504F4B",
"8. c #504C40",
"9. c #4F5047",
"0. c #4C534D",
"q. c #545343",
"w. c #52524D",
"e. c #575A4D",
"r. c #4E4D52",
"t. c #4D4F5B",
"y. c #454A53",
"u. c #534E53",
"i. c #4E5252",
"p. c #4C515B",
"a. c #525251",
"s. c #585654",
"d. c #5A5955",
"f. c #5D5C5C",
"g. c #54515B",
"h. c #615F5C",
"j. c #625E53",
"k. c #5D635D",
"l. c #64604E",
"z. c #636353",
"x. c #62635E",
"c. c #696A58",
"v. c #696957",
"b. c #726F5E",
"n. c #5D5E62",
"m. c #5E6363",
"M. c #616363",
"N. c #686768",
"B. c #767767",
"V. c #BA0000",
"C. c #825E0E",
"Z. c #936E0B",
"A. c #9A790C",
"S. c #896912",
"D. c #8E6D1A",
"F. c #806A1E",
"G. c #966D16",
"H. c #8D7213",
"J. c #977611",
"K. c #937C16",
"L. c #8C7832",
"P. c #807C6C",
"I. c #938112",
"U. c #988610",
"Y. c #9B850C",
"T. c #998836",
"R. c #8B8434",
"E. c #B99429",
"W. c #B98F30",
"Q. c #A79336",
"!. c #BEA12B",
"~. c #BBAC34",
"^. c #DAB13E",
"/. c #C8B234",
"(. c #E3BC2B",
"). c #E8C939",
"_. c #ECD236",
"`. c #F6CE38",
"'. c #958747",
"]. c #AC9542",
"[. c #BD9F49",
"{. c #B4A54A",
"}. c #B2A34C",
"|. c #84816D",
" X c #868371",
".X c #C7B243",
"XX c #D7BC45",
"oX c #C8B652",
"OX c #E1BD5C",
"+X c #D7C34D",
"@X c #DDCA48",
"#X c #DBC959",
"$X c #E3C64B",
"%X c #E5C844",
"&X c #ECD24C",
"*X c #E8D347",
"=X c #F9D646",
"-X c #E4CC52",
";X c #E1C451",
":X c #F3CF52",
">X c #E0D256",
",X c #F5DC57",
"<X c #DAC964",
"1X c #F1D663",
"2X c #A39F86",
"3X c #A8A793",
"4X c white",
/* pixels */
"-                                                                     = * @                                           - ",
"  o h , , , , , , , , 2 > , - - > - - - > $ $ s ~ 8 4 ~ ~ 5 4 ~ Y 6 1 o.%.U < : , : , f > ; e : , , , , , , , , , 3 o   ",
"  h K z z z z z k z F a.<.<.K v v F v F m y ! {.<XQ._ /.@XK. .XX;XD.S.#X<X=.I N G N G ;.Z K z.6.6.F z k z z z z z K h   ",
"  , -               o ,.6.6.,.z B F v Z A t ! /.,XW.' (.=XA.C.$X`.S.G.*X#X=.E C Z Z Z Z C 9.x.x.6.o               - ,   ",
"  3 h X X o o X o o , ,.6.6.6.L x S L F A 6 ! /.`.E.C.(.`.A.C.%X_.Z.Z._.@X..X.H F C m z :.M.M.k.x., o o   o o o o , ,   ",
"  h 1.K L F F L F L ,.a.6.6.r.6.S z F v m t ! ~.&XW._ XX>XK.| +XOXD.Z.@X#X*.X.,.J v a m s.N.M.m.k.,.K F K F F F K 6.k   ",
"  3 x * - - - - - - h ,.6.6.6.6.,.v z F ;.F s / [ ] U { *.^ U &.&.Y Y &.%.I ,.y.;.V n @.j.N.n.M.m.h - * * - > - - k 3   ",
"  , >               * ,.0.6.6.6.6.F k B V k e p 4 r x 4 p e z j c l b r r a -.>.-.B m d.M.M.n.M.m.@               ; ,   ",
"  h F h h h h h h h F <.6.6.6.6.i.<.K ,.,.W 1.0.r.i.a.e.e.i.y.>.<.p.n.u.s.q.e.M.x.d.f.M.M.n.m.m.k.S h h h h h h h F h   ",
"  h 6.K L K K K L V.V.V.V.V.V.V.V.V.V.V.V.V.V.V.V.V.V.V.V.V.V.V.V.V.V.V.V.V.V.V.V.V.V.V.V.V.V.V.V.V.V.L K K L K K 6.q   ",
"  d , . o   X .   V.V.V.V.V.V.V.V.V.V.V.V.V.V.V.V.V.V.V.V.V.V.V.V.V.V.V.V.V.V.V.V.V.V.V.V.V.V.V.V.V.V.o   o . X . d d   ",
"  d ,             V.V.V.V.V.V.V.V.V.V.V.V.V.V.V.V.V.V.V.V.V.V.V.V.V.V.V.V.V.V.V.V.V.V.V.V.V.V.V.V.V.V.            f d   ",
"  d >.F M m n n F V.V.V.V.V.V.V.V.V.V.V.V.V.V.V.4X4X4X4X4X4X4X4X4X4X4X4XV.V.V.V.V.V.V.V.V.V.V.V.V.V.V.m m x m M F W 3   ",
"  q 9.9.@.e.P.q.2.V.V.V.V.V.V.V.V.V.V.V.V.V.V.V.4X4X4X4X4X4X4X4X4X4X4X4XV.V.V.V.V.V.V.V.V.V.V.V.V.V.V.2.q.B.e.@.w.2.q   ",
"  q 6.9.+.b.3Xc.2.V.V.V.V.V.V.V.V.V.V.V.V.V.V.V.4X4X4X4X4X4X4X4X4X4X4X4XV.V.V.V.V.V.V.V.V.V.V.V.V.V.V.1.c.3XB.+.9.9.q   ",
"  q 2.@.@.q.z.9.2.V.V.V.V.V.V.V.V.V.V.V.V.V.V.V.4X4X4X4X4X4X4X4X4X4X4X4XV.V.V.V.V.V.V.V.V.V.V.V.V.V.V.k.q.z.q.@.2.2.q   ",
"  g r.6.7.2.+.#.L V.V.V.V.V.V.V.V.V.V.V.V.V.V.V.4X4X4X4X4X4X4X4X4X4X4X4XV.V.V.V.V.V.V.V.V.V.V.V.V.V.V.,.>.+.2.7.6.r.d   ",
"  g r.4.6.2.2.T F V.V.V.V.V.V.V.V.V.V.V.V.V.V.V.4X4X4X4X4X4X4X4X4X4X4X4XV.V.V.V.V.V.V.V.V.V.V.V.V.V.V.F K 6.6.6.6.r.d   ",
"  d r.4.6.6.6.T z V.V.V.V.V.V.V.V.V.V.V.V.V.V.V.4X4X4X4X4X4X4X4X4X4X4X4XV.V.V.V.V.V.V.V.V.V.V.V.V.V.V.S K 6.6.6.6.r.g   ",
"  g r.r.r.6.6.:.v V.V.V.V.V.V.V.V.V.V.V.V.V.V.V.4X4X4X4X4X4X4X4X4X4X4X4XV.V.V.V.V.V.V.V.V.V.V.V.V.V.V.F K <.6.6.r.r.d   ",
"  g r.r.r.6.6.:.m V.V.V.V.V.V.V.V.V.V.V.V.V.V.V.4X4X4X4X4X4X4X4X4X4X4X4XV.V.V.V.V.V.V.V.V.V.V.V.V.V.V.F T 6.6.6.y.r.g   ",
"  d r.6.r.6.6.:.z V.V.V.V.V.V.V.V.V.V.V.V.V.V.V.4X4X4X4X4X4X4X4X4X4X4X4XV.V.V.V.V.V.V.V.V.V.V.V.V.V.V.z :.6.6.6.6.r.,   ",
"  g 6.6.6.6.6.,.F V.V.V.V.V.V.V.V.V.V.V.V.V.V.V.4X4X4X4X4X4X4X4X4X4X4X4XV.V.V.V.V.V.V.V.V.V.V.V.V.V.V.z K 6.r.<.6.a.F   ",
"  3 6.6.6.6.<.,.F V.V.V.V.V.V.V.V.V.V.V.V.V.V.V.4X4X4X4X4X4X4X4X4X4X4X4XV.V.V.V.V.V.V.V.V.V.V.V.V.V.V.B ,.6.6.6.6.a.F   ",
"  , 6.6.6.6.r.,.F V.V.V.4X4X4X4X4X4X4X4X4X4X4XV.V.4X4X4X4X4X4X4X4X4X4X4X4X4X4X4X4X4X4X4X4X4X4X4XV.V.V.F ,.6.6.6.6.a.F   ",
"  h r.7.6.6.6.<.S V.V.V.4X4X4X4X4X4X4X4X4X4X4XV.V.V.4X4X4X4X4X4X4X4X4X4X4X4X4X4X4X4X4X4X4X4X4X4XV.V.V.F <.6.7.6.6.a.F   ",
"  h 6.6.6.6.w.6.F V.V.V.4X4X4X4X4X4X4X4X4X4X4XV.V.V.V.4X4X4X4X4X4X4X4X4X4X4X4X4X4X4X4X4X4X4X4X4XV.V.V.C :.7.6.6.6.6.F   ",
"  , 6.0.6.6.6.<.F V.V.V.4X4X4X4X4X4X4X4X4X4X4XV.V.V.V.V.4X4X4X4X4X4X4X4X4X4X4X4X4X4X4X4X4X4X4X4XV.V.V.v 4.6.6.6.6.a.F   ",
"  h 6.a.6.6.6.3.F V.V.V.4X4X4X4X4X4X4X4X4X4X4XV.V.V.V.V.V.4X4X4X4X4X4X4X4X4X4X4X4X4X4X4X4X4X4X4XV.V.V.v 6.4.r.4.6.w.F   ",
"  h 6.6.6.6.6.6.F V.V.V.4X4X4X4X4X4X4X4X4X4X4XV.V.V.V.V.V.V.4X4X4X4X4X4X4X4X4X4X4X4X4X4X4X4X4X4XV.V.V.G 4.6.6.r.6.r.F   ",
"  , i.6.0.6.6.<.z V.V.V.4X4X4X4X4X4X4X4X4X4X4XV.V.V.V.V.V.V.4X4X4X4X4X4X4X4X4X4X4X4X4X4X4X4X4X4XV.V.V.T :.6.r.4.6.w.F   ",
"  h 6.6.6.6.6.<.F V.V.V.4X4X4X4X4X4X4X4X4X4X4XV.V.V.V.V.V.V.4X4X4X4X4X4X4X4X4X4X4X4X4X4X4X4X4X4XV.V.V.T 4.6.7.6.6.r.F   ",
"  h 6.6.6.6.6.5.S V.V.V.4X4X4X4X4X4X4X4X4X4X4XV.V.V.V.V.V.V.4X4X4X4X4X4X4X4X4X4X4X4X4X4X4X4X4X4XV.V.V.,.a.4.6.6.6.7.F   ",
"  , 0.6.6.6.6.<.F V.V.V.4X4X4X4X4X4X4X4X4X4X4XV.V.V.V.V.V.V.4X4X4X4X4X4X4X4X4X4X4X4X4X4X4X4X4X4XV.V.V.,.s.6.6.6.6.7.F   ",
"  g 6.6.6.6.6.<.m V.V.V.4X4X4X4X4X4X4X4X4X4X4XV.V.V.V.V.V.V.4X4X4X4X4X4X4X4X4X4X4X4X4X4X4X4X4X4XV.V.V.,.d.u.6.6.6.r.F   ",
"  g 6.6.6.6.6.<.m V.V.V.4X4X4X4X4X4X4X4X4X4X4XV.V.V.V.V.V.V.4X4X4X4X4X4X4X4X4X4X4X4X4X4X4X4X4X4XV.V.V.T h.d.6.6.6.6.F   ",
"  2 6.6.6.6.6.6.F V.V.V.V.V.V.V.V.V.V.V.V.V.V.V.V.V.V.V.V.V.4X4X4X4X4X4XV.V.V.V.V.V.V.V.V.V.V.V.V.V.V.L d.h.a.4.6.6.F   ",
"  q a.6.6.6.6.6.m V.V.V.V.V.V.V.V.V.V.V.V.V.V.V.V.V.V.V.V.V.4X4X4X4X4X4XV.V.V.V.V.V.V.V.V.V.V.V.V.V.V.F f.M.s.4.6.6.F   ",
"  h 6.6.6.6.6.6.F V.V.V.V.V.V.V.V.V.V.V.V.V.V.V.4X4X4X4X4X4X4X4X4X4X4X4XV.V.V.V.V.V.V.V.V.V.V.V.V.V.V.C a.h.f.a.6.7.F   ",
"  , 6.6.6.6.6.6.F V.V.V.V.V.V.V.V.V.V.V.V.V.V.V.4X4X4X4X4X4X4X4X4X4X4X4XV.V.V.V.V.V.V.V.V.V.V.V.V.V.V.v 7.d.M.a.6.0.F   ",
"  h 6.6.6.6.6.r.z V.V.V.V.V.V.V.V.V.V.V.V.V.V.V.4X4X4X4X4X4X4X4X4X4X4X4XV.V.V.V.V.V.V.V.V.V.V.V.V.V.V.m 7.w.h.f.6.6.F   ",
"  , 6.6.6.6.6.a.F V.V.V.V.V.V.V.V.V.V.V.V.V.V.V.4X4X4X4X4X4X4X4X4X4X4X4XV.V.V.V.V.V.V.V.V.V.V.V.V.V.V.v w.a.f.f.a.6.F   ",
"  , 6.6.6.6.6.a.m V.V.V.V.V.V.V.V.V.V.V.V.V.V.V.4X4X4X4X4X4X4X4X4X4X4X4XV.V.V.V.V.V.V.V.V.V.V.V.V.V.V.G a.6.a.h.f.a.F   ",
"  h 6.6.6.6.w.a.O.V.V.V.V.V.V.V.V.V.V.V.V.V.V.V.4X4X4X4X4X4X4X4X4X4X4X4XV.V.V.V.V.V.V.V.V.V.V.V.V.V.V.O.s.w.7.d.f.f.F   ",
"  h 6.6.r.3.<.a.f.V.V.V.V.V.V.V.V.V.V.V.V.V.V.V.4X4X4X4X4X4X4X4X4X4X4X4XV.V.V.V.V.V.V.V.V.V.V.V.V.V.V.d.s.2.1.a.f.f.F   ",
"  , 2.6.8.j.P.z.6.V.V.V.V.V.V.V.V.V.V.V.V.V.V.V.4X4X4X4X4X4X4X4X4X4X4X4XV.V.V.V.V.V.V.V.V.V.V.V.V.V.V.8.q.P.v.6.f.n.K   ",
"  g 7.2.+.b.2Xv.2.V.V.V.V.V.V.V.V.V.V.V.V.V.V.V.4X4X4X4X4X4X4X4X4X4X4X4XV.V.V.V.V.V.V.V.V.V.V.V.V.V.V.+.$.2X X<.a.f.,.  ",
"  g 7.7.8.q.l.q.w.V.V.V.V.V.V.V.V.V.V.V.V.V.V.V.4X4X4X4X4X4X4X4X4X4X4X4XV.V.V.V.V.V.V.V.V.V.V.V.V.V.V.q.+.l.q.6.a.M.6.  ",
"  g K q q w : w j V.V.V.V.V.V.V.V.V.V.V.V.V.V.V.V.V.V.V.V.V.V.V.V.V.V.V.V.V.V.V.V.V.V.V.V.V.V.V.V.V.V.j 0 w 0 h h ,.1.- ",
"  g >             V.V.V.V.V.V.V.V.V.V.V.V.V.V.V.V.V.V.V.V.V.V.V.V.V.V.V.V.V.V.V.V.V.V.V.V.V.V.V.V.V.V.            > K , ",
"  g l & * * o @ - V.V.V.V.V.V.V.V.V.V.V.V.V.V.V.V.V.V.V.V.V.V.V.V.V.V.V.V.V.V.V.V.V.V.V.V.V.V.V.V.V.V.o o @ @ o o j K , ",
"  d r.:.:.3.3.4.,.,.0.a.,.6.i.6.0.a.a.a.p.i.a.0.0.i.y.t.p.p.p.p.p.p.5.i.a.p.t.y.r.6.6.6.6.6.6.6.u.r.3.3.-.-.:.W ,.<.>.: ",
"  d k - > > > > > * h <.a.a.a.6.a.3.L K ;.-.W M M M H :.G K T K L W Q M H L ;.;.-.K T 6.6.6.6.r.6.k > > > - - > - , F > ",
"  d >               @ >.r.6.a.a.6.G k B S B e 8 5 5 t t 7 t 6 8 5 4 9 5 5 r l C z j z ,.i.<.6.i.3.-               o z o ",
"  h K k k k k k k k F 6.6.6.r.6.K z S m m N I L.T.F.] L.T.} ! T.T.{ { T.R.o.C Z F m B S 6.6.5.0.6.K h k h k k h h K F   ",
"  h >.F S F F B S z K w.6.6.a.4.v z F n s b ^ {.,XW._ OX1XU.| XX:XD.S.-X-X%.c C M m S z -.6.6.6.i.>.F F S S B m S W K   ",
"  , ;     .         - ,.7.6.6.L z S S n s b Y /._.E.) ^.:XY.| ).`.G.Z.).@X` y G n n S z F ,.6.6.1.;               @ x   ",
"  h 3       o     o , ,.a.6.,.z v F F m N t ! oX,X!.| ^.,XU.| %X=XG.J.&X>X%.b N s n D J z W a.i.6.h o   o o o   o > S   ",
"  h ,.F F K L L F z L ,.1.,.F z z z z v e y U '.oXL.! Q.}. .` ].[.} } Q.}.o.j b p a z z k v K W W K B m F z z z v v z . ",
". X o     o         o       .         X % % . @ O + + # O O O + + O # < + X % % . . . .         o   . X   o   o o o     "
};
