/* XPM */
static char *d885dde912824bbacdc409eec0582dbfKu7k4STyLSzpX0Wk[] = {
/* columns rows colors chars-per-pixel */
"60 60 5 1 ",
"  c #BA0000",
". c #CC9869",
"X c #E3B96E",
"o c #F3D487",
"O c white",
/* pixels */
"......XXXXXXXXXXXXXXXXXXXXXXXXXXXXXXXXXXXXXXXXXXXXXXXX......",
"......XXXXXXXXXXXXXXXXXXXXXXXXXXXXXXXXXXXXXXXXXXXXXXXX......",
"......XXXXXXXXXXXXXXXXXXXXXXXXXXXXXXXXXXXXXXXXXXXXXXXX......",
"...oooooooooooooooooooooooooooooooooooooooooooooooooooooo...",
"...oooooooooooooooooooooooooooooooooooooooooooooooooooooo...",
"...oooooooooooooooooooooooooooooooooooooooooooooooooooooo...",
"XXXooooooooooooooooooooooooooooooooooooooooooooooooooooooXXX",
"XXXooooooooooooooooooooooooooooooooooooooooooooooooooooooXXX",
"XXXooooooooooooooooooooooooooooooooooooooooooooooooooooooXXX",
"XXXoooooo                                          ooooooXXX",
"XXXoooooo                                          ooooooXXX",
"XXXoooooo                                          ooooooXXX",
"XXXoooooo               OOOOOOOOOOOO               ooooooXXX",
"XXXoooooo               OOOOOOOOOOOO               ooooooXXX",
"XXXoooooo               OOOOOOOOOOOO               ooooooXXX",
"XXXoooooo               OOOOOOOOOOOO               ooooooXXX",
"XXXoooooo               OOOOOOOOOOOO               ooooooXXX",
"XXXoooooo               OOOOOOOOOOOO               ooooooXXX",
"XXXoooooo               OOOOOOOOOOOO               ooooooXXX",
"XXXoooooo               OOOOOOOOOOOO               ooooooXXX",
"XXXoooooo               OOOOOOOOOOOO               ooooooXXX",
"XXXoooooo               OOOOOOOOOOOO               ooooooXXX",
"XXXoooooo               OOOOOOOOOOOO               ooooooXXX",
"XXXoooooo               OOOOOOOOOOOO               ooooooXXX",
"XXXoooooo   OOOOOOOOOOO  OOOOOOOOOOOOOOOOOOOOOOO   ooooooXXX",
"XXXoooooo   OOOOOOOOOOO   OOOOOOOOOOOOOOOOOOOOOO   ooooooXXX",
"XXXoooooo   OOOOOOOOOOO    OOOOOOOOOOOOOOOOOOOOO   ooooooXXX",
"XXXoooooo   OOOOOOOOOOO     OOOOOOOOOOOOOOOOOOOO   ooooooXXX",
"XXXoooooo   OOOOOOOOOOO      OOOOOOOOOOOOOOOOOOO   ooooooXXX",
"XXXoooooo   OOOOOOOOOOO       OOOOOOOOOOOOOOOOOO   ooooooXXX",
"XXXoooooo   OOOOOOOOOOO       OOOOOOOOOOOOOOOOOO   ooooooXXX",
"XXXoooooo   OOOOOOOOOOO       OOOOOOOOOOOOOOOOOO   ooooooXXX",
"XXXoooooo   OOOOOOOOOOO       OOOOOOOOOOOOOOOOOO   ooooooXXX",
"XXXoooooo   OOOOOOOOOOO       OOOOOOOOOOOOOOOOOO   ooooooXXX",
"XXXoooooo   OOOOOOOOOOO       OOOOOOOOOOOOOOOOOO   ooooooXXX",
"XXXoooooo   OOOOOOOOOOO       OOOOOOOOOOOOOOOOOO   ooooooXXX",
"XXXoooooo                     OOOOOO               ooooooXXX",
"XXXoooooo                     OOOOOO               ooooooXXX",
"XXXoooooo               OOOOOOOOOOOO               ooooooXXX",
"XXXoooooo               OOOOOOOOOOOO               ooooooXXX",
"XXXoooooo               OOOOOOOOOOOO               ooooooXXX",
"XXXoooooo               OOOOOOOOOOOO               ooooooXXX",
"XXXoooooo               OOOOOOOOOOOO               ooooooXXX",
"XXXoooooo               OOOOOOOOOOOO               ooooooXXX",
"XXXoooooo               OOOOOOOOOOOO               ooooooXXX",
"XXXoooooo               OOOOOOOOOOOO               ooooooXXX",
"XXXoooooo               OOOOOOOOOOOO               ooooooXXX",
"XXXoooooo               OOOOOOOOOOOO               ooooooXXX",
"XXXoooooo                                          ooooooXXX",
"XXXoooooo                                          ooooooXXX",
"XXXoooooo                                          ooooooXXX",
"XXXooooooooooooooooooooooooooooooooooooooooooooooooooooooXXX",
"XXXooooooooooooooooooooooooooooooooooooooooooooooooooooooXXX",
"XXXooooooooooooooooooooooooooooooooooooooooooooooooooooooXXX",
"...oooooooooooooooooooooooooooooooooooooooooooooooooooooo...",
"...oooooooooooooooooooooooooooooooooooooooooooooooooooooo...",
"...oooooooooooooooooooooooooooooooooooooooooooooooooooooo...",
"......XXXXXXXXXXXXXXXXXXXXXXXXXXXXXXXXXXXXXXXXXXXXXXXX......",
"......XXXXXXXXXXXXXXXXXXXXXXXXXXXXXXXXXXXXXXXXXXXXXXXX......",
"......XXXXXXXXXXXXXXXXXXXXXXXXXXXXXXXXXXXXXXXXXXXXXXXX......"
};
