/* XPM */
static char *_ac32d326e8f4fd58b16222f59489ab3ELHADzIb50TKePSk[] = {
/* columns rows colors chars-per-pixel */
"180 60 9 1 ",
"  c black",
". c gray20",
"X c red",
"o c #CC9869",
"O c #E3B96E",
"+ c #F3D487",
"@ c #8DACE0",
"# c #CEDEF4",
"$ c white",
/* pixels */
"ooooooOOOOOOOOOOOOOOOOOOOOOOOOOOOOOOOOOOOOOOOOOOOOOOOOooooooooooooOOOOOOOOOOOOOOOOOOOOOOOOOOOOOOOOOOOOOOOOOOOOOOOOooooooooooooOOOOOOOOOOOOOOOOOOOOOOOOOOOOOOOOOOOOOOOOOOOOOOOOoooooo",
"ooooooOOOOOOOOOOOOOOOOOOOOOOOOOOOOOOOOOOOOOOOOOOOOOOOOooooooooooooOOOOOOOOOOOOOOOOOOOOOOOOOOOOOOOOOOOOOOOOOOOOOOOOooooooooooooOOOOOOOOOOOOOOOOOOOOOOOOOOOOOOOOOOOOOOOOOOOOOOOOoooooo",
"ooooooOOOOOOOOOOOOOOOOOOOOOOOOOOOOOOOOOOOOOOOOOOOOOOOOooooooooooooOOOOOOOOOOOOOOOOOOOOOOOOOOOOOOOOOOOOOOOOOOOOOOOOooooooooooooOOOOOOOOOOOOOOOOOOOOOOOOOOOOOOOOOOOOOOOOOOOOOOOOoooooo",
"ooo++++++++++++++++++++++++++++++++++++++++++++++++++++++oooooo++++++++++++++++++++++++++++++++++++++++++++++++++++++oooooo++++++++++++++++++++++++++++++++++++++++++++++++++++++ooo",
"ooo++++++++++++++++++++++++++++++++++++++++++++++++++++++oooooo++++++++++++++++++++++++++++++++++++++++++++++++++++++oooooo++++++++++++++++++++++++++++++++++++++++++++++++++++++ooo",
"ooo++++++++++++++++++++++++++++++++++++++++++++++++++++++oooooo++++++++++++++++++++++++++++++++++++++++++++++++++++++oooooo++++++++++++++++++++++++++++++++++++++++++++++++++++++ooo",
"OOO++++++++++++++++++++++++++++++++++++++++++++++++++++++OOOOOO++++++++++++++++++++++++++++++++++++++++++++++++++++++OOOOOO++++++++++++++++++++++++++++++++++++++++++++++++++++++OOO",
"OOO+++++++++                  +++++++++++++++++++++++++++OOOOOO+++++++++                  +++++++++++++++++++++++++++OOOOOO++++++++++++++++++++++++++++++++++++++++++++++++++++++OOO",
"OOO+++++++++                  +++++++++++++++++++++++++++OOOOOO+++++++++                  +++++++++++++++++++++++++++OOOOOO++++++++++++++++++++++++++++++++++++++++++++++++++++++OOO",
"OOO+++++++++                  +++++++++++++++++++++++++++OOOOOO+++++++++                  +++++++++++++++++++++++++++OOOOOO++++++++++++++++++++++++++++++++++++++++++++++++++++++OOO",
"OOO++++++   ##################   ++++++++++++++++++++++++OOOOOO++++++   ##################   ++++++++++++++++++++++++OOOOOO++++++++++++++++++++++++++++++++++++++++++++++++++++++OOO",
"OOO++++++   ##################   ++++++++++++++++++++++++OOOOOO++++++   ##################   ++++++++++++++++++++++++OOOOOO+++++++++                  +++++++++++++++++++++++++++OOO",
"OOO++++++   ##################   ++++++++++++++++++++++++OOOOOO++++++   ##################   ++++++++++++++++++++++++OOOOOO+++++++++                  +++++++++++++++++++++++++++OOO",
"OOO+++   ############@@@@@@###@@@   +++++++++++++++++++++OOOOOO+++   ############@@@@@@###@@@   +++++++++++++++++++++OOOOOO+++++++++                  +++++++++++++++++++++++++++OOO",
"OOO+++   ############@@@@@@###@@@   +++++++++++++++++++++OOOOOO+++   ############@@@@@@###@@@   +++++++++++++++++++++OOOOOO++++++   ##################   ++++++++++++++++++++++++OOO",
"OOO+++   ############@@@@@@###@@@   +++++++++++++++++++++OOOOOO+++   ############@@@@@@###@@@   +++++++++++++++++++++OOOOOO++++++   ##################   ++++++++++++++++++++++++OOO",
"OOO++++++         @@@###@@@@@@@@@   +++++++++++++++++++++OOOOOO++++++         @@@###@@@@@@@@@   +++++++++++++++++++++OOOOOO++++++   ##################   ++++++++++++++++++++++++OOO",
"OOO++++++         @@@###@@@@@@@@@   +++++++++++++++++++++OOOOOO++++++         @@@###@@@@@@@@@   +++++++++++++++++++++OOOOOO+++   ############@@@@@@###@@@   +++++++++++++++++++++OOO",
"OOO++++++         @@@###@@@@@@@@@   +++++++++++++++++++++OOOOOO++++++         @@@###@@@@@@@@@   +++++++++++++++++++++OOOOOO+++   ############@@@@@@###@@@   +++++++++++++++++++++OOO",
"OOO+++++++++   @@@@@@@@@@@@   @@@   +++++++++++++++++++++OOOOOO+++++++++   @@@@@@@@@@@@   @@@   +++++++++++++++++++++OOOOOO+++   ############@@@@@@###@@@   +++++++++++++++++++++OOO",
"OOO+++++++++   @@@@@@@@@@@@   @@@   +++++++++++++++++++++OOOOOO+++++++++   @@@@@@@@@@@@   @@@   +++++++++++++++++++++OOOOOO++++++         @@@###@@@@@@@@@   +++++++++++++++++++++OOO",
"OOO+++++++++   @@@@@@@@@@@@   @@@   +++++++++++++++++++++OOOOOO+++++++++   @@@@@@@@@@@@   @@@   +++++++++++++++++++++OOOOOO++++++         @@@###@@@@@@@@@   +++++++++++++++++++++OOO",
"OOO++++++++++++   @@@@@@@@@   @@@   +++++++++++++++++++++OOOOOO++++++++++++   @@@@@@@@@   @@@   +++++++++++++++++++++OOOOOO++++++         @@@###@@@@@@@@@   +++++++++++++++++++++OOO",
"OOO++++++++++++   @@@@@@@@@   @@@   +++++++++++++++++++++OOOOOO++++++++++++   @@@@@@@@@   @@@   +++++++++++++++++++++OOOOOO+++++++++   @@@@@@@@@@@@   @@@   +++++++++++++++++++++OOO",
"OOO++++++++++++   @@@@@@@@@   @@@   +++++++++++++++++++++OOOOOO++++++++++++   @@@@@@@@@   @@@   +++++++++++++++++++++OOOOOO+++++++++   @@@@@@@@@@@@   @@@   +++++++++++++++++++++OOO",
"OOO++++++++++++      @@@@@@@@@@@@   +++++++++++++++++++++OOOOOO++++++++++++      @@@@@@@@@@@@   +++++++++++++++++++++OOOOOO+++++++++   @@@@@@@@@@@@   @@@   +++++++++++++++++++++OOO",
"OOO++++++++++++      @@@@@@@@@@@@   +++++++++++++++++++++OOOOOO++++++++++++      @@@@@@@@@@@@   +++++++++++++++++++++OOOOOO++++++++++++   @@@@@@@@@   @@@   +++++++++++++++++++++OOO",
"OOO++++++++++++      @@@@@@@@@@@@   +++++++++++++++++++++OOOOOO++++++++++++      @@@@@@@@@@@@   +++++++++++++++++++++OOOOOO++++++++++++   @@@@@@@@@   @@@   +++++++++++++++++++++OOO",
"OOO++++++++++++         @@@@@@@@@                  ++++++OOOOOO++++++++++++         @@@@@@@@@      ++++++++++++++++++OOOOOO++++++++++++   @@@@@@@@@   @@@   +++++++++++++++++++++OOO",
"OOO++++++++++++         @@@@@@@@@                  ++++++OOOOOO++++++++++++         @@@@@@@@@      ++++++++++++++++++OOOOOO++++++++++++      @@@@@@@@@@@@   +++++++++++++++++++++OOO",
"OOO+++++++++            @@@@@@@@@   $$$$$$$$$......++++++OOOOOO+++++++++            @@@@@@@@@      ++++++++++++++++++OOOOOO++++++++++++      @@@@@@@@@@@@   +++++++++++++++++++++OOO",
"OOO+++++++++   ...                  $$$$$$$$$......   +++OOOOOO+++++++++   ...                                 ++++++OOOOOO++++++++++++      @@@@@@@@@@@@   +++++++++++++++++++++OOO",
"OOO+++++++++   ...                  $$$$$$$$$......   +++OOOOOO+++++++++   ...                                 ++++++OOOOOO++++++++++++         @@@@@@@@@      ++++++++++++++++++OOO",
"OOO+++++++++   ...                  $$$$$$XXX$$$...++++++OOOOOO+++++++++   ...                  $$$$$$$$$......++++++OOOOOO++++++++++++         @@@@@@@@@      ++++++++++++++++++OOO",
"OOO+++++++++   ......               $$$$$$XXX$$$  +++++++OOOOOO+++++++++   ...                  $$$$$$$$$......   +++OOOOOO++++++++++           @@@@@@@@@      ++++++++++++++++++OOO",
"OOO+++++++++   ......               $$$$$$XXX$$$  +++++++OOOOOO+++++++++   ...                  $$$$$$$$$......   +++OOOOOO++++++++++  ...                                 ++++++OOO",
"OOO+++++++++   ......               $$$$$$XXX$$$  +++++++OOOOOO+++++++++   ...                  $$$$$$XXX$$$...++++++OOOOOO++++++++++  ...                                 ++++++OOO",
"OOO+++++++++   .........               $$$      +++++++++OOOOOO+++++++++   ......               $$$$$$XXX$$$  +++++++OOOOOO++++++++++  ...                  $$$$$$$$$......++++++OOO",
"OOO+++++++++   .........               $$$      +++++++++OOOOOO+++++++++   ......               $$$$$$XXX$$$  +++++++OOOOOO++++++++++  ...                  $$$$$$$$$......   +++OOO",
"OOO+++++++++   .........               $$$+++++++++++++++OOOOOO+++++++++   ......               $$$$$$XXX$$$  +++++++OOOOOO++++++++++  ...                  $$$$$$$$$......   +++OOO",
"OOO+++++++++   ..................         +++++++++++++++OOOOOO+++++++++   .........               $$$      +++++++++OOOOOO++++++++++  ...                  $$$$$$XXX$$$...++++++OOO",
"OOO+++++++++   ..................         +++++++++++++++OOOOOO+++++++++   .........               $$$      +++++++++OOOOOO++++++++++  ......               $$$$$$XXX$$$  +++++++OOO",
"OOO+++++++++   ..................++++++++++++++++++++++++OOOOOO+++++++++   .........         +++   $$$+++++++++++++++OOOOOO++++++++++  ......               $$$$$$XXX$$$  +++++++OOO",
"OOO+++++++++                     ++++++++++++++++++++++++OOOOOO+++++++++                     +++      +++++++++++++++OOOOOO++++++++++  ......               $$$$$$XXX$$$  +++++++OOO",
"OOO+++++++++                     ++++++++++++++++++++++++OOOOOO+++++++++                     +++      +++++++++++++++OOOOOO++++++++++  .........               $$$      +++++++++OOO",
"OOO++++++++++++                  ++++++++++++++++++++++++OOOOOO++++++++++++                  ++++++++++++++++++++++++OOOOOO++++++++++  .........               $$$      +++++++++OOO",
"OOO++++++++++++                  ++++++++++++++++++++++++OOOOOO++++++++++++                  ++++++++++++++++++++++++OOOOOO++++++++++++.........         +++   $$$+++++++++++++++OOO",
"OOO++++++++++++                  ++++++++++++++++++++++++OOOOOO++++++++++++                  ++++++++++++++++++++++++OOOOOO+++++++++++++                 +++      +++++++++++++++OOO",
"OOO++++++++++++                  ++++++++++++++++++++++++OOOOOO++++++++++++                  ++++++++++++++++++++++++OOOOOO+++++++++++++                 +++      +++++++++++++++OOO",
"OOO++++++++++++++++++         +++++++++++++++++++++++++++OOOOOO++++++++++++++++++         +++++++++++++++++++++++++++OOOOOO+++++++++++++++++++         ++++++++++++++++++++++++++OOO",
"OOO++++++++++++++++++         +++++++++++++++++++++++++++OOOOOO++++++++++++++++++         +++++++++++++++++++++++++++OOOOOO+++++++++++++++++++         ++++++++++++++++++++++++++OOO",
"OOO++++++++++++++++++         +++++++++++++++++++++++++++OOOOOO++++++++++++++++++         +++++++++++++++++++++++++++OOOOOO+++++++++++++++++++         ++++++++++++++++++++++++++OOO",
"OOO++++++++++++++++++         +++++++++++++++++++++++++++OOOOOO++++++++++++++++++         +++++++++++++++++++++++++++OOOOOO+++++++++++++++++++         ++++++++++++++++++++++++++OOO",
"OOO++++++++++++++++++++++++++++++++++++++++++++++++++++++OOOOOO++++++++++++++++++++++++++++++++++++++++++++++++++++++OOOOOO++++++++++++++++++++++++++++++++++++++++++++++++++++++OOO",
"ooo++++++++++++++++++++++++++++++++++++++++++++++++++++++oooooo++++++++++++++++++++++++++++++++++++++++++++++++++++++oooooo++++++++++++++++++++++++++++++++++++++++++++++++++++++ooo",
"ooo++++++++++++++++++++++++++++++++++++++++++++++++++++++oooooo++++++++++++++++++++++++++++++++++++++++++++++++++++++oooooo++++++++++++++++++++++++++++++++++++++++++++++++++++++ooo",
"ooo++++++++++++++++++++++++++++++++++++++++++++++++++++++oooooo++++++++++++++++++++++++++++++++++++++++++++++++++++++oooooo++++++++++++++++++++++++++++++++++++++++++++++++++++++ooo",
"ooooooOOOOOOOOOOOOOOOOOOOOOOOOOOOOOOOOOOOOOOOOOOOOOOOOooooooooooooOOOOOOOOOOOOOOOOOOOOOOOOOOOOOOOOOOOOOOOOOOOOOOOOooooooooooooOOOOOOOOOOOOOOOOOOOOOOOOOOOOOOOOOOOOOOOOOOOOOOOOoooooo",
"ooooooOOOOOOOOOOOOOOOOOOOOOOOOOOOOOOOOOOOOOOOOOOOOOOOOooooooooooooOOOOOOOOOOOOOOOOOOOOOOOOOOOOOOOOOOOOOOOOOOOOOOOOooooooooooooOOOOOOOOOOOOOOOOOOOOOOOOOOOOOOOOOOOOOOOOOOOOOOOOoooooo",
"ooooooOOOOOOOOOOOOOOOOOOOOOOOOOOOOOOOOOOOOOOOOOOOOOOOOooooooooooooOOOOOOOOOOOOOOOOOOOOOOOOOOOOOOOOOOOOOOOOOOOOOOOOooooooooooooOOOOOOOOOOOOOOOOOOOOOOOOOOOOOOOOOOOOOOOOOOOOOOOOoooooo"
};
