/* XPM */
static char *aef948b1b5374c5bd5da8a131af6cc53JLU8pfXg9NAuU8Zt[] = {
/* columns rows colors chars-per-pixel */
"60 60 10 1 ",
"  c black",
". c #0E0C26",
"X c gray20",
"o c red",
"O c #FF6600",
"+ c #CC9869",
"@ c #E3B96E",
"# c #5A6C97",
"$ c #F3D487",
"% c #A0CAE0",
/* pixels */
"++++++@@@@@@@@@@@@@@@@@@@@@@@@@@@@@@@@@@@@@@@@@@@@@@@@++++++",
"++++++@@@@@@@@@@@@@@@@@@@@@@@@@@@@@@@@@@@@@@@@@@@@@@@@++++++",
"++++++@@@@@@@@@@@@@@@@@@@@@@@@@@@@@@@@@@@@@@@@@@@@@@@@++++++",
"+++$$$$$$$$$$$$$$$$$$$$$$$$$$$$$$$$$$$$$$$$$$$$$$$$$$$$$$+++",
"+++$$$$$$$$$$$$$$$$$$$$$$$$$$$$$$$$$$$$$$$$$$$$$$$$$$$$$$+++",
"+++$$$$$$$$$$$$$$$$$$$$$$$$$$$$$$$$$$$$$$$$$$$$$$$$$$$$$$+++",
"@@@$$$$$$   ####################################   $$$$$$@@@",
"@@@$$$$$$   ####################################   $$$$$$@@@",
"@@@$$$$$$   ####################################   $$$$$$@@@",
"@@@$$$   %%%%%%%%%%%%%%%%%%%%%%%%%%%%%%%%%%%%%%%###   $$$@@@",
"@@@$$$   %%%%%%%%%%%%%%%%%%%%%%%%%%%%%%%%%%%%%%%###   $$$@@@",
"@@@$$$   %%%%%%%%%%%%%%%%%%%%%%%%%%%%%%%%%%%%%%%###   $$$@@@",
"@@@$$$XXX%%%%%%%%%%%%%%%%%%%%%%%%%%%%%%%%%%%%%%%%%%XXX$$$@@@",
"@@@$$$XXX%%%%%%%%%%%%%%%%%%%%%%%%%%%%%%%%%%%%%%%%%%XXX$$$@@@",
"@@@$$$XXX%%%%%%%%%%%%%%%%%%%%%%%%%%%%%%%%%%%%%%%%%%XXX$$$@@@",
"@@@$$$XXX%%%%%%%%%%%%%%%%%%%%%%%%%%%%%%%%%%%%%%%%%%XXX$$$@@@",
"@@@$$$XXX%%%%%%%%%%%%%%%%%%%%%%%%%%%%%%%%%%%%%%%%%%XXX$$$@@@",
"@@@$$$XXX%%%%%%%%%%%%%%%%%%%%%%%%%%%%%%%%%%%%%%%%%%XXX$$$@@@",
"@@@$$$XXX%%%%%%%%%%%%%%%%%%%%%%%%%%%%%%%%%%%%%%%%%%XXX$$$@@@",
"@@@$$$XXX%%%%%%%%%%%%%%%%%%%%%%%%%%%%%%%%%%%%%%%%%%XXX$$$@@@",
"@@@$$$XXX%%%%%%%%%%%%%%%%%%%%%%%%%%%%%%%%%%%%%%%%%%XXX$$$@@@",
"@@@$$$XXX###%%%%%%%%%%%%%%%%%%%%%%%%%%%%%%%%%%%%###XXX$$$@@@",
"@@@$$$XXX###%%%%%%%%%%%%%%%%%%%%%%%%%%%%%%%%%%%%###XXX$$$@@@",
"@@@$$$XXX###%%%%%%%%%%%%%%%%%%%%%%%%%%%%%%%%%%%%###XXX$$$@@@",
"@@@$$$XXX...####################################...XXX$$$@@@",
"@@@$$$XXX...####################################...XXX$$$@@@",
"@@@$$$XXX...####################################...XXX$$$@@@",
"@@@$$$XXX..........................................XXX$$$@@@",
"@@@$$$XXX..........................................XXX$$$@@@",
"@@@$$$XXX..........................................XXX$$$@@@",
"@@@$$$XXX..........................................XXX$$$@@@",
"@@@$$$XXX...ooooo.......oooooooooooo.......ooooo...XXX$$$@@@",
"@@@$$$XXX...ooooo.......oooooooooooo.......ooooo...XXX$$$@@@",
"@@@$$$XXX...ooooo.......oooooooooooo.......ooooo...XXX$$$@@@",
"@@@$$$XXX...ooooo.......oooooooooooo.......ooooo...XXX$$$@@@",
"@@@$$$XXX...ooooo.......oooooooooooo.......ooooo...XXX$$$@@@",
"@@@$$$XXXXXXOOOOOXXXXXXXOOOOOOOOOOOOXXXXXXXOOOOOXXXXXX$$$@@@",
"@@@$$$XXXXXXOOOOOXXXXXXXOOOOOOOOOOOOXXXXXXXOOOOOXXXXXX$$$@@@",
"@@@$$$XXXXXXOOOOOXXXXXXXOOOOOOOOOOOOXXXXXXXOOOOOXXXXXX$$$@@@",
"@@@$$$XXX###OOOOOXXXXXXXOOOOOOOOOOOOXXXXXXXOOOOO%%%XXX$$$@@@",
"@@@$$$XXX###XXXXXXXXXXXXXXXXXXXXXXXXXXXXXXXXXXXX%%%XXX$$$@@@",
"@@@$$$XXX###XXXXXXXXXXXXXXXXXXXXXXXXXXXXXXXXXXXX%%%XXX$$$@@@",
"@@@$$$XXX%%%%%%%%%%%%%%%%%%%%%%%%%%%%%%%%%%%%%%%###XXX$$$@@@",
"@@@$$$XXX%%%%%%%%%%%%%%%%%%%%%%%%%%%%%%%%%%%%%%%###XXX$$$@@@",
"@@@$$$XXX%%%%%%%%%%%%%%%%%%%%%%%%%%%%%%%%%%%%%%%###XXX$$$@@@",
"@@@$$$XXX%%%%%%%%%%%%%%%%%%%%%%%%%%%%%%%%%%%%%%%###XXX$$$@@@",
"@@@$$$XXX%%%%%%%%%%%%%%%%%%%%%%%%%%%%%%%%%%%%%%%###XXX$$$@@@",
"@@@$$$XXX%%%%%%%%%%%%%%%%%%%%%%%%%%%%%%%%%%%%%%%###XXX$$$@@@",
"@@@$$$   ###%%%%%%%%%##############################   $$$@@@",
"@@@$$$   ###%%%%%%%%%##############################   $$$@@@",
"@@@$$$   ###%%%%%%%%%##############################   $$$@@@",
"@@@$$$$$$   ####################################   $$$$$$@@@",
"@@@$$$$$$   ####################################   $$$$$$@@@",
"@@@$$$$$$   ####################################   $$$$$$@@@",
"+++$$$$$$$$$$$$$$$$$$$$$$$$$$$$$$$$$$$$$$$$$$$$$$$$$$$$$$+++",
"+++$$$$$$$$$$$$$$$$$$$$$$$$$$$$$$$$$$$$$$$$$$$$$$$$$$$$$$+++",
"+++$$$$$$$$$$$$$$$$$$$$$$$$$$$$$$$$$$$$$$$$$$$$$$$$$$$$$$+++",
"++++++@@@@@@@@@@@@@@@@@@@@@@@@@@@@@@@@@@@@@@@@@@@@@@@@++++++",
"++++++@@@@@@@@@@@@@@@@@@@@@@@@@@@@@@@@@@@@@@@@@@@@@@@@++++++",
"++++++@@@@@@@@@@@@@@@@@@@@@@@@@@@@@@@@@@@@@@@@@@@@@@@@++++++"
};
