/* XPM */
static char *c6533313b11c4548b5b88ac59abe9264tzePFybLSJvqELwA[] = {
/* columns rows colors chars-per-pixel */
"60 60 250 2 ",
"   c #040101",
".  c #0B0101",
"X  c #03040C",
"o  c #0C0B0A",
"O  c #0A0904",
"+  c #120100",
"@  c #150C02",
"#  c #150A06",
"$  c #0C120A",
"%  c #1C1302",
"&  c #1B140C",
"*  c #1B1B0A",
"=  c #171807",
"-  c #090914",
";  c #1C1C1C",
":  c #191815",
">  c #160C14",
",  c #220E00",
"<  c #241B02",
"1  c #2B1C02",
"2  c #221C0B",
"3  c #271808",
"4  c #231D12",
"5  c #221C1A",
"6  c #271915",
"7  c #331F0C",
"8  c #1F200B",
"9  c #1D231D",
"0  c #1C2517",
"q  c #2C2303",
"w  c #282609",
"e  c #3A2C03",
"r  c #33250C",
"t  c #342B0C",
"y  c #372907",
"u  c #393506",
"i  c #232214",
"p  c #2A2313",
"a  c #2C2A14",
"s  c #23241C",
"d  c #2A231A",
"f  c #25291C",
"g  c #2B2A1B",
"h  c #332C13",
"j  c #372B1A",
"k  c #2B3218",
"l  c #343214",
"z  c #33321A",
"x  c #3C3518",
"c  c #1C1924",
"v  c #221C25",
"b  c #1D2527",
"n  c #1F2530",
"m  c #242424",
"M  c #2B2524",
"N  c #242923",
"B  c #2A2A24",
"V  c #25252A",
"C  c #29252B",
"Z  c #2C2C2B",
"A  c #232B2B",
"S  c #332B23",
"D  c #332D2B",
"F  c #392B26",
"G  c #2D312D",
"H  c #2B3325",
"J  c #343223",
"K  c #34332C",
"L  c #3B322B",
"P  c #3B3A2D",
"I  c #383825",
"U  c #2D2D33",
"Y  c #262733",
"T  c #352E35",
"R  c #2D3333",
"E  c #2D353A",
"W  c #333333",
"Q  c #3C3A33",
"!  c #3C3C3C",
"~  c #373538",
"^  c #442E06",
"/  c #473808",
"(  c #533C04",
")  c #473817",
"_  c #523D16",
"`  c #402F10",
"'  c #453B28",
"]  c #433C37",
"[  c #3F4136",
"{  c #3D430D",
"}  c #4A4409",
"|  c #59480B",
" . c #4A4317",
".. c #574817",
"X. c #5B5319",
"o. c #5C590F",
"O. c #63490C",
"+. c #644C15",
"@. c #64531B",
"#. c #6A5617",
"$. c #735915",
"%. c #745816",
"&. c #66560B",
"*. c #77661D",
"=. c #6A6319",
"-. c #4B4227",
";. c #564928",
":. c #5D5528",
">. c #43423B",
",. c #454438",
"<. c #554B34",
"1. c #585239",
"2. c #6B5C24",
"3. c #665826",
"4. c #6A5C36",
"5. c #6C5726",
"6. c #6F652A",
"7. c #776627",
"8. c #746636",
"9. c #767032",
"0. c #3B3A43",
"q. c #3B3A51",
"w. c #433D43",
"e. c #3C4347",
"r. c #444444",
"t. c #4A4A45",
"y. c #4C4C4C",
"u. c #474747",
"i. c #534D45",
"p. c #53534D",
"a. c #57554A",
"s. c #4B4B53",
"d. c #4E5355",
"f. c #535353",
"g. c #5C5B55",
"h. c #555559",
"j. c #5B5B5B",
"k. c #585657",
"l. c #4E4F4F",
"z. c #635D48",
"x. c #625C55",
"c. c #5D615C",
"v. c #62625D",
"b. c #68655A",
"n. c #766C4B",
"m. c #575A67",
"M. c #615E60",
"N. c #5F6162",
"B. c #636363",
"V. c #6B6B6C",
"C. c #676768",
"Z. c #736B6A",
"A. c #75756B",
"S. c #736D73",
"D. c #797A7A",
"F. c #757575",
"G. c #6B6E72",
"H. c #876E1B",
"J. c #846B26",
"K. c #88772B",
"L. c #887636",
"P. c #957D34",
"I. c #896F33",
"U. c #8C784A",
"Y. c #817B69",
"T. c #968427",
"R. c #9A863A",
"E. c #8F8032",
"W. c #AA9527",
"Q. c #AA9637",
"!. c #B69B36",
"~. c #AD9031",
"^. c #BAA526",
"/. c #BBA536",
"(. c #BEB134",
"). c #B6A31E",
"_. c #D4B61C",
"`. c #C59D2B",
"'. c #C59E3B",
"]. c #D6B629",
"[. c #C5A638",
"{. c #CCB436",
"}. c #D6B637",
"|. c #CAAE26",
" X c #EBBE30",
".X c #EAC51D",
"XX c #D7C23B",
"oX c #EAC72A",
"OX c #F3C928",
"+X c #F8D329",
"@X c #EBCA37",
"#X c #F3CC3C",
"$X c #F5CC39",
"%X c #FCD53B",
"&X c #F8D638",
"*X c #EBD02A",
"=X c #998957",
"-X c #958A4C",
";X c #AA9747",
":X c #B59B45",
">X c #A89455",
",X c #BAA449",
"<X c #B9A657",
"1X c #AFAA57",
"2X c #8D8872",
"3X c #B5AB6C",
"4X c #A49671",
"5X c #C4A946",
"6X c #CBB648",
"7X c #D5BA47",
"8X c #C9B757",
"9X c #D6B95A",
"0X c #C3AA57",
"qX c #CDB969",
"wX c #D8C359",
"eX c #D9C24B",
"rX c #EACB46",
"tX c #F4CD46",
"yX c #E9D14A",
"uX c #F4D344",
"iX c #FAD544",
"pX c #F5D34B",
"aX c #FAD44A",
"sX c #FADA49",
"dX c #E8CB57",
"fX c #EBD459",
"gX c #FCDB53",
"hX c #F7D757",
"jX c #F5CB58",
"kX c #F7E15F",
"lX c #D7C46F",
"zX c #E8CC66",
"xX c #ECD666",
"cX c #F7D966",
"vX c #E4C775",
"bX c #E8D878",
"nX c #F8D975",
"mX c #FCE168",
"MX c #FCE47B",
"NX c #7E7E80",
"BX c #828383",
"VX c #838B82",
"CX c #989191",
"ZX c #ABAA8F",
"AX c #A3A295",
"SX c #C8BB92",
"DX c #ECD78B",
"FX c #F9E78F",
"GX c #E8D79F",
"HX c #D1D5C7",
/* pixels */
"c   % w % + 6 3 = & c - - C : . 3 + + + @ 6 > v c > ; ; > + 3 , @ < # 6 > - o X   . + + + + + + # X X X o   . + + + . X ",
"5 # y 6.J.H.K.I.9.:.z & 5 L 2 < 7.J.J.J.L.U.' j 5 # f a ` 7.I.P.7.L.8.<.d > : & @ ` 7.J.H.*.K.8.t = : c 6 % ( *.7.I.) . ",
"& @ :.3X9X7XeX9X1X9. .k F ] h 5.9XXX}.7X9X0X..) F v L  .H.eXeXXX{.eX;XX.) 7 s t e E.9X].].].}.K.y 2 v v 7 ^ W.{.|.7X7.+ ",
"@ e ,XDXFXFXFXGXSXZXAXAXAXZXSXDXnXfXcXxXbX4XCXCXBXY.2X3XbXfXfXsXyX9XI.n.x.k.t.;.;XzXrXoX*XyX/.( l J J j / Q.rXOX.X{.#.  ",
"@ ..lXFXFXbXFX4Xa.Z.z.a.4.n.lXMXhXmXxXbXE.x i.y.! x 8.vXxXcXmXxXbX6. .t.! K h 7.zXhXiX&XhXlX5.j T ~ W u P.nXtX&X$X{.#.@ ",
"O :.wXFXxXfXqX;.p ,.[ w _ <XcXuXiXyXcX;X} k ,.,.t } 8XmXsXgXcXbX-Xl Q y.] t +.9XhXiXaXgXxXJ.j L W K r 2.vXcX%X%X@X:X/   ",
". 3.8XFXnXlX9.z ] y.] ` =XnXgX%X%XhX9X..J E s.P / ;XmXaX%XaXnX<X/ I ! i.x ( [.gX%X%XiXcXR./ ` F F x ..9XhXuXiXiXdX*.1   ",
". 2.wXFXDXU.-.Q T ] ` 5.vXjX@X+X#X7X%.r H E e.l =.zXdXtXrXfX8X| t G ~ t.` P.dX@XoXoXhX~.( t L F a / >XdXtX%XuXcX;Xe %   ",
". 3.lXFX>X' ,.G 9 z u -X0X:X!.W.~.#.1 6 ; A H { -X;X;X!.~.:X#.w d c E W -.>X!.W.^.!.T.( < & ; ; < :.;X|.oX%XgX8X..7 :   ",
"% 6.qXDX<.] i.U 0 H z ' ) ' ' ' y < & c c V G t t  .U.4.;.n.1.' f.s.0.W L t e e e e q % & c c : 2 1 ( |.oXgX7X$.j j :   ",
"@ 8.qXZX' i.[ J 8 k P J f P L k i 9 b m c H I w 8 I A.h.u.S.j.] c.p.! [ K 5 d 5 : s s m b c n V p 1 ( `.rXfXH./ I B &   ",
"@ <.U.ZX,.! [ a [ [ G A b R ! A b n Y V s I I a i Q G.m.e.G.k.>.z.i.H [ G b A Y Y C A b b n A N w q | !.dXQ.u l I C $ O ",
"  2 x CXw.w.B ;.=X .: V Y b m 9 A Y V v v 0.~ v c 0.m.s.e.N.y.] g.p.I 0 0 0 9 b b 9 s f N s s i p q } 0X;X..l J K f & . ",
"o . L CX0.S } ;X0X( 7 C n c M F S B B Z G E w.U C W B.a.r.B.y.r.m.d.E A R Z D U G Z H D D D m s d w ;.-X+.a W W I g g   ",
"- $ K CX] u T.fX!.( r M Y Y y.V.Z.Z.Z.V.V.G.F.F.N.G [ ,.Z y.0.T u.0.E d.G.G.S.S.G.G.S.S.V.s.C m N s ' ;.t K T K z :.,.. ",
"- - ~ VX) *.dXyX^.( 6 T n n h.F.D.BXBXBXBXBXNXBXBXf.G ~ C ~ ! Z W ! r.D.BXNXBXBXNX2XVXD.G.a.m M s M N * f K K h | ;X6.. ",
"X o H 2X6.8XkXyX`.( 3 C A V l.C.V.D.D.F.D.D.NXF.D.D.V.A.S.G.F.V.V.G.F.D.D.F.D.D.D.D.G.C.B.f.C m s 5 s ; m L j ^ ;X8X2.. ",
"$ @ t =X,XkXsX@X/.( w B m N i.C.B.x.f.k.B.c.j.B.M.j.B.B.k.l.f.f.l.h.f.l.f.j.j.B.k.l.g.c.C.s.M m m s v c C ] y ;XzX6X#.. ",
"O @ u qXcX&XsXrX,X} 2 B s N p.V.C.l.W ! j.j.j.B.N.B.B.f.y.u.y.t.y.y.u.y.k.B.N.j.[ A e.B.G.s.V V C C v c D r J.zXrX{.%.+ ",
"@ % #.bXhX&XiXhX;Xe i B s f a.C.B.j.r.u.v.c.B.j.k.j.j.h.u.y.y.y.y.y.y.l.j.c.j.j.y.W y.B.C.h.V v V V v ; r #.9XgXoX].%.. ",
". / :XmXiX%XaXwX| % g m s B p.B.M.B.N.j.B.j.f.j.B.N.h.y.y.y.y.y.y.t.y.f.j.j.c.j.j.l.d.B.C.d.V V m m s 2 u ,XgX&XOX].%.+ ",
". @.6XhXaXtXcXP.1 & V m 9 s p.V.B.j.N.j.j.j.! ~ e.k.j.u.t.s.y.y.y.p.u.T W r.j.g.l.y.h.B.C.d.V m m M 4 < E.xXiX+XOX}.#.. ",
". #.7XhXjXcX0X/ < s c Y V C h.C.M.j.N.j.j.y.Z Z Z ! y.y.t.y.y.y.y.r.R Z C W f.j.y.l.c.N.V.d.C b B s w &.eXgX&X%X#XW.^ . ",
"  @.7XfXnXqX| t 4 : c Y V U u.V.C.h.j.j.x.h.Z W W B ~ l.y.y.l.l.r.G Z W Z ! k.f.t.d.g.B.G.s.C m p 2 l W.#XiX$XgXdX&.<   ",
". @.eXcXvX8.y j 0 0 R A U W Z [ c.j.h.j.N.j.y.Z Z W Z ~ y.y.l.r.G Z ~ Z G f.c.y.y.l.j.C.w.v C F S k  ./.@XiXaXnX-Xe *   ",
"  @.7XzXP.y ' G b u.c.j.k.B.u.N j.c.j.h.j.k.c.u.Z W W N W y.r.W Z W Z W h.c.h.u.p.h.N.h.U u.x.x.z.z.8.[.oXaXcX:X( w *   ",
"  :.qX;X .k K S 4 [ p.a.f.h.s.U j.c.j.j.k.k.j.c.r.C G ~ B W W C W Z W f.j.k.l.y.l.c.N.h.~ s.k.i.1.1.3.`.@XmX9X+.h j :   ",
". :.>X6.h K D F w ,.[ [ w.r.T : k.j.h.B.k.j.k.k.f.! Z W W A Z W Z Z f.v.k.f.y.l.h.k.j.h.v T w.] -.-.;.`.rXwX*.u L v :   ",
"O ) 3.;.k Q L r ;.b.c.c.j.x.y.N k.j.c.V.j.k.j.f.l.y.! Z G W W W W l.j.k.k.f.u.p.f.h.j.j.Y s.M.x.x.z.n.5XdXR.u l Q M :   ",
"  = h ,.T L j :.=Xb.i.f.f.p.p.G j.j.B.V.B.k.k.f.u.y.y.C Z W G Z ! j.h.f.k.l.y.d.g.c.h.j.~ u.k.a.i.<.4.<X>X_ z K K j 6   ",
"O $ m ,.T ` _ <X1X;.] 0.] r.Z c k.j.j.C.C.j.h.y.f.u.W Z W Z G T Z 0.j.k.l.y.l.g.h.h.j.j.c Z w.] ] ' <.=X;.L U W F y r   ",
"$ > 5 r.F ^ ;XfX/.8.z.x.g.x.t.A j.j.k.C.B.B.f.y.r.W Z W Z Z Z Z W A [ k.l.y.d.g.f.h.k.j.V u.M.k.x.x.z.) ' 0.E W ` 8.;.. ",
"o > 9 [ e P.cXrX^.6.1.f.p.g.y.U j.j.h.j.C.B.l.r.Z Z K Z D u.r.Z Z W C ~ y.l.h.f.h.h.k.h.! y.h.f.f.a.,.8 r.q.U x | <X3.  ",
"O o i l =.9XpX@X).| x Q Q W Z A j.j.f.h.C.B.p.U U W Z Z w.l.l.r.U D W Z W y.j.f.k.f.k.h.R Z ~ Q K Q K 8 t.e.g ..,X6X@.  ",
". & 1 @.6XgXiX$X).} w i C C 0.m.B.h.f.h.c.c.e.K G Z W r.y.u.l.k.>.Z Z ~ K ! f.f.f.f.j.C.h.~ m N s m s * p.[ u Q.dX}.#.. ",
"# @ q /.hX%X%XjX[./ 8 k m C f.V.C.p.f.f.f.f.! ! Z R r.l.y.l.f.k.f.e.Z G Z U t.j.j.f.h.B.V.y.B m N m s : a.-.K.fX#X}.$.  ",
"@ , %.rXiX%XaXjXR.e 8 m C C j.C.c.k.h.f.p.l.r.! Z r.l.y.y.f.f.l.f.h.r.C N ~ l.h.f.h.h.B.C.l.Z ; m m s 4 z.8.wXsXOX}.%.  ",
". _ :XtX&X&XcX9XO.% f b Y v p.C.c.k.f.f.y.y.h.f.l.l.y.y.y.f.f.f.f.f.y.r.r.y.f.h.f.l.h.B.V.l.Z m m m s 2 U.lXdX&X X].%.. ",
". %.}. X%XsXxXL., * s m C C h.B.v.h.h.l.y.l.j.j.j.y.y.y.y.l.f.f.f.y.y.l.l.f.l.l.f.l.p.x.V.h.A V m d i q 1XFX#X%X$X}.+.+ ",
"+ #.].$XiXhX;Xu 2 & s m A C f.C.v.h.y.y.y.u.p.j.j.f.y.y.l.f.f.f.l.y.y.p.f.f.f.f.s.p.k.v.B.s.C m N 4 q #.vXcXiXiX#X~.^ . ",
". #.].@XgX5X| 7 5 c s N m C h.B.N.y.W ~ y.y.y.k.N.k.p.y.f.l.f.f.l.y.l.l.l.f.f.y.! W t.v.V.f.m N d p x ;XcXcXtXsXeXO.< O ",
"+ &.].yXwX#.y L c c N N m V k.C.B.y.K ~ y.l.y.h.j.N.l.y.f.p.l.l.l.l.l.l.f.f.l.h.] D t.v.b.d.V m i p ..,XdXnXcXcXT.q =   ",
". +.eXeXK.l F W : 4 s b Y C f.C.x.s.] r.u.r.r.r.f.j.h.u.y.u.u.y.u.u.u.y.y.t.t.y.u.! y.c.B.l.N m p w  .5XdXmXxX;X/ u : X ",
"  3.8XT./ K L W : = s N V v x.b.r.R ~ W ~ R W R ! r.! R Z Z Z Z C Z Z W ~ W W W ~ W K u.B.p.m f a q  .[.fXMX8X .k a : X ",
"  4.=X..j W Q a a 0 9 C v C p.t.K W W W R ~ W W W Z ! G > 9 m > M C : Z ! Z W ~ G K G G t.y.N f i w ..,XxXDX3.h k f 9 - ",
". ' ;.x L K x t :.) 4 B m N W S Z D Z Z Z Z U U ; W C.j.! h.r.W f.r.Z m Z Z Z Z D D B N H R M s i <  .,XDXU.h ' J 0 c X ",
"- & 4 ] F L u 6.>X) 2 s N N C M m m V m m m m B ; ! F.j.s.C.y.w.B.y.G v m V m C m m m s m V V s d w ) 1XSXU.M Q P p =   ",
"o # 4 ] L r | 0X<X( r s b b v V V N C N C V m v m 0.V.k.h.x.u.t.v.u.K m m m V m m v m N m v Y m M p <.U.ZXS.C G x l a . ",
"  = i [ x / ,XxX'.( 7 M A b N v N N N s N s B m s ! B.j.k.C.t.t.v.t.G s m N m m C C s m N C B V M d I h CXA.K I x 9...@ ",
"O $ s ' e R.xXyX`.( 1 6 N s N N 9 8 i 8 i i 4 B b ! C.d.j.F.] ] z.i.B 0 M M M v m B d 2 2 p p i d 6 g = AXA.g t 6.<X2.. ",
"O = i I 7.dXgXtX`.%._ a 0 0 i p 8 { o.| &.+.:.I 4 R l.[ ,.z.8.5.J.#...1.J ; v ; s * r +.+.O.&.X.;.z 5 $ AX2X7 +.,X8X@.. ",
"  = < 3.8XhXsXoX_.!.| 8 $ 8 = % | !.'.|.`.[.!.( < & i * r 9.5X^.|.).,X;Xu = ; m : < 7.,X[.^./.1X9.t = $ AXY.^ :XfX{.#.. ",
"@ @ e :XcXaX%X&XXXK.u k R D a ..'. X XoX X7XJ.^ j ` j y @.8XdXoXoXtX7XI.;.a.h.g.z.=XvXjXyXfXfXbX1X=X2XVXHX2XK.hX@X|.$.. ",
"@ , H.jXgXaX#XmX,X| l Q 0.T -.:XgX$X&XpXcX;X/ j Q P j ..8XmXpXgXjXnXU.' ] ] t.-.L.vXnXcXmXnXDX=Xn.A.Y.2X2X-XwXgX@X|.$.. ",
". _ [.&X&XsXhX9X3.h K T U F P.aX%X%X&XkX1X} z H H l x ;XhXsXsXsXnX:X) F L J t } !.cXuXiXyXxX-Xt m C v p ..qXcXgX$X}.%.. ",
". #.}..X+XsXfXJ.y z K L h 7.dX%X&X%XkXdX=.w H I k u L.nXsXiXuXgX9X..j F L l u ~.cXgX&X&XgX,X( F T 0.T _ 0XcXtXiXtX7X+.+ ",
"  @.{.oX&XyXR./ x x I x +.6XsXOX$XaXdXI.` ' T L ` *.9XjX$X$XpXzXI.x ! ! J u K.dXyX*X@XpX7X5.` ] ] J x T.uX&X+X+XrXW.y + ",
"@ 2.0X{.eXR./ a x l l / -X7X].}.].}.H.^ 7 L T j _ ;X7X].].}.6XK./ I N H w o.,X{.XX_.XX{.&.y r j a u o.(.]._._.].'.| 3 + ",
"  r @.+...` 2 5 ; ; * a ....+.+.X...^ 1 p : 5 * j +.O.%.O.O...t x H 0 0 2 ) :...O.+.X.} q < s 8 8 w } @.O.O.+.+._ q # X ",
"$     . . .   X X X                   .               .     . o & 0 $     . .       .   .             . X . .       - X "
};
